<?xml version="1.0" encoding="UTF-8"?>
<svg version="1.1" xmlns="http://www.w3.org/2000/svg" width="512" height="512">
<path d="M0 0 C0.83383209 -0.00570007 1.66766418 -0.01140015 2.52676392 -0.01727295 C4.2865474 -0.02666896 6.04634804 -0.03323529 7.80615234 -0.03710938 C10.43490385 -0.04672266 13.06284063 -0.0777591 15.69140625 -0.109375 C27.13369921 -0.18115253 37.89605972 0.90430641 49.1015625 3.203125 C50.04660645 3.39664551 50.99165039 3.59016602 51.96533203 3.78955078 C54.15312069 4.27334927 56.31329975 4.80763443 58.4765625 5.390625 C59.24709961 5.5971167 60.01763672 5.8036084 60.81152344 6.01635742 C105.58423757 18.56300373 143.11636858 49.06037374 166.1015625 89.203125 C176.04965598 107.11403741 186.08849637 129.62851406 186.27856445 150.37597656 C186.29139969 151.60205627 186.30423492 152.82813599 186.31745911 154.09136963 C186.32563589 155.42549223 186.33307781 156.7596195 186.33984375 158.09375 C186.34595704 159.11417011 186.34595704 159.11417011 186.35219383 160.15520477 C186.37302453 163.76687814 186.38733046 167.37851404 186.39672852 170.99023438 C186.40552832 173.94422415 186.42626133 176.89773426 186.45825195 179.8515625 C186.78870784 211.05169411 186.78870784 211.05169411 182.1015625 225.203125 C181.67774292 226.63470947 181.67774292 226.63470947 181.24536133 228.09521484 C180.51023407 230.51360735 179.7070374 232.88748664 178.8515625 235.265625 C178.55636719 236.09578125 178.26117188 236.9259375 177.95703125 237.78125 C174.97553186 245.92735503 171.26573891 253.60308328 167.1015625 261.203125 C166.51375 262.28207031 165.9259375 263.36101562 165.3203125 264.47265625 C150.0928589 291.43217069 127.6129928 313.4486819 101.1015625 329.203125 C100.52889648 329.5444043 99.95623047 329.88568359 99.36621094 330.23730469 C85.14456377 338.57248208 69.70683488 344.32917289 53.7265625 348.265625 C52.86530762 348.48178467 52.00405273 348.69794434 51.11669922 348.9206543 C46.14801935 350.05969795 42.15605343 350.43277068 37.1015625 349.203125 C34.6640625 347.265625 34.6640625 347.265625 33.1015625 345.203125 C33.1015625 344.543125 33.1015625 343.883125 33.1015625 343.203125 C32.47894531 343.36683594 31.85632813 343.53054688 31.21484375 343.69921875 C26.89463868 344.39847402 22.65700205 344.30796893 18.2890625 344.265625 C17.40541016 344.26111328 16.52175781 344.25660156 15.61132812 344.25195312 C13.44137691 344.24022366 11.27146078 344.22228995 9.1015625 344.203125 C8.98039062 344.94691406 8.85921875 345.69070313 8.734375 346.45703125 C7.03838023 353.81681102 1.93591454 358.76430961 -3.8984375 363.203125 C-3.54910156 363.95078125 -3.19976562 364.6984375 -2.83984375 365.46875 C-2.38480469 366.45359375 -1.92976563 367.4384375 -1.4609375 368.453125 C-1.00847656 369.42765625 -0.55601562 370.4021875 -0.08984375 371.40625 C3.24176541 379.22733905 3.18243448 387.81829413 0.6015625 395.890625 C-1.73630279 401.69324028 -5.48484972 405.85640976 -9.8984375 410.203125 C-10.5584375 410.863125 -11.2184375 411.523125 -11.8984375 412.203125 C-11.54910156 412.87859375 -11.19976562 413.5540625 -10.83984375 414.25 C-10.38480469 415.14203125 -9.92976563 416.0340625 -9.4609375 416.953125 C-9.00847656 417.83484375 -8.55601562 418.7165625 -8.08984375 419.625 C-4.57976264 427.22058536 -4.87856405 436.00908249 -7.3984375 443.890625 C-9.73630279 449.69324028 -13.48484972 453.85640976 -17.8984375 458.203125 C-18.5584375 458.863125 -19.2184375 459.523125 -19.8984375 460.203125 C-19.54910156 460.87859375 -19.19976562 461.5540625 -18.83984375 462.25 C-18.38480469 463.14203125 -17.92976563 464.0340625 -17.4609375 464.953125 C-17.00847656 465.83484375 -16.55601562 466.7165625 -16.08984375 467.625 C-12.59661974 475.1841077 -12.87582024 483.96693213 -15.3359375 491.828125 C-19.21913377 501.22383066 -25.50432119 507.06423251 -34.66776657 511.12057304 C-40.45970701 513.06137004 -46.20674549 512.95709357 -52.26611328 512.96118164 C-53.67905249 512.9794654 -55.0919672 512.99973165 -56.50485229 513.02180481 C-60.3209456 513.0741914 -64.1365258 513.09443854 -67.95294046 513.10527349 C-70.35965435 513.11333452 -72.76624084 513.12799135 -75.17290878 513.14477348 C-83.63633228 513.20298814 -92.09937309 513.23318251 -100.56298828 513.23950195 C-107.483735 513.24537471 -114.40258411 513.29420866 -121.32275391 513.38305664 C-195.79297506 514.32000147 -195.79297506 514.32000147 -228.8984375 500.203125 C-229.00800781 500.90179688 -229.11757812 501.60046875 -229.23046875 502.3203125 C-229.38902344 503.23039062 -229.54757813 504.14046875 -229.7109375 505.078125 C-229.86175781 505.98304688 -230.01257813 506.88796875 -230.16796875 507.8203125 C-230.8984375 510.203125 -230.8984375 510.203125 -233.8984375 512.203125 C-236.71584207 512.40816286 -239.43521453 512.49682258 -242.25366211 512.49365234 C-243.53215279 512.50372818 -243.53215279 512.50372818 -244.83647156 512.51400757 C-247.65796718 512.5330276 -250.47922548 512.53691365 -253.30078125 512.5390625 C-255.25989379 512.5454872 -257.21900535 512.55221531 -259.17811584 512.55923462 C-263.28632838 512.57121709 -267.39445676 512.5749144 -271.50268555 512.57373047 C-276.77002007 512.57352712 -282.03681599 512.60084101 -287.30402279 512.63527489 C-291.3506163 512.6574978 -295.3970792 512.66156944 -299.44372749 512.66051102 C-301.38582785 512.66287348 -303.32793145 512.67173315 -305.26997185 512.68717575 C-307.9849727 512.70674446 -310.6987991 512.70103409 -313.41381836 512.68896484 C-314.21758911 512.70020386 -315.02135986 512.71144287 -315.8494873 512.72302246 C-319.14538098 512.68573976 -321.37691832 512.57335167 -324.10429478 510.63718605 C-326.49644923 507.39181995 -326.45571814 504.64346637 -326.40637207 500.76367188 C-326.41261203 500.0117028 -326.418852 499.25973373 -326.42528105 498.48497772 C-326.44124422 495.96362513 -326.42859439 493.44323487 -326.41601562 490.921875 C-326.42143529 489.11498449 -326.42855707 487.3080984 -326.43725586 485.5012207 C-326.45551072 480.5921447 -326.44841276 475.68340448 -326.43573952 470.77432251 C-326.42562306 465.64055466 -326.43500143 460.50681584 -326.44128418 455.37304688 C-326.44856453 446.75124949 -326.43896269 438.12958909 -326.41992188 429.5078125 C-326.39815242 419.53523531 -326.40520351 409.56298521 -326.4272275 399.59041595 C-326.44537043 391.03320259 -326.44794523 382.47608777 -326.43747282 373.91886139 C-326.43123181 368.8057977 -326.43041896 363.69288783 -326.44361877 358.57983398 C-326.45516055 353.77314925 -326.44718219 348.96688684 -326.42404175 344.1602478 C-326.4187457 342.39456891 -326.42028371 340.62885456 -326.42909241 338.8631897 C-326.43999651 336.45583687 -326.42634796 334.04984389 -326.40637207 331.64257812 C-326.41529496 330.94102348 -326.42421784 330.23946884 -326.43341112 329.51665497 C-326.38016988 326.21712276 -326.08391909 324.45461654 -324.10387421 321.76990509 C-320.75506839 319.39085596 -317.38637495 319.64561044 -313.4296875 319.68554688 C-312.57721436 319.6785376 -311.72474121 319.67152832 -310.84643555 319.66430664 C-308.0301043 319.64670932 -305.21477886 319.6583554 -302.3984375 319.671875 C-300.44075325 319.66918058 -298.4830703 319.66529858 -296.52539062 319.66027832 C-292.42304743 319.65438092 -288.32105268 319.66295407 -284.21875 319.68164062 C-278.95923122 319.70443025 -273.70052886 319.69130847 -268.44104004 319.66735077 C-264.3987004 319.65289937 -260.35655445 319.65749577 -256.31420898 319.66786194 C-254.37491764 319.67053104 -252.43560873 319.66725303 -250.49633789 319.65794373 C-247.786147 319.64778898 -245.07727975 319.66326372 -242.3671875 319.68554688 C-241.56498779 319.67744995 -240.76278809 319.66935303 -239.9362793 319.66101074 C-236.34883634 319.71567951 -234.30067914 319.90044405 -231.39355469 322.0880127 C-229.6069882 324.61543248 -229.4685551 325.89512424 -229.6484375 328.953125 C-229.68453125 329.75234375 -229.720625 330.5515625 -229.7578125 331.375 C-229.80421875 331.97828125 -229.850625 332.5815625 -229.8984375 333.203125 C-217.38626962 325.04098184 -208.30554611 315.13086811 -204.28222656 300.64697266 C-204.0394397 299.79561234 -203.79665283 298.94425201 -203.54650879 298.0670929 C-202.74556944 295.25233561 -201.95489257 292.43480011 -201.1640625 289.6171875 C-200.60289105 287.63899258 -200.04100961 285.66099893 -199.47845459 283.68319702 C-197.99530297 278.46266054 -196.52051515 273.2397998 -195.04785156 268.01629639 C-192.70781983 259.72153816 -190.35499046 251.43040156 -188.00249481 243.1391716 C-187.19205849 240.27850727 -186.38504494 237.41689685 -185.57867432 234.55508423 C-184.03829196 229.09868347 -182.47464964 223.64927507 -180.8984375 218.203125 C-180.5998735 217.16641411 -180.30130951 216.12970322 -179.99369812 215.06157684 C-179.07166277 211.87671251 -178.13506614 208.69647665 -177.19433594 205.51708984 C-176.76758764 204.03658866 -176.76758764 204.03658866 -176.33221817 202.52617836 C-176.0583717 201.61160048 -175.78452522 200.69702259 -175.50238037 199.75473022 C-175.26470821 198.9467417 -175.02703606 198.13875317 -174.78216171 197.30628014 C-173.80225705 194.97422733 -172.89541861 193.74714553 -170.8984375 192.203125 C-167.76171875 191.91015625 -167.76171875 191.91015625 -164.2109375 192.015625 C-162.44169922 192.05623047 -162.44169922 192.05623047 -160.63671875 192.09765625 C-159.73308594 192.13246094 -158.82945312 192.16726562 -157.8984375 192.203125 C-157.8984375 189.563125 -157.8984375 186.923125 -157.8984375 184.203125 C-158.8471875 184.1 -159.7959375 183.996875 -160.7734375 183.890625 C-163.8984375 183.203125 -163.8984375 183.203125 -165.8984375 180.203125 C-166.3431518 176.7213085 -166.23075163 173.21022559 -166.2109375 169.703125 C-166.20529785 168.67010254 -166.1996582 167.63708008 -166.19384766 166.57275391 C-165.52212699 123.33655561 -145.51177447 82.91814861 -115.8984375 52.203125 C-115.1353125 51.37683594 -114.3721875 50.55054688 -113.5859375 49.69921875 C-85.31077415 19.9434303 -41.11442219 0.22482327 0 0 Z M-121.8984375 282.203125 C-122.23767326 284.55657306 -122.56994284 286.9106734 -122.8984375 289.265625 C-123.04152344 290.25079102 -123.04152344 290.25079102 -123.1875 291.25585938 C-123.79854362 295.68592563 -123.8984375 299.66790432 -123.8984375 304.203125 C-115.9784375 304.203125 -108.0584375 304.203125 -99.8984375 304.203125 C-103.62197628 300.47933412 -103.62197628 300.47933412 -107.36328125 296.7734375 C-111.19902851 292.98010766 -114.98571818 289.20809579 -118.4609375 285.078125 C-119.2653125 284.129375 -120.0696875 283.180625 -120.8984375 282.203125 C-121.2284375 282.203125 -121.5584375 282.203125 -121.8984375 282.203125 Z " fill="#E9D356" transform="translate(325.8984375,-0.203125)"/>
<path d="M0 0 C1.44605632 0.29996357 2.89089987 0.60577773 4.33520508 0.9140625 C5.13992752 1.08373535 5.94464996 1.2534082 6.77375793 1.42822266 C13.4438935 3.14134831 17.95802273 8.46662677 21.4375 14.125 C28.77313898 27.20793447 27.45252814 40.46811976 25.46875 54.88671875 C25.31337769 56.06917679 25.15800537 57.25163483 24.9979248 58.46992493 C24.50591592 62.21012814 24.00395746 65.94888942 23.5 69.6875 C22.99673451 73.43690027 22.49586336 77.1865493 22.0020752 80.93721008 C21.69615831 83.25973354 21.3848556 85.58155622 21.06726074 87.9025116 C19.10670116 98.34831825 19.10670116 98.34831825 21.31643677 108.21694946 C25.67416339 111.112371 30.1680338 110.54405601 35.28271484 110.49829102 C36.43433609 110.50380981 37.58595734 110.50932861 38.7724762 110.51501465 C41.27424794 110.5243443 43.77606717 110.52443193 46.27784348 110.51642036 C50.23703561 110.50382321 54.19552722 110.51505121 58.1546936 110.53245544 C65.84695854 110.56326894 73.53909192 110.56477732 81.23140717 110.56280518 C91.01540644 110.56141226 100.79930404 110.57181241 110.58322871 110.6113829 C115.14874277 110.62869008 119.71386947 110.62172488 124.27938843 110.61024475 C126.67242653 110.61638892 129.06546283 110.62330063 131.45849609 110.63110352 C132.54337814 110.62338425 133.62826019 110.61566498 134.74601746 110.60771179 C141.02142823 110.64995943 145.83779449 111.04810744 150.64453125 115.53515625 C154.83364552 121.01322875 155.62152402 124.18625519 155 131 C153.17465409 136.27322153 150.39280797 138.79691086 146 142 C143.15009886 142.94996705 141.36469303 143.12924358 138.40844727 143.1418457 C137.01669029 143.15239738 137.01669029 143.15239738 135.59681702 143.16316223 C134.59678146 143.16732651 133.59674591 143.17149078 132.56640625 143.17578125 C130.45246393 143.19897321 128.3385316 143.22309029 126.22460938 143.24804688 C122.88884741 143.28321193 119.55345439 143.31253631 116.2175293 143.32592773 C113.0000342 143.34137475 109.78361747 143.38155696 106.56640625 143.42578125 C105.56839493 143.42387283 104.57038361 143.42196442 103.54212952 143.41999817 C98.10630994 143.45204362 98.10630994 143.45204362 93.37084961 145.84838867 C91.48288491 148.81163584 91.42535382 150.55212294 92 154 C93.42982831 156.32547118 93.42982831 156.32547118 96 158 C99.02242057 158.38234538 101.69119178 158.53427602 104.7109375 158.50390625 C105.55669342 158.51332748 106.40244934 158.52274872 107.27383423 158.53245544 C109.97446939 158.56110482 112.6742252 158.56418437 115.375 158.5625 C118.06850556 158.56611383 120.76136991 158.57572916 123.45474243 158.60325623 C125.12863114 158.61997105 126.80273032 158.62297821 128.47665405 158.61024475 C134.06899969 158.66040377 138.39475732 159.56802762 142.64453125 163.53515625 C146.83364552 169.01322875 147.62152402 172.18625519 147 179 C145.17465409 184.27322153 142.39280797 186.79691086 138 190 C135.15009886 190.94996705 133.36469303 191.12924358 130.40844727 191.1418457 C129.01669029 191.15239738 129.01669029 191.15239738 127.59681702 191.16316223 C126.59678146 191.16732651 125.59674591 191.17149078 124.56640625 191.17578125 C122.45246393 191.19897321 120.3385316 191.22309029 118.22460938 191.24804688 C114.88884741 191.28321193 111.55345439 191.31253631 108.2175293 191.32592773 C105.0000342 191.34137475 101.78361747 191.38155696 98.56640625 191.42578125 C97.56839493 191.42387283 96.57038361 191.42196442 95.54212952 191.41999817 C90.10630994 191.45204362 90.10630994 191.45204362 85.37084961 193.84838867 C83.48288491 196.81163584 83.42535382 198.55212294 84 202 C85.42982831 204.32547118 85.42982831 204.32547118 88 206 C91.02242057 206.38234538 93.69119178 206.53427602 96.7109375 206.50390625 C97.55669342 206.51332748 98.40244934 206.52274872 99.27383423 206.53245544 C101.97446939 206.56110482 104.6742252 206.56418437 107.375 206.5625 C110.06850556 206.56611383 112.76136991 206.57572916 115.45474243 206.60325623 C117.12863114 206.61997105 118.80273032 206.62297821 120.47665405 206.61024475 C126.06899969 206.66040377 130.39475732 207.56802762 134.64453125 211.53515625 C138.83364552 217.01322875 139.62152402 220.18625519 139 227 C137.17465409 232.27322153 134.39280797 234.79691086 130 238 C127.15009886 238.94996705 125.36469303 239.12924358 122.40844727 239.1418457 C121.01669029 239.15239738 121.01669029 239.15239738 119.59681702 239.16316223 C118.59678146 239.16732651 117.59674591 239.17149078 116.56640625 239.17578125 C114.45246393 239.19897321 112.3385316 239.22309029 110.22460938 239.24804688 C106.88884741 239.28321193 103.55345439 239.31253631 100.2175293 239.32592773 C97.0000342 239.34137475 93.78361747 239.38155696 90.56640625 239.42578125 C89.56839493 239.42387283 88.57038361 239.42196442 87.54212952 239.41999817 C82.10630994 239.45204362 82.10630994 239.45204362 77.37084961 241.84838867 C75.48288491 244.81163584 75.42535382 246.55212294 76 250 C77.42982831 252.32547118 77.42982831 252.32547118 80 254 C83.02242057 254.38234538 85.69119178 254.53427602 88.7109375 254.50390625 C89.55669342 254.51332748 90.40244934 254.52274872 91.27383423 254.53245544 C93.97446939 254.56110482 96.6742252 254.56418437 99.375 254.5625 C102.06850556 254.56611383 104.76136991 254.57572916 107.45474243 254.60325623 C109.12863114 254.61997105 110.80273032 254.62297821 112.47665405 254.61024475 C118.06899969 254.66040377 122.39475732 255.56802762 126.64453125 259.53515625 C130.83364552 265.01322875 131.62152402 268.18625519 131 275 C129.17465409 280.27322153 126.39280797 282.79691086 122 286 C118.91207576 287.02930808 116.73997142 287.14578872 113.50166321 287.18081665 C112.35738861 287.19519775 111.21311401 287.20957886 110.03416443 287.22439575 C108.14807213 287.24021194 108.14807213 287.24021194 106.22387695 287.25634766 C104.8862069 287.27080258 103.54854009 287.28556032 102.21087646 287.30059814 C89.89416138 287.43186958 77.57652205 287.49702962 65.25924397 287.54844093 C56.19040516 287.5870019 47.12284359 287.65467131 38.05456382 287.76298869 C31.6438881 287.83688916 25.23355111 287.87444069 18.82246751 287.88746679 C15.0157246 287.89617711 11.21055439 287.91909918 7.40429115 287.98213577 C-13.17444918 288.3076279 -30.81553694 285.58124778 -50.39428139 279.15519333 C-55.34607066 277.56874842 -60.34546056 276.18539008 -65.35869884 274.8076725 C-68 274 -68 274 -69 273 C-69.09619441 271.30441297 -69.12187659 269.6047916 -69.12025452 267.90647888 C-69.12162918 266.80285004 -69.12300385 265.69922119 -69.12442017 264.56214905 C-69.12082489 263.34079758 -69.11722961 262.11944611 -69.11352539 260.86108398 C-69.11367142 259.58322021 -69.11381744 258.30535645 -69.1139679 256.98876953 C-69.11425585 253.47446409 -69.1083594 249.9601925 -69.10139394 246.44589496 C-69.09516012 242.77700644 -69.09455658 239.10811723 -69.09336853 235.43922424 C-69.0902553 228.48709565 -69.08204202 221.5349827 -69.07201904 214.58286101 C-69.06085766 206.6700522 -69.05534739 198.75724266 -69.05032361 190.84442794 C-69.0398594 174.56294279 -69.02226011 158.28147339 -69 142 C-67.36212524 141.20770996 -67.36212524 141.20770996 -65.69116211 140.39941406 C-64.24055949 139.68848387 -62.79012912 138.97720216 -61.33984375 138.265625 C-60.62227905 137.91967285 -59.90471436 137.5737207 -59.16540527 137.21728516 C-45.29485327 130.37918631 -34.27112661 117.2143527 -29.1595993 102.59666443 C-28.33111908 99.89196332 -27.55280487 97.17763588 -26.79199219 94.453125 C-26.49880096 93.42783188 -26.20560974 92.40253876 -25.90353394 91.34617615 C-24.94377826 87.98287719 -23.99526539 84.61651964 -23.046875 81.25 C-22.38067792 78.90711067 -21.71377713 76.56442133 -21.04620361 74.22192383 C-19.2966029 68.07548415 -17.5565411 61.92638396 -15.81848145 55.77667236 C-14.04101359 49.49400481 -12.25449689 43.21391209 -10.46875 36.93359375 C-6.97032797 24.6248936 -3.48167393 12.31344742 0 0 Z " fill="#E6CD9F" transform="translate(165,209)"/>
<path d="M0 0 C0 7.92 0 15.84 0 24 C-2.3925 24.969375 -4.785 25.93875 -7.25 26.9375 C-23.20222959 33.73857307 -34.27535931 44.47404725 -42 60 C-49.54394112 78.82566576 -48.20089783 95.42265805 -40.87109375 113.8359375 C-34.4795635 127.95520641 -22.29695264 139.11986233 -7.98510742 144.91943359 C3.28379469 148.99861579 14.29337252 149.44008524 26.15429688 149.52734375 C27.93223633 149.56021484 27.93223633 149.56021484 29.74609375 149.59375 C30.80497803 149.60083984 31.8638623 149.60792969 32.95483398 149.61523438 C37.15097334 150.14542885 40.53962793 151.63675481 43.64453125 154.53515625 C47.99761012 160.227644 48.789538 163.87222635 48 171 C45.78757561 175.42484878 43.05200384 178.19476657 39 181 C35.68811319 182.10396227 33.21623193 182.13121418 29.7277832 182.1418457 C28.4324617 182.14888016 27.1371402 182.15591461 25.80256653 182.16316223 C24.7639746 182.16588607 24.7639746 182.16588607 23.70440102 182.16866493 C21.53014706 182.17584943 19.35611631 182.19153244 17.18193054 182.21000671 C11.0003066 182.26236974 4.81880365 182.31039913 -1.36303711 182.32592773 C-5.14688083 182.33605473 -8.9301638 182.3654998 -12.71378517 182.40724754 C-14.15012161 182.41949856 -15.58653748 182.42468965 -17.02292442 182.42244911 C-26.27433247 182.4115735 -33.05049362 182.66271479 -40.2421875 188.96484375 C-40.78101563 189.61582031 -41.31984375 190.26679688 -41.875 190.9375 C-42.42929687 191.58589844 -42.98359375 192.23429688 -43.5546875 192.90234375 C-47.50168803 198.63082831 -47.72371141 204.24536013 -47 211 C-45.21036653 218.15853388 -41.0636927 222.92366282 -35 227 C-30.91926052 228.97896762 -27.4622169 229.29883702 -22.94921875 229.4140625 C-22.29041214 229.43342865 -21.63160553 229.4527948 -20.95283508 229.4727478 C-18.86451857 229.53215941 -16.77614576 229.57877291 -14.6875 229.625 C-13.26495095 229.66321532 -11.84242416 229.70226909 -10.41992188 229.7421875 C-6.94681926 229.83782796 -3.47354868 229.92199973 0 230 C0.029729 231.15000488 0.029729 231.15000488 0.06005859 232.32324219 C0.15535446 235.79917219 0.26501598 239.27450506 0.375 242.75 C0.4059375 243.9565625 0.436875 245.163125 0.46875 246.40625 C0.50742187 247.56640625 0.54609375 248.7265625 0.5859375 249.921875 C0.63306885 251.52434082 0.63306885 251.52434082 0.68115234 253.15917969 C0.9953377 255.95846057 1.46877553 257.65588649 3 260 C6.18977536 261.59488768 9.64505829 261.16301154 13.1484375 261.16796875 C13.95737457 261.17129715 14.76631165 261.17462555 15.59976196 261.17805481 C17.31292146 261.18312186 19.02609083 261.1854632 20.73925781 261.18530273 C23.35758808 261.18748548 25.97549453 261.20563294 28.59375 261.22460938 C30.25781106 261.2275441 31.92187412 261.22952837 33.5859375 261.23046875 C34.75955338 261.24124702 34.75955338 261.24124702 35.95687866 261.25224304 C41.32177991 261.29285334 41.32177991 261.29285334 46 259 C47.1007076 255.6978772 47.20627072 253.05916721 47.31640625 249.58203125 C47.35830078 248.32841797 47.40019531 247.07480469 47.44335938 245.78320312 C47.48267578 244.47287109 47.52199219 243.16253906 47.5625 241.8125 C47.60570992 240.47720022 47.649325 239.14191348 47.69335938 237.80664062 C47.79956502 234.53786703 47.90160997 231.26901667 48 228 C49.20039917 227.51623901 49.20039917 227.51623901 50.42504883 227.02270508 C67.90463226 219.87949774 81.92228843 209.65602639 89.86132812 192.09472656 C96.43435619 176.07400026 97.66295677 158.21632296 91 142 C83.43913452 125.62331668 72.04846556 113.91727872 55.25 107.140625 C54.1775 106.76421875 53.105 106.3878125 52 106 C51.32420898 105.73888428 50.64841797 105.47776855 49.95214844 105.20874023 C41.53565437 102.25559981 32.94901157 102.55705365 24.14794922 102.56420898 C22.10333435 102.56062529 20.06000835 102.53327272 18.015625 102.50390625 C16.81196289 102.50205322 15.60830078 102.5002002 14.36816406 102.49829102 C9.17251279 101.72963892 6.10150676 99.25035903 2.6875 95.375 C-0.62098774 90.71860985 -0.62082623 86.60468123 0 81 C2.49334503 76.01330993 5.99350949 72.50324526 11 70 C13.02025161 69.89494236 15.0439468 69.85395361 17.06689453 69.84228516 C18.97995895 69.82689194 18.97995895 69.82689194 20.93167114 69.81118774 C21.61576176 69.80774982 22.29985237 69.8043119 23.004673 69.80076981 C25.149439 69.78897103 27.29400451 69.76951241 29.43869019 69.74765015 C35.53750851 69.6860919 41.63630963 69.63214136 47.73535156 69.59863281 C51.46609976 69.5775845 55.19648757 69.54219355 58.92702866 69.49787521 C60.34382737 69.48378663 61.76068991 69.47500903 63.17755508 69.47182083 C73.35317179 69.44651647 81.7097248 69.00061099 89.45703125 61.78515625 C94.31298439 56.16700287 95.70121423 49.94595641 95.375 42.63671875 C94.35036943 35.43228504 90.61341317 31.16240755 85.29296875 26.4453125 C78.12235005 21.92550173 69.7622918 22.57368249 61.5625 22.375 C60.25861328 22.33632812 58.95472656 22.29765625 57.61132812 22.2578125 C54.4077749 22.16393548 51.2039073 22.080896 48 22 C48 14.74 48 7.48 48 0 C84.89188663 7.9932421 116.85056924 26.68046275 137.91674805 58.74755859 C146.1415588 71.70815375 152.32447176 85.06593625 156 100 C156.28617187 101.02738281 156.57234375 102.05476563 156.8671875 103.11328125 C158.76759608 110.09049561 159.73400821 116.77791983 160 124 C160.02723145 124.7115625 160.05446289 125.423125 160.08251953 126.15625 C161.38604305 165.50790328 148.18504134 199.8828856 122 229 C121.40832031 229.66386719 120.81664062 230.32773437 120.20703125 231.01171875 C102.48484585 249.78410772 78.48879412 260.46759095 54 267 C52.17082031 267.51433594 52.17082031 267.51433594 50.3046875 268.0390625 C36.79161716 271.33268101 18.28201836 273.51532883 5.5625 267.0625 C4.02379824 266.06880406 2.49795589 265.05411711 1 264 C-1.87234158 263.04255281 -3.47568845 262.92218557 -6.4375 263 C-20.67021942 263.0841713 -30.81257582 260.27056196 -43 253 C-43.67643555 252.60071289 -44.35287109 252.20142578 -45.04980469 251.79003906 C-78.4204077 231.69502478 -99.03827127 201.22153322 -109 164 C-109.18852539 163.33500488 -109.37705078 162.67000977 -109.57128906 161.98486328 C-117.47909554 132.90947538 -110.95600247 99.55109027 -98 73 C-97.52820313 72.02804688 -97.05640625 71.05609375 -96.5703125 70.0546875 C-80.98860135 39.85962013 -52.52450543 15.41930709 -20.23828125 4.7578125 C-16.83908343 3.76803545 -13.43464125 2.85758295 -10 2 C-9.14792969 1.77441406 -8.29585938 1.54882812 -7.41796875 1.31640625 C-2.37931034 0 -2.37931034 0 0 0 Z " fill="#FBE980" transform="translate(312,42)"/>
<path d="M0 0 C15.0076552 3.99976232 26.03286427 12.8011476 34.1640625 25.87109375 C44.47504265 44.80079394 39.60067269 67.84033486 37 88.125 C36.70993335 90.45169795 36.4208642 92.77852048 36.1328125 95.10546875 C35.43334277 100.73846402 34.72167315 106.36980851 34 112 C34.54554157 111.99539104 35.09108315 111.99078207 35.65315628 111.98603344 C48.976213 111.87522866 62.29918813 111.79300637 75.62260818 111.74093914 C82.06596365 111.7149084 88.50898514 111.67962888 94.95214844 111.62280273 C101.17673754 111.5682514 107.40100653 111.53853046 113.62581635 111.52561378 C115.99395533 111.51641542 118.36207791 111.49845354 120.73007965 111.47134972 C148.82082676 111.16277832 148.82082676 111.16277832 159.5390625 121.33203125 C166.90865649 129.74597947 168.68225418 137.99683679 168 149 C166.90125362 158.00662525 162.26979548 164.42549446 155.35546875 169.96875 C154.90816406 170.3090625 154.46085937 170.649375 154 171 C154.34933594 171.74765625 154.69867188 172.4953125 155.05859375 173.265625 C155.51363281 174.25046875 155.96867187 175.2353125 156.4375 176.25 C157.11619141 177.71179688 157.11619141 177.71179688 157.80859375 179.203125 C161.14020291 187.02421405 161.08087198 195.61516913 158.5 203.6875 C156.16213471 209.49011528 152.41358778 213.65328476 148 218 C147.34 218.66 146.68 219.32 146 220 C146.34933594 220.67546875 146.69867188 221.3509375 147.05859375 222.046875 C147.51363281 222.93890625 147.96867187 223.8309375 148.4375 224.75 C148.88996094 225.63171875 149.34242188 226.5134375 149.80859375 227.421875 C153.31867486 235.01746036 153.01987345 243.80595749 150.5 251.6875 C148.16213471 257.49011528 144.41358778 261.65328476 140 266 C139.34 266.66 138.68 267.32 138 268 C138.34933594 268.67546875 138.69867188 269.3509375 139.05859375 270.046875 C139.51363281 270.93890625 139.96867187 271.8309375 140.4375 272.75 C140.88996094 273.63171875 141.34242188 274.5134375 141.80859375 275.421875 C145.30181776 282.9809827 145.02261726 291.76380713 142.5625 299.625 C138.67930373 309.02070566 132.39411631 314.86110751 123.23067093 318.91744804 C117.43873049 320.85824504 111.69169201 320.75396857 105.63232422 320.75805664 C104.21938501 320.7763404 102.8064703 320.79660665 101.39358521 320.81867981 C97.5774919 320.8710664 93.7619117 320.89131354 89.94549704 320.90214849 C87.53878315 320.91020952 85.13219666 320.92486635 82.72552872 320.94164848 C74.26210522 320.99986314 65.79906441 321.03005751 57.33544922 321.03637695 C50.4147025 321.04224971 43.49585339 321.09108366 36.57568359 321.17993164 C-37.89453756 322.11687647 -37.89453756 322.11687647 -71 308 C-71.10957031 308.69867188 -71.21914062 309.39734375 -71.33203125 310.1171875 C-71.49058594 311.02726562 -71.64914063 311.93734375 -71.8125 312.875 C-71.96332031 313.77992188 -72.11414063 314.68484375 -72.26953125 315.6171875 C-73 318 -73 318 -76 320 C-78.81740457 320.20503786 -81.53677703 320.29369758 -84.35522461 320.29052734 C-85.20755173 320.29724457 -86.05987885 320.30396179 -86.93803406 320.31088257 C-89.75952968 320.3299026 -92.58078798 320.33378865 -95.40234375 320.3359375 C-97.36145629 320.3423622 -99.32056785 320.34909031 -101.27967834 320.35610962 C-105.38789088 320.36809209 -109.49601926 320.3717894 -113.60424805 320.37060547 C-118.87158257 320.37040212 -124.13837849 320.39771601 -129.40558529 320.43214989 C-133.4521788 320.4543728 -137.4986417 320.45844444 -141.54528999 320.45738602 C-143.48739035 320.45974848 -145.42949395 320.46860815 -147.37153435 320.48405075 C-150.0865352 320.50361946 -152.8003616 320.49790909 -155.51538086 320.48583984 C-156.31915161 320.49707886 -157.12292236 320.50831787 -157.9510498 320.51989746 C-161.24694348 320.48261476 -163.47848082 320.37022667 -166.20585728 318.43406105 C-168.59801173 315.18869495 -168.55728064 312.44034137 -168.50793457 308.56054688 C-168.51417453 307.8085778 -168.5204145 307.05660873 -168.52684355 306.28185272 C-168.54280672 303.76050013 -168.53015689 301.24010987 -168.51757812 298.71875 C-168.52299779 296.91185949 -168.53011957 295.1049734 -168.53881836 293.2980957 C-168.55707322 288.3890197 -168.54997526 283.48027948 -168.53730202 278.57119751 C-168.52718556 273.43742966 -168.53656393 268.30369084 -168.54284668 263.16992188 C-168.55012703 254.54812449 -168.54052519 245.92646409 -168.52148438 237.3046875 C-168.49971492 227.33211031 -168.50676601 217.35986021 -168.52879 207.38729095 C-168.54693293 198.83007759 -168.54950773 190.27296277 -168.53903532 181.71573639 C-168.53279431 176.6026727 -168.53198146 171.48976283 -168.54518127 166.37670898 C-168.55672305 161.57002425 -168.54874469 156.76376184 -168.52560425 151.9571228 C-168.5203082 150.19144391 -168.52184621 148.42572956 -168.53065491 146.6600647 C-168.54155901 144.25271187 -168.52791046 141.84671889 -168.50793457 139.43945312 C-168.51685746 138.73789848 -168.52578034 138.03634384 -168.53497362 137.31352997 C-168.48173238 134.01399776 -168.18548159 132.25149154 -166.20543671 129.56678009 C-162.85663089 127.18773096 -159.48793745 127.44248544 -155.53125 127.48242188 C-154.67877686 127.4754126 -153.82630371 127.46840332 -152.94799805 127.46118164 C-150.1316668 127.44358432 -147.31634136 127.4552304 -144.5 127.46875 C-142.54231575 127.46605558 -140.5846328 127.46217358 -138.62695312 127.45715332 C-134.52460993 127.45125592 -130.42261518 127.45982907 -126.3203125 127.47851562 C-121.06079372 127.50130525 -115.80209136 127.48818347 -110.54260254 127.46422577 C-106.5002629 127.44977437 -102.45811695 127.45437077 -98.41577148 127.46473694 C-96.47648014 127.46740604 -94.53717123 127.46412803 -92.59790039 127.45481873 C-89.8877095 127.44466398 -87.17884225 127.46013872 -84.46875 127.48242188 C-83.26545044 127.47027649 -83.26545044 127.47027649 -82.0378418 127.45788574 C-78.45039884 127.51255451 -76.40224164 127.69731905 -73.49511719 129.8848877 C-71.7085507 132.41230748 -71.5701176 133.69199924 -71.75 136.75 C-71.78609375 137.54921875 -71.8221875 138.3484375 -71.859375 139.171875 C-71.90578125 139.77515625 -71.9521875 140.3784375 -72 141 C-59.48783212 132.83785684 -50.40710861 122.92774311 -46.38378906 108.44384766 C-46.1410022 107.59248734 -45.89821533 106.74112701 -45.64807129 105.8639679 C-44.84713194 103.04921061 -44.05645507 100.23167511 -43.265625 97.4140625 C-42.70445355 95.43586758 -42.14257211 93.45787393 -41.58001709 91.48007202 C-40.09686547 86.25953554 -38.62207765 81.0366748 -37.14941406 75.81317139 C-34.80938233 67.51841316 -32.45655296 59.22727656 -30.10405731 50.9360466 C-29.29362099 48.07538227 -28.48660744 45.21377185 -27.68023682 42.35195923 C-26.13985446 36.89555847 -24.57621214 31.44615007 -23 26 C-22.701436 24.96328911 -22.40287201 23.92657822 -22.09526062 22.85845184 C-21.17322527 19.67358751 -20.23662864 16.49335165 -19.29589844 13.31396484 C-18.86915014 11.83346366 -18.86915014 11.83346366 -18.43378067 10.32305336 C-18.02301096 8.95118653 -18.02301096 8.95118653 -17.60394287 7.55160522 C-17.36627071 6.7436167 -17.12859856 5.93562817 -16.88372421 5.10315514 C-13.81572192 -2.19831369 -6.78945336 -0.77719444 0 0 Z M-3 17 C-3.1509248 17.53376755 -3.30184959 18.0675351 -3.45734787 18.61747742 C-7.13815118 31.63306457 -10.82793566 44.64607665 -14.52729416 57.65640259 C-16.31604104 63.94829548 -18.10183659 70.24099462 -19.88085938 76.53564453 C-21.59860198 82.61305179 -23.3241332 88.68819819 -25.05503082 94.76187134 C-25.71323344 97.07664564 -26.36865082 99.39221384 -27.02120209 101.70858765 C-27.93738296 104.95892795 -28.86352815 108.20627546 -29.79199219 111.453125 C-30.05813324 112.40619034 -30.32427429 113.35925568 -30.59848022 114.34120178 C-35.57457198 131.59839524 -46.33902851 145.52389944 -61.93823242 154.33691406 C-65.25020832 156.15373786 -68.4741636 157.58966544 -72 159 C-72 202.23 -72 245.46 -72 290 C-67.32195927 291.75426527 -62.99720677 293.37548268 -58.2421875 294.68359375 C-57.20320313 294.97169922 -56.16421875 295.25980469 -55.09375 295.55664062 C-54.0315625 295.84732422 -52.969375 296.13800781 -51.875 296.4375 C-49.76811434 297.01911546 -47.66134429 297.60114985 -45.5546875 298.18359375 C-44.0355928 298.59586794 -44.0355928 298.59586794 -42.48580933 299.01647091 C-40.24687336 299.64819182 -38.01814093 300.31798496 -35.80496216 301.03474522 C-27.22302072 303.74855825 -19.53013308 304.57058895 -10.5625 304.50170898 C-9.18101962 304.5055047 -7.79954308 304.51101494 -6.41807556 304.51808167 C-2.71390797 304.53188033 0.98978711 304.52098303 4.69392776 304.50437045 C8.58949281 304.49038892 12.48503406 304.49699394 16.38061523 304.50050354 C22.90990716 304.50319285 29.43901387 304.48983221 35.96826172 304.46655273 C43.50638067 304.4398616 51.04419202 304.43822888 58.58234215 304.4499411 C65.86100558 304.46072772 73.13955825 304.45453065 80.41821289 304.44038582 C83.50580478 304.43464264 86.59331517 304.43469528 89.6809082 304.43945122 C93.31235812 304.44423217 96.94347174 304.43407359 100.57485771 304.41249657 C102.53687307 304.40430646 104.49893254 304.41076617 106.46095276 304.41769409 C113.20546533 304.3608129 118.42532583 304.2605104 123.64453125 299.5 C127.85483174 294.09279135 128.82862423 289.72106323 128 283 C125.29820537 277.6964772 121.70503105 273.90167702 116 272 C113.09910776 271.8933212 110.2178416 271.83886325 107.31640625 271.82421875 C105.56704518 271.80102629 103.81769617 271.77690919 102.06835938 271.75195312 C99.31201024 271.71680125 96.55610688 271.68746893 93.79956055 271.67407227 C91.13796249 271.65860754 88.47766188 271.6184172 85.81640625 271.57421875 C84.99338516 271.57612717 84.17036407 271.57803558 83.32240295 271.58000183 C79.53232432 271.49891726 77.60299664 271.44232996 74.48022461 269.15161133 C72.45130003 266.20242573 72.41553818 264.50677094 73 261 C74.37744141 258.84399414 74.37744141 258.84399414 77 257 C80.48303456 256.40716949 83.93515711 256.46691129 87.4609375 256.49609375 C88.99592392 256.4819619 88.99592392 256.4819619 90.56192017 256.46754456 C93.83315006 256.43886104 97.10365442 256.43581721 100.375 256.4375 C103.63909879 256.43389034 106.90266796 256.42432043 110.16665649 256.39674377 C112.19667898 256.37998362 114.22687553 256.37705743 116.25692749 256.38975525 C122.34134988 256.34460545 126.95095847 255.78107351 131.64453125 251.5 C135.85483174 246.09279135 136.82862423 241.72106323 136 235 C133.29820537 229.6964772 129.70503105 225.90167702 124 224 C121.09910776 223.8933212 118.2178416 223.83886325 115.31640625 223.82421875 C113.56704518 223.80102629 111.81769617 223.77690919 110.06835938 223.75195312 C107.31201024 223.71680125 104.55610688 223.68746893 101.79956055 223.67407227 C99.13796249 223.65860754 96.47766188 223.6184172 93.81640625 223.57421875 C92.99338516 223.57612717 92.17036407 223.57803558 91.32240295 223.58000183 C87.53232432 223.49891726 85.60299664 223.44232996 82.48022461 221.15161133 C80.45130003 218.20242573 80.41553818 216.50677094 81 213 C82.37744141 210.84399414 82.37744141 210.84399414 85 209 C88.48303456 208.40716949 91.93515711 208.46691129 95.4609375 208.49609375 C96.99592392 208.4819619 96.99592392 208.4819619 98.56192017 208.46754456 C101.83315006 208.43886104 105.10365442 208.43581721 108.375 208.4375 C111.63909879 208.43389034 114.90266796 208.42432043 118.16665649 208.39674377 C120.19667898 208.37998362 122.22687553 208.37705743 124.25692749 208.38975525 C130.34134988 208.34460545 134.95095847 207.78107351 139.64453125 203.5 C143.85483174 198.09279135 144.82862423 193.72106323 144 187 C141.29820537 181.6964772 137.70503105 177.90167702 132 176 C129.09910776 175.8933212 126.2178416 175.83886325 123.31640625 175.82421875 C121.56704518 175.80102629 119.81769617 175.77690919 118.06835938 175.75195312 C115.31201024 175.71680125 112.55610688 175.68746893 109.79956055 175.67407227 C107.13796249 175.65860754 104.47766188 175.6184172 101.81640625 175.57421875 C100.99338516 175.57612717 100.17036407 175.57803558 99.32240295 175.58000183 C95.53232432 175.49891726 93.60299664 175.44232996 90.48022461 173.15161133 C88.45130003 170.20242573 88.41553818 168.50677094 89 165 C90.37744141 162.84399414 90.37744141 162.84399414 93 161 C96.48303456 160.40716949 99.93515711 160.46691129 103.4609375 160.49609375 C104.99592392 160.4819619 104.99592392 160.4819619 106.56192017 160.46754456 C109.83315006 160.43886104 113.10365442 160.43581721 116.375 160.4375 C119.63909879 160.43389034 122.90266796 160.42432043 126.16665649 160.39674377 C128.19667898 160.37998362 130.22687553 160.37705743 132.25692749 160.38975525 C138.34134988 160.34460545 142.95095847 159.78107351 147.64453125 155.5 C151.85483174 150.09279135 152.82862423 145.72106323 152 139 C149.29820537 133.6964772 145.70503105 129.90167702 140 128 C138.38489516 127.90709737 136.76622563 127.87103715 135.14845276 127.86869812 C134.14882507 127.86468994 133.14919739 127.86068176 132.11927795 127.85655212 C131.02361008 127.85708084 129.9279422 127.85760956 128.79907227 127.8581543 C127.06704056 127.85294266 127.06704056 127.85294266 125.30001831 127.84762573 C122.78893581 127.84026594 120.27784679 127.83492175 117.76675606 127.83133507 C113.79579074 127.82418161 109.82491082 127.80887876 105.85398865 127.78999329 C104.49424463 127.78365613 103.13450056 127.77733051 101.77475643 127.77101612 C101.09385539 127.76785031 100.41295435 127.7646845 99.71141994 127.76142275 C90.46737838 127.71934869 81.22337902 127.68636173 71.97924805 127.67407227 C65.74247587 127.66569573 59.50592573 127.64322238 53.26926464 127.6047166 C49.96924369 127.58494512 46.66962917 127.57476479 43.36953926 127.57755089 C39.68945821 127.57989374 36.01028146 127.55781382 32.33032227 127.5300293 C30.6898568 127.53993141 30.6898568 127.53993141 29.01625061 127.55003357 C27.51257935 127.53133209 27.51257935 127.53133209 25.97853088 127.51225281 C25.10856759 127.50986445 24.2386043 127.5074761 23.34227848 127.50501537 C20.16804692 126.82062376 18.96329968 125.54367411 17 123 C16.37076695 115.77492927 17.55159533 108.67094925 18.53125 101.51171875 C18.85033763 99.08920288 19.16934557 96.66667651 19.48828125 94.24414062 C19.99287479 90.46557355 20.50001821 86.68736489 21.00927734 82.90942383 C21.5023219 79.23602624 21.98589629 75.56146771 22.46875 71.88671875 C22.62186646 70.7738298 22.77498291 69.66094086 22.93273926 68.514328 C24.94886907 53.1042493 24.9133927 40.22632465 16 27 C11.71614702 22.03974918 6.18869782 19.03891207 0 17 C-0.99 17 -1.98 17 -3 17 Z " fill="#000000" transform="translate(168,192)"/>
<path d="M0 0 C1.20348083 -0.00006042 1.20348083 -0.00006042 2.43127441 -0.00012207 C4.12239443 0.00522359 5.8135146 0.02276578 7.50439453 0.05175781 C10.08573724 0.09362006 12.66446867 0.09282315 15.24609375 0.0859375 C16.89324721 0.09643096 18.54038728 0.10936992 20.1875 0.125 C21.3392572 0.12530212 21.3392572 0.12530212 22.51428223 0.12561035 C27.02599744 0.22473308 30.01087988 0.78722566 33.59375 3.59375 C34.97683781 6.35992563 34.70585196 8.60393 34.69140625 11.6953125 C34.68657227 13.51289062 34.68657227 13.51289062 34.68164062 15.3671875 C34.66907227 17.27371094 34.66907227 17.27371094 34.65625 19.21875 C34.65173828 20.4975 34.64722656 21.77625 34.64257812 23.09375 C34.63076203 26.26046292 34.61428815 29.42708356 34.59375 32.59375 C35.40005859 32.57803955 36.20636719 32.5623291 37.03710938 32.54614258 C40.7225837 32.48343024 44.40794535 32.4446438 48.09375 32.40625 C49.3621875 32.38111328 50.630625 32.35597656 51.9375 32.33007812 C62.21992905 32.24974665 69.1653538 33.42701422 76.828125 40.65234375 C81.83533147 46.15805529 83.3025724 51.44981306 82.96484375 58.859375 C81.86893841 66.93446699 78.09218039 71.64451653 72.10546875 76.96484375 C67.09453975 80.21454421 61.79529024 80.84253218 55.92749023 80.84912109 C54.00530922 80.85955948 54.00530922 80.85955948 52.04429626 80.87020874 C51.36944624 80.8695277 50.69459621 80.86884666 49.99929619 80.86814499 C47.86718652 80.86717145 45.7355696 80.88021664 43.60353088 80.89712524 C37.54667875 80.9431608 31.48988274 80.96800886 25.43286133 80.97460938 C21.71576558 80.97963457 17.99919263 81.00392552 14.28227425 81.03993607 C12.87218431 81.04970204 11.46202222 81.05208351 10.05190849 81.04676437 C8.07812652 81.03966393 6.10430375 81.05911149 4.13061523 81.07958984 C3.01033432 81.08243988 1.89005341 81.08528992 0.73582458 81.08822632 C-4.31399637 81.90068446 -7.41153446 84.49432756 -10.78125 88.21875 C-12.98532893 92.79645239 -13.2034139 96.59927411 -12.40625 101.59375 C-10.03584851 106.51689156 -7.11030926 108.91885148 -2.40625 111.59375 C0.86633355 112.13278044 0.86633355 112.13278044 4.328125 111.9921875 C5.61630127 111.99307373 6.90447754 111.99395996 8.23168945 111.99487305 C8.90382477 111.98950531 9.57596008 111.98413757 10.26846313 111.97860718 C31.45226468 111.87798856 48.54370691 116.457165 64.34765625 131.32421875 C76.0222139 143.12059787 82.78787965 159.00379516 82.96875 175.53125 C82.90330527 182.90215287 82.01628451 189.59095794 79.59375 196.59375 C79.10068359 198.06714844 79.10068359 198.06714844 78.59765625 199.5703125 C72.47767072 215.96086198 60.18282141 228.0475696 44.59375 235.59375 C41.61811327 236.67541105 38.61802657 237.65748438 35.59375 238.59375 C35.57916748 239.41576904 35.56458496 240.23778809 35.54956055 241.0847168 C35.47498667 244.81736323 35.37835488 248.54912459 35.28125 252.28125 C35.25869141 253.57482422 35.23613281 254.86839844 35.21289062 256.20117188 C35.17744141 257.44833984 35.14199219 258.69550781 35.10546875 259.98046875 C35.07928467 261.12733154 35.05310059 262.27419434 35.02612305 263.45581055 C34.5497288 266.91323306 33.71521571 268.83969269 31.59375 271.59375 C27.8240619 272.8503127 24.27657257 272.77550362 20.34765625 272.796875 C19.54013412 272.80257507 18.732612 272.80827515 17.90061951 272.81414795 C16.19344388 272.82358834 14.48625011 272.83012812 12.77905273 272.83398438 C10.16943625 272.8437009 7.56060393 272.8747369 4.95117188 272.90625 C3.29167134 272.91277933 1.63216518 272.91803007 -0.02734375 272.921875 C-1.19625404 272.9403952 -1.19625404 272.9403952 -2.38877869 272.95928955 C-5.62902164 272.94598287 -7.99008795 272.81914875 -10.86743164 271.26074219 C-13.82490861 268.05692611 -13.52410809 264.7546593 -13.50390625 260.61328125 C-13.50068359 259.44990234 -13.49746094 258.28652344 -13.49414062 257.08789062 C-13.48157227 255.26547852 -13.48157227 255.26547852 -13.46875 253.40625 C-13.46423828 252.17970703 -13.45972656 250.95316406 -13.45507812 249.68945312 C-13.44328065 246.65750332 -13.42681921 243.62565094 -13.40625 240.59375 C-14.27314453 240.61469727 -15.14003906 240.63564453 -16.03320312 240.65722656 C-19.2834879 240.72584562 -22.53340057 240.77576451 -25.78417969 240.81347656 C-27.18469473 240.8334563 -28.58512782 240.8606502 -29.98535156 240.89550781 C-39.51571913 241.12662942 -46.49253925 240.88349748 -53.8671875 234.4453125 C-59.81224793 227.52962995 -61.94325605 222.51993267 -61.70703125 213.33203125 C-60.85196185 205.54756831 -56.43815339 201.24769 -50.72265625 196.2578125 C-46.20536835 193.01267819 -42.38832272 192.34312472 -36.87524414 192.32250977 C-34.9228054 192.30722984 -34.9228054 192.30722984 -32.93092346 192.29164124 C-31.89495624 192.29022975 -31.89495624 192.29022975 -30.83806038 192.28878975 C-28.66411092 192.28511005 -26.49061115 192.26834066 -24.3167572 192.24803162 C-18.13874691 192.19277024 -11.96067154 192.16195185 -5.7824707 192.13745117 C-1.99642883 192.12153574 1.78929173 192.0912783 5.5751667 192.05268669 C7.01316468 192.04107472 8.4512202 192.03510667 9.88926506 192.03500557 C11.9040054 192.03481253 13.91871453 192.01498043 15.93334961 191.99438477 C17.07742783 191.98931412 18.22150604 191.98424347 19.4002533 191.97901917 C24.34515629 191.38245721 27.58173226 189.71517507 30.90625 186.03125 C34.17049151 181.31623449 34.22633331 177.23500661 33.59375 171.59375 C30.98054161 166.46066209 28.05437759 163.4139592 22.59375 161.59375 C20.64382452 161.48965125 18.69087356 161.43868551 16.73828125 161.41796875 C-6.21229027 161.00951702 -24.91439532 158.92514183 -42.40625 142.59375 C-54.92082242 129.45142395 -62.11834017 113.08310933 -61.80639648 94.84765625 C-61.05762026 76.4598814 -53.05688621 60.44680397 -39.65625 47.90625 C-31.7047785 41.31120599 -23.28968671 37.30992102 -13.40625 34.59375 C-13.43243408 33.74143799 -13.45861816 32.88912598 -13.4855957 32.01098633 C-13.57106492 28.83347873 -13.63361789 25.6565589 -13.6809082 22.47827148 C-13.70597617 21.10567898 -13.74004082 19.73321898 -13.78344727 18.36108398 C-13.84442531 16.38324304 -13.86986009 14.40440816 -13.89453125 12.42578125 C-13.92071533 11.23702393 -13.94689941 10.0482666 -13.97387695 8.82348633 C-12.58354725 0.9126598 -7.1072874 -0.15175835 0 0 Z " fill="#020201" transform="translate(325.40625,31.40625)"/>
<path d="M0 0 C0.83383209 -0.00570007 1.66766418 -0.01140015 2.52676392 -0.01727295 C4.2865474 -0.02666896 6.04634804 -0.03323529 7.80615234 -0.03710938 C10.43490385 -0.04672266 13.06284063 -0.0777591 15.69140625 -0.109375 C27.13369921 -0.18115253 37.89605972 0.90430641 49.1015625 3.203125 C50.04660645 3.39664551 50.99165039 3.59016602 51.96533203 3.78955078 C54.15312069 4.27334927 56.31329975 4.80763443 58.4765625 5.390625 C59.63236816 5.70036255 59.63236816 5.70036255 60.81152344 6.01635742 C105.58423757 18.56300373 143.11636858 49.06037374 166.1015625 89.203125 C176.04965598 107.11403741 186.08849637 129.62851406 186.27856445 150.37597656 C186.29139969 151.60205627 186.30423492 152.82813599 186.31745911 154.09136963 C186.32563589 155.42549223 186.33307781 156.7596195 186.33984375 158.09375 C186.34595704 159.11417011 186.34595704 159.11417011 186.35219383 160.15520477 C186.37302453 163.76687814 186.38733046 167.37851404 186.39672852 170.99023438 C186.40552832 173.94422415 186.42626133 176.89773426 186.45825195 179.8515625 C186.78870784 211.05169411 186.78870784 211.05169411 182.1015625 225.203125 C181.67774292 226.63470947 181.67774292 226.63470947 181.24536133 228.09521484 C180.51023407 230.51360735 179.7070374 232.88748664 178.8515625 235.265625 C178.55636719 236.09578125 178.26117188 236.9259375 177.95703125 237.78125 C174.97553186 245.92735503 171.26573891 253.60308328 167.1015625 261.203125 C166.51375 262.28207031 165.9259375 263.36101562 165.3203125 264.47265625 C150.0928589 291.43217069 127.6129928 313.4486819 101.1015625 329.203125 C100.52889648 329.5444043 99.95623047 329.88568359 99.36621094 330.23730469 C85.14456377 338.57248208 69.70683488 344.32917289 53.7265625 348.265625 C52.86530762 348.48178467 52.00405273 348.69794434 51.11669922 348.9206543 C46.14086021 350.06133914 42.16765335 350.40315932 37.1015625 349.203125 C34.6640625 347.578125 34.6640625 347.578125 33.1015625 345.203125 C32.5390625 341.765625 32.5390625 341.765625 33.1015625 338.203125 C36.75690279 333.56606474 40.23289723 332.2725681 45.8515625 331.265625 C60.94283426 328.10710078 74.5649257 322.51261635 88.1015625 315.203125 C89.16117188 314.63722656 90.22078125 314.07132812 91.3125 313.48828125 C126.3939084 293.92187893 150.63461551 260.21837359 162.7265625 222.390625 C164.05410396 217.68101364 165.13977198 212.91053595 166.2265625 208.140625 C166.39752441 207.39643311 166.56848633 206.65224121 166.74462891 205.88549805 C171.25981872 185.44109671 170.86456998 162.56239339 166.1015625 142.203125 C165.90820312 141.37441895 165.71484375 140.54571289 165.515625 139.69189453 C155.1452824 96.92223309 128.6759215 62.07939442 91.52734375 38.953125 C75.12037682 29.07124245 56.968851 22.38817779 38.1015625 19.203125 C37.14854248 19.02942383 36.19552246 18.85572266 35.21362305 18.67675781 C26.83664997 17.24344271 18.6556349 16.81693084 10.1640625 16.828125 C9.49236023 16.82833649 8.82065796 16.82854797 8.12860107 16.82876587 C-4.20728699 16.86723917 -15.91516594 18.22946188 -27.8984375 21.203125 C-28.64158203 21.37972656 -29.38472656 21.55632813 -30.15039062 21.73828125 C-54.05230373 27.54702701 -76.59148827 39.84781751 -94.8984375 56.203125 C-95.95310535 57.11330402 -97.00779396 58.02345899 -98.0625 58.93359375 C-127.81263047 85.04263735 -145.35924146 124.14404578 -148.8984375 163.203125 C-148.98131259 164.56214445 -149.05796844 165.92155519 -149.12890625 167.28125 C-149.18353027 168.29662842 -149.18353027 168.29662842 -149.23925781 169.33251953 C-149.33011126 171.2078632 -149.39448122 173.08443657 -149.45703125 174.9609375 C-149.93982625 178.50713085 -150.64095422 180.43441792 -152.8984375 183.203125 C-155.01953125 184.05078125 -155.01953125 184.05078125 -157.3359375 184.265625 C-158.09777344 184.35972656 -158.85960937 184.45382813 -159.64453125 184.55078125 C-161.8984375 184.203125 -161.8984375 184.203125 -164.15625 182.859375 C-166.90833197 178.66337558 -166.44697756 174.54795638 -166.3359375 169.640625 C-166.32127441 168.61211426 -166.30661133 167.58360352 -166.29150391 166.52392578 C-165.24139267 123.22857532 -145.61002081 83.02004995 -115.8984375 52.203125 C-115.1353125 51.37683594 -114.3721875 50.55054688 -113.5859375 49.69921875 C-85.31077415 19.9434303 -41.11442219 0.22482327 0 0 Z " fill="#010100" transform="translate(325.8984375,-0.203125)"/>
<path d="M0 0 C21.12 0 42.24 0 64 0 C64 52.8 64 105.6 64 160 C42.88 160 21.76 160 0 160 C0 107.2 0 54.4 0 0 Z " fill="#7BACE6" transform="translate(16,336)"/>
<path d="M0 0 C5.28 0 10.56 0 16 0 C16.04898438 1.83046875 16.09796875 3.6609375 16.1484375 5.546875 C16.22347053 7.94793196 16.29901813 10.34897288 16.375 12.75 C16.4059375 13.9565625 16.436875 15.163125 16.46875 16.40625 C16.50742187 17.56640625 16.54609375 18.7265625 16.5859375 19.921875 C16.6173584 20.99018555 16.6487793 22.05849609 16.68115234 23.15917969 C16.9953377 25.95846057 17.46877553 27.65588649 19 30 C22.17812927 31.58906464 25.62103872 31.17838637 29.11328125 31.2109375 C30.77019208 31.23901144 32.42709299 31.26767594 34.08398438 31.296875 C36.69750638 31.33809852 39.31084424 31.37498329 41.92456055 31.40136719 C44.44619081 31.42903286 46.96697759 31.47490896 49.48828125 31.5234375 C50.6541552 31.5283168 50.6541552 31.5283168 51.84358215 31.53329468 C56.38241379 31.63574575 59.3962027 32.16878543 63 35 C64.40457737 37.80915474 64.24895157 39.88810534 64 43 C62.22015595 46.1359157 61.47691793 46.84102736 58 48 C55.94691465 48.09739462 53.89083348 48.1354655 51.83544922 48.1418457 C50.56337616 48.14888016 49.2913031 48.15591461 47.98068237 48.16316223 C47.30071072 48.16497812 46.62073906 48.16679401 45.9201622 48.16866493 C43.78343761 48.17585273 41.64693971 48.19153892 39.51028442 48.21000671 C33.43527448 48.26234878 27.36038654 48.31037971 21.28515625 48.32592773 C17.56614283 48.33606829 13.84769784 48.36554853 10.12891006 48.40724754 C8.71852057 48.41948111 7.30805048 48.4246929 5.89760971 48.42244911 C-2.27499434 48.41265235 -8.87140723 48.78677924 -16 53 C-16.80953125 53.46921875 -17.6190625 53.9384375 -18.453125 54.421875 C-25.12992536 59.35690136 -28.72261573 65.02418259 -31 73 C-32.28954182 83.45207577 -30.05454469 92.94810708 -23.6875 101.4375 C-17.07313255 107.74422245 -9.95157966 111.20166452 -0.7109375 111.30859375 C0.47886719 111.33373047 1.66867187 111.35886719 2.89453125 111.38476562 C5.35802498 111.41958988 7.82157106 111.45090875 10.28515625 111.47851562 C26.12571027 111.82806499 39.11076829 115.56916236 50.7421875 126.6171875 C54.08922964 130.14953302 56.70525113 133.71168804 59 138 C59.61875 139.12535156 59.61875 139.12535156 60.25 140.2734375 C65.20222591 151.17521259 64.93347951 166.08589778 60.875 177.25 C59.97636419 179.19537081 59.021584 181.11628558 58 183 C57.33097656 184.23943359 57.33097656 184.23943359 56.6484375 185.50390625 C49.89164359 196.65827832 38.4961129 204.40480725 25.8671875 207.52734375 C24.53457564 207.80170502 23.20122821 208.07251653 21.8671875 208.33984375 C19.46344559 209.18970229 18.55285818 209.95934559 17 212 C16.49281944 214.9988613 16.49281944 214.9988613 16.48828125 218.41796875 C16.43510742 220.29838867 16.43510742 220.29838867 16.38085938 222.21679688 C16.35830078 223.52712891 16.33574219 224.83746094 16.3125 226.1875 C16.27932334 227.52282013 16.24483334 228.85810832 16.20898438 230.19335938 C16.12638491 233.46193825 16.06151996 236.73095644 16 240 C10.72 240 5.44 240 0 240 C-0.04898438 238.08574219 -0.09796875 236.17148437 -0.1484375 234.19921875 C-0.22346136 231.69529756 -0.29900935 229.19139204 -0.375 226.6875 C-0.4059375 225.42486328 -0.436875 224.16222656 -0.46875 222.86132812 C-0.52675781 221.04858398 -0.52675781 221.04858398 -0.5859375 219.19921875 C-0.6173584 218.08377686 -0.6487793 216.96833496 -0.68115234 215.8190918 C-0.805249 212.79631214 -0.805249 212.79631214 -3 210 C-6.76564217 208.74478594 -10.28884717 208.86455241 -14.2109375 208.859375 C-15.86459713 208.84104904 -17.51824335 208.82147892 -19.171875 208.80078125 C-21.77464473 208.77180702 -24.37655064 208.74999971 -26.97949219 208.74951172 C-29.4949171 208.74617308 -32.00835779 208.7116071 -34.5234375 208.671875 C-35.29754974 208.6789447 -36.07166199 208.6860144 -36.86923218 208.69329834 C-40.89846255 208.60278129 -42.78722735 208.16750852 -45.99072266 205.64550781 C-48 203 -48 203 -48.625 200 C-47.7823494 195.95527714 -46.16513204 194.6016738 -43 192 C-40.01182556 191.39440918 -40.01182556 191.39440918 -36.65600586 191.41992188 C-35.39376694 191.41641724 -34.13152802 191.4129126 -32.83103943 191.40930176 C-32.16092772 191.41909561 -31.490816 191.42888947 -30.80039787 191.4389801 C-28.68317866 191.469202 -26.56797015 191.46798193 -24.45057678 191.4588623 C-19.18814972 191.44262409 -13.9263467 191.47969882 -8.6640625 191.51544189 C-4.22099456 191.54360961 0.22121139 191.5508948 4.66433525 191.53187561 C6.72973759 191.53126635 8.79327314 191.5602373 10.8584137 191.59069824 C21.06361402 191.56285005 28.68812228 189.2461475 37.375 183.9375 C44.4765954 175.99047657 47.38171183 166.80387279 47.27734375 156.35546875 C46.87979058 151.54563537 45.47552258 148.09473232 43 144 C42.41605469 142.95199219 42.41605469 142.95199219 41.8203125 141.8828125 C37.51872779 135.13772406 30.4037752 131.31788176 22.70556641 129.44042969 C19.70462261 128.95191655 16.84886036 128.85602405 13.80859375 128.82421875 C12.61556641 128.80037109 11.42253906 128.77652344 10.19335938 128.75195312 C7.71696433 128.70945649 5.24035278 128.67795337 2.76367188 128.65820312 C-11.22704641 128.33562892 -23.13475174 124.27810687 -33.51171875 114.67578125 C-44.90565601 102.67918945 -47.72472293 89.99337925 -47.37890625 73.93359375 C-47.04140357 67.56459148 -45.19952821 62.49336987 -42 57 C-41.33097656 55.79150391 -41.33097656 55.79150391 -40.6484375 54.55859375 C-33.50148811 42.7601382 -22.1804529 35.64637674 -8.9375 32.375 C-8.05964844 32.19710937 -7.18179688 32.01921875 -6.27734375 31.8359375 C-3.32984742 30.75400917 -2.59715471 29.69091947 -1 27 C-0.49746855 24.0064314 -0.49746855 24.0064314 -0.48828125 20.703125 C-0.45283203 19.49785156 -0.41738281 18.29257813 -0.38085938 17.05078125 C-0.35830078 15.79652344 -0.33574219 14.54226562 -0.3125 13.25 C-0.27833984 11.98027344 -0.24417969 10.71054687 -0.20898438 9.40234375 C-0.12651586 6.26854001 -0.06158146 3.13428376 0 0 Z " fill="#D5966B" transform="translate(328,48)"/>
<path d="M0 0 C0.66 -0.0103125 1.32 -0.020625 2 -0.03125 C4.98174986 0.76077731 6.16411059 2.04673186 8 4.5 C8.390625 7.515625 8.390625 7.515625 8.25 10.75 C8.21390625 11.82765625 8.1778125 12.9053125 8.140625 14.015625 C8.09421875 14.83546875 8.0478125 15.6553125 8 16.5 C8.81984375 16.45359375 9.6396875 16.4071875 10.484375 16.359375 C11.56203125 16.32328125 12.6396875 16.2871875 13.75 16.25 C15.35101563 16.18039062 15.35101563 16.18039062 16.984375 16.109375 C20 16.5 20 16.5 22.359375 18.265625 C24.09023982 20.62289805 24.54492653 21.62470206 24.5 24.5 C24.5103125 25.16 24.520625 25.82 24.53125 26.5 C23.73922269 29.48174986 22.45326814 30.66411059 20 32.5 C16.984375 32.890625 16.984375 32.890625 13.75 32.75 C12.67234375 32.71390625 11.5946875 32.6778125 10.484375 32.640625 C9.66453125 32.59421875 8.8446875 32.5478125 8 32.5 C8.04640625 33.31984375 8.0928125 34.1396875 8.140625 34.984375 C8.19476563 36.60085938 8.19476563 36.60085938 8.25 38.25 C8.29640625 39.31734375 8.3428125 40.3846875 8.390625 41.484375 C8 44.5 8 44.5 6.234375 46.859375 C3.87710195 48.59023982 2.87529794 49.04492653 0 49 C-0.99 49.01546875 -0.99 49.01546875 -2 49.03125 C-4.98174986 48.23922269 -6.16411059 46.95326814 -8 44.5 C-8.390625 41.484375 -8.390625 41.484375 -8.25 38.25 C-8.21390625 37.17234375 -8.1778125 36.0946875 -8.140625 34.984375 C-8.09421875 34.16453125 -8.0478125 33.3446875 -8 32.5 C-8.81984375 32.54640625 -9.6396875 32.5928125 -10.484375 32.640625 C-12.10085938 32.69476563 -12.10085938 32.69476563 -13.75 32.75 C-14.81734375 32.79640625 -15.8846875 32.8428125 -16.984375 32.890625 C-20 32.5 -20 32.5 -22.359375 30.734375 C-24.09023982 28.37710195 -24.54492653 27.37529794 -24.5 24.5 C-24.51546875 23.51 -24.51546875 23.51 -24.53125 22.5 C-23.73922269 19.51825014 -22.45326814 18.33588941 -20 16.5 C-16.984375 16.109375 -16.984375 16.109375 -13.75 16.25 C-12.67234375 16.28609375 -11.5946875 16.3221875 -10.484375 16.359375 C-9.25460937 16.42898438 -9.25460937 16.42898438 -8 16.5 C-8.04640625 15.68015625 -8.0928125 14.8603125 -8.140625 14.015625 C-8.17671875 12.93796875 -8.2128125 11.8603125 -8.25 10.75 C-8.29640625 9.68265625 -8.3428125 8.6153125 -8.390625 7.515625 C-8 4.5 -8 4.5 -6.234375 2.140625 C-3.87710195 0.40976018 -2.87529794 -0.04492653 0 0 Z " fill="#000000" transform="translate(416,383.5)"/>
<path d="M0 0 C0.66 -0.0103125 1.32 -0.020625 2 -0.03125 C4.98174986 0.76077731 6.16411059 2.04673186 8 4.5 C8.390625 7.515625 8.390625 7.515625 8.25 10.75 C8.21390625 11.82765625 8.1778125 12.9053125 8.140625 14.015625 C8.09421875 14.83546875 8.0478125 15.6553125 8 16.5 C8.81984375 16.45359375 9.6396875 16.4071875 10.484375 16.359375 C11.56203125 16.32328125 12.6396875 16.2871875 13.75 16.25 C15.35101563 16.18039063 15.35101563 16.18039063 16.984375 16.109375 C20 16.5 20 16.5 22.359375 18.265625 C24.09023982 20.62289805 24.54492653 21.62470206 24.5 24.5 C24.5103125 25.16 24.520625 25.82 24.53125 26.5 C23.73922269 29.48174986 22.45326814 30.66411059 20 32.5 C16.984375 32.890625 16.984375 32.890625 13.75 32.75 C12.67234375 32.71390625 11.5946875 32.6778125 10.484375 32.640625 C9.66453125 32.59421875 8.8446875 32.5478125 8 32.5 C8.04640625 33.31984375 8.0928125 34.1396875 8.140625 34.984375 C8.19476563 36.60085937 8.19476563 36.60085937 8.25 38.25 C8.29640625 39.31734375 8.3428125 40.3846875 8.390625 41.484375 C8 44.5 8 44.5 6.234375 46.859375 C3.87710195 48.59023982 2.87529794 49.04492653 0 49 C-0.99 49.01546875 -0.99 49.01546875 -2 49.03125 C-4.98174986 48.23922269 -6.16411059 46.95326814 -8 44.5 C-8.390625 41.484375 -8.390625 41.484375 -8.25 38.25 C-8.21390625 37.17234375 -8.1778125 36.0946875 -8.140625 34.984375 C-8.09421875 34.16453125 -8.0478125 33.3446875 -8 32.5 C-8.81984375 32.54640625 -9.6396875 32.5928125 -10.484375 32.640625 C-12.10085937 32.69476563 -12.10085937 32.69476563 -13.75 32.75 C-14.81734375 32.79640625 -15.8846875 32.8428125 -16.984375 32.890625 C-20 32.5 -20 32.5 -22.359375 30.734375 C-24.09023982 28.37710195 -24.54492653 27.37529794 -24.5 24.5 C-24.51546875 23.51 -24.51546875 23.51 -24.53125 22.5 C-23.73922269 19.51825014 -22.45326814 18.33588941 -20 16.5 C-16.984375 16.109375 -16.984375 16.109375 -13.75 16.25 C-12.67234375 16.28609375 -11.5946875 16.3221875 -10.484375 16.359375 C-9.25460938 16.42898437 -9.25460938 16.42898437 -8 16.5 C-8.04640625 15.68015625 -8.0928125 14.8603125 -8.140625 14.015625 C-8.17671875 12.93796875 -8.2128125 11.8603125 -8.25 10.75 C-8.29640625 9.68265625 -8.3428125 8.6153125 -8.390625 7.515625 C-8 4.5 -8 4.5 -6.234375 2.140625 C-3.87710195 0.40976018 -2.87529794 -0.04492653 0 0 Z " fill="#000000" transform="translate(120,87.5)"/>
</svg>
