<?xml version="1.0" encoding="UTF-8"?>
<svg version="1.1" xmlns="http://www.w3.org/2000/svg" width="512" height="512">
<path d="M0 0 C1.08566757 -0.00744736 1.08566757 -0.00744736 2.19326782 -0.01504517 C4.59329167 -0.02967762 6.99324938 -0.03647106 9.39331055 -0.04199219 C11.05999249 -0.04774338 12.72667442 -0.05350112 14.39335632 -0.05926514 C17.8913097 -0.06977864 21.38924007 -0.07561881 24.88720703 -0.07910156 C29.36631788 -0.08458271 33.84512419 -0.10860099 38.3241396 -0.13707352 C41.76855858 -0.15571239 45.21290446 -0.16090619 48.65736961 -0.16243744 C50.30836843 -0.1654624 51.959366 -0.1734857 53.61031532 -0.18662262 C55.92273617 -0.20370727 58.23441637 -0.20179713 60.546875 -0.1953125 C61.86210648 -0.19895813 63.17733795 -0.20260376 64.53242493 -0.20635986 C68.32233259 0.19909021 70.08478925 0.67830462 72.9675293 3.16113281 C76.21862957 9.40785529 77.34121712 16.00520863 78.66674805 22.87597656 C78.9066597 24.0868544 79.14657135 25.29773224 79.39375305 26.54530334 C80.15477515 30.39502361 80.9050433 34.24674896 81.6550293 38.09863281 C82.16972543 40.71678524 82.68686361 43.33444789 83.20385742 45.95214844 C84.46654512 52.35356647 85.72042133 58.7566624 86.9675293 65.16113281 C88.23629798 65.16259803 88.23629798 65.16259803 89.53069836 65.16409284 C139.64221872 65.2223419 189.75369565 65.29612126 239.86516238 65.39011909 C245.87967184 65.4013875 251.89418155 65.41252592 257.90869141 65.42358398 C259.70479193 65.42688951 259.70479193 65.42688951 261.53717732 65.43026181 C280.93525423 65.4656517 300.33333109 65.49050629 319.73142833 65.51147983 C339.62987637 65.53322841 359.52828245 65.56626986 379.42669481 65.60983437 C391.7089335 65.63636732 403.99111988 65.6540506 416.27338582 65.66047885 C424.69132623 65.6657277 433.10920079 65.68192775 441.52710593 65.70679847 C446.38661968 65.72083068 451.24601549 65.72997784 456.10555077 65.72614098 C460.55381816 65.72273527 465.00183347 65.73306952 469.45004921 65.75436833 C471.05984491 65.75964445 472.66966672 65.75986251 474.27946223 65.75452844 C476.46781824 65.74801554 478.65534212 65.75992293 480.84362888 65.77637196 C482.66685605 65.77921986 482.66685605 65.77921986 484.52691609 65.78212529 C489.27969144 66.30567662 493.32464347 67.61944367 496.8859663 70.96140003 C501.24571852 79.82846549 497.30801753 94.44364528 496.08740234 104.02954102 C495.8846692 105.67206766 495.68266421 107.31468432 495.48132324 108.9573822 C494.93750785 113.37539717 494.38295659 117.79199981 493.82581306 122.20835137 C493.36012269 125.90840064 492.8999777 129.60913092 492.43984824 133.30987519 C491.35425742 142.04096535 490.26011064 150.77095269 489.16015625 159.50024414 C488.02808343 168.48537896 486.90896143 177.47205804 485.79641885 186.45963031 C484.83756194 194.20266967 483.87148868 201.94478434 482.89948684 209.68618459 C482.3203902 214.2985056 481.74379709 218.91110153 481.17383385 223.52456093 C480.63798922 227.8587286 480.09306761 232.19166229 479.54128265 236.52382851 C479.34098953 238.10802657 479.14379559 239.69262023 478.95002937 241.27762985 C476.44483561 261.72974059 476.44483561 261.72974059 472.29645252 265.80123806 C469.24400206 267.5836117 466.59110999 268.01977311 463.0965271 268.59310913 C462.36556615 268.71366995 461.63460521 268.83423077 460.88149393 268.95844495 C448.98550607 270.86637158 437.02691719 272.38268496 425.08369303 273.96093321 C421.33439672 274.45721877 417.58566837 274.95776144 413.83686829 275.45777893 C407.36043514 276.32105802 400.88366741 277.1817874 394.4066658 278.04079056 C385.03897049 279.28322448 375.67189138 280.53025532 366.30496602 281.77847926 C351.09875442 283.80476921 335.89217516 285.82828504 320.68530273 287.84960938 C319.77758446 287.97026577 318.86986618 288.09092216 317.93464129 288.2152348 C314.25570836 288.70424194 310.57677374 289.19323632 306.89783714 289.68221585 C296.74004046 291.03232562 286.58228382 292.38273646 276.42456055 293.73339844 C275.51371541 293.85451168 274.60287028 293.97562493 273.66442378 294.10040827 C258.4931797 296.11777685 243.32224489 298.13746265 228.15151632 300.15870416 C218.80198216 301.40424666 209.45216363 302.64761512 200.10196899 303.8881899 C193.70845304 304.73659985 187.31521097 305.587052 180.92218317 306.43913247 C177.23185719 306.93090979 173.54140557 307.42169183 169.85060692 307.9099102 C165.85624825 308.43829964 161.86250401 308.97119536 157.86880493 309.50454712 C156.69461836 309.6591168 155.5204318 309.81368648 154.31066382 309.97294009 C152.71332626 310.18738034 152.71332626 310.18738034 151.08371925 310.40615273 C150.16148052 310.52869506 149.23924178 310.65123739 148.28905642 310.77749312 C145.81957929 311.12304881 145.81957929 311.12304881 142.9675293 312.16113281 C152.4166364 324.57719505 165.52454021 330.54388845 180.7096405 332.75825882 C190.53765088 333.84137192 200.5439133 333.43409963 210.41479492 333.41650391 C212.98984894 333.419257 215.56490211 333.42293883 218.13995361 333.42747498 C223.66348639 333.43606437 229.18698715 333.43792684 234.71052551 333.4355278 C242.70186611 333.43241733 250.69313653 333.44411235 258.68445939 333.4600776 C271.66032016 333.48597402 284.63618098 333.50602948 297.61206055 333.51953125 C298.77437754 333.5207468 298.77437754 333.5207468 299.96017569 333.52198692 C310.97695102 333.53322861 321.99372127 333.53849511 333.01050156 333.54137404 C334.17645685 333.54168002 334.17645685 333.54168002 335.3659668 333.54199219 C336.53049243 333.54229209 336.53049243 333.54229209 337.71854383 333.54259805 C350.65878995 333.54632923 363.59895927 333.56539546 376.53916693 333.59708655 C384.51302079 333.61599893 392.48667774 333.62196418 400.46054786 333.61126937 C406.56132445 333.60421168 412.66187528 333.6177052 418.76262665 333.63888741 C421.26644639 333.6442249 423.77029141 333.64268622 426.27410126 333.63385201 C429.6854687 333.62278358 433.09589282 333.63610165 436.50720215 333.65560913 C437.50319884 333.64648447 438.49919553 333.63735982 439.52537394 333.62795866 C443.85139464 333.67627201 446.28843162 333.7425463 450.03536224 336.05210304 C452.69073719 338.95054022 453.89638779 341.10221404 454.03393555 345.08300781 C453.78600441 349.07995823 453.1949718 350.87221936 450.6550293 354.09863281 C446.91011445 356.97263723 443.99880527 357.28532293 439.36301708 357.29256058 C438.43772015 357.29640172 437.51242321 357.30024287 436.55908698 357.30420041 C435.03942335 357.30290069 435.03942335 357.30290069 433.48905945 357.30157471 C432.41000031 357.30454583 431.33094117 357.30751695 430.21918327 357.31057811 C426.59061309 357.31927397 422.96207587 357.32077414 419.33349609 357.32226562 C416.73658681 357.32689335 414.1396782 357.33191795 411.54277039 357.33731079 C404.47611148 357.35089144 397.40945825 357.35691929 390.34278846 357.36132145 C385.92575253 357.36408607 381.50871879 357.368324 377.09168434 357.37282562 C364.8510931 357.38502124 352.61050361 357.39531783 340.36990643 357.39870071 C339.19470041 357.39903006 339.19470041 357.39903006 337.99575286 357.39936607 C336.81778505 357.39969348 336.81778505 357.39969348 335.6160199 357.40002751 C334.02477499 357.40047097 332.43353007 357.40091754 330.84228516 357.40136719 C329.65832486 357.40169933 329.65832486 357.40169933 328.45044617 357.40203819 C315.6829512 357.40597963 302.91551354 357.42341233 290.14804067 357.44672671 C277.02500533 357.47049575 263.90199865 357.4829052 250.77894145 357.48406863 C243.41704077 357.48498263 236.05521462 357.49066468 228.69333458 357.50888824 C221.76009869 357.52599046 214.82700584 357.52750046 207.89375496 357.51874924 C205.35704546 357.51798137 202.82032823 357.52228834 200.283638 357.53220749 C172.41980822 357.63471877 149.35932479 353.50647844 128.6550293 333.41113281 C115.56872484 320.14224851 109.90741638 303.84917429 106.36010742 285.92431641 C106.0240163 284.27382891 105.6869045 282.62354899 105.34888458 280.97345543 C104.40931219 276.36865917 103.48612678 271.76070746 102.56599808 267.15199184 C101.73935276 263.02081628 100.90403762 258.89140893 100.06909037 254.7619046 C97.17820736 240.46080767 94.31898833 226.15343567 91.46378136 211.84518099 C90.27621552 205.89593383 89.08680875 199.947055 87.89743954 193.99816816 C85.54884584 182.25087142 83.20195333 170.50323554 80.85620117 158.75537109 C78.58368974 147.37432656 76.31033323 135.99345134 74.03588867 124.61279297 C73.89461467 123.90589752 73.75334067 123.19900208 73.60778564 122.47068556 C72.8987287 118.92278989 72.18965565 115.37489743 71.48057461 111.82700658 C65.64039865 82.60554673 59.80304253 53.38352419 53.9675293 24.16113281 C52.87878006 24.15233345 52.87878006 24.15233345 51.76803589 24.14335632 C44.91198087 24.08533937 38.05620216 24.01321121 31.20046806 23.9254179 C27.6762307 23.88077991 24.15210718 23.84150985 20.62768555 23.81469727 C16.57140218 23.78359933 12.5157339 23.72881319 8.4597168 23.67285156 C7.20013153 23.66646164 5.94054626 23.66007172 4.64279175 23.65348816 C3.46202057 23.633694 2.28124939 23.61389984 1.06469727 23.59350586 C0.02989227 23.5824028 -1.00491272 23.57129974 -2.07107544 23.55986023 C-6.41222406 22.97536042 -9.80163645 21.41543636 -12.8762207 18.28222656 C-14.98532035 14.41316876 -14.79152425 10.42563367 -14.0324707 6.16113281 C-9.69235488 0.56466767 -6.83476007 0.03554705 0 0 Z " fill="#FEC107" transform="translate(14.032470703125,10.8388671875)"/>
<path d="M0 0 C1.08566757 -0.00744736 1.08566757 -0.00744736 2.19326782 -0.01504517 C4.59329167 -0.02967762 6.99324938 -0.03647106 9.39331055 -0.04199219 C11.05999249 -0.04774338 12.72667442 -0.05350112 14.39335632 -0.05926514 C17.8913097 -0.06977864 21.38924007 -0.07561881 24.88720703 -0.07910156 C29.36631788 -0.08458271 33.84512419 -0.10860099 38.3241396 -0.13707352 C41.76855858 -0.15571239 45.21290446 -0.16090619 48.65736961 -0.16243744 C50.30836843 -0.1654624 51.959366 -0.1734857 53.61031532 -0.18662262 C55.92273617 -0.20370727 58.23441637 -0.20179713 60.546875 -0.1953125 C61.86210648 -0.19895813 63.17733795 -0.20260376 64.53242493 -0.20635986 C68.20727068 0.18678071 70.0681325 0.91041672 72.9675293 3.16113281 C76.31162054 9.09392664 77.28066127 15.68388682 78.5612793 22.31347656 C78.79407593 23.48640762 79.02687256 24.65933868 79.26672363 25.86781311 C80.00756966 29.61003255 80.73761564 33.35426743 81.4675293 37.09863281 C81.95772323 39.58119132 82.44860211 42.06361469 82.94018555 44.54589844 C84.76412884 53.78184734 86.57272451 63.01949296 88.29066467 72.27581787 C90.14920926 82.22605933 92.1254765 92.15259067 94.10009766 102.08032227 C94.50788876 104.13376371 94.91562753 106.18721555 95.32331848 108.24067688 C99.01824155 126.84460301 102.72521514 145.44614035 106.43503475 164.04710102 C109.17211284 177.7714787 111.90348704 191.49696582 114.6274938 205.22394401 C116.55022203 214.91049179 118.47958707 224.59570363 120.41380221 234.27996415 C121.56626457 240.05111965 122.71578653 245.82282417 123.8580761 251.59600258 C124.93153101 257.02064303 126.01321495 262.44357855 127.10111809 267.86533928 C127.49755714 269.84841022 127.8910588 271.83207113 128.28131485 273.8163681 C130.76104907 286.41370149 133.33058971 298.02055566 139.9675293 309.16113281 C139.9675293 309.82113281 139.9675293 310.48113281 139.9675293 311.16113281 C140.9575293 311.49113281 141.9475293 311.82113281 142.9675293 312.16113281 C144.4050293 313.76269531 144.4050293 313.76269531 145.9675293 315.78613281 C155.73413264 327.23521825 170.3622231 331.98321121 184.9675293 333.16113281 C193.44262538 333.53256492 201.93371934 333.43162218 210.41479492 333.41650391 C212.98984894 333.419257 215.56490211 333.42293883 218.13995361 333.42747498 C223.66348639 333.43606437 229.18698715 333.43792684 234.71052551 333.4355278 C242.70186611 333.43241733 250.69313653 333.44411235 258.68445939 333.4600776 C271.66032016 333.48597402 284.63618098 333.50602948 297.61206055 333.51953125 C298.77437754 333.5207468 298.77437754 333.5207468 299.96017569 333.52198692 C310.97695102 333.53322861 321.99372127 333.53849511 333.01050156 333.54137404 C334.17645685 333.54168002 334.17645685 333.54168002 335.3659668 333.54199219 C336.53049243 333.54229209 336.53049243 333.54229209 337.71854383 333.54259805 C350.65878995 333.54632923 363.59895927 333.56539546 376.53916693 333.59708655 C384.51302079 333.61599893 392.48667774 333.62196418 400.46054786 333.61126937 C406.56132445 333.60421168 412.66187528 333.6177052 418.76262665 333.63888741 C421.26644639 333.6442249 423.77029141 333.64268622 426.27410126 333.63385201 C429.6854687 333.62278358 433.09589282 333.63610165 436.50720215 333.65560913 C437.50319884 333.64648447 438.49919553 333.63735982 439.52537394 333.62795866 C443.85139464 333.67627201 446.28843162 333.7425463 450.03536224 336.05210304 C452.69073719 338.95054022 453.89638779 341.10221404 454.03393555 345.08300781 C453.78600441 349.07995823 453.1949718 350.87221936 450.6550293 354.09863281 C446.91011445 356.97263723 443.99880527 357.28532293 439.36301708 357.29256058 C438.43772015 357.29640172 437.51242321 357.30024287 436.55908698 357.30420041 C435.03942335 357.30290069 435.03942335 357.30290069 433.48905945 357.30157471 C432.41000031 357.30454583 431.33094117 357.30751695 430.21918327 357.31057811 C426.59061309 357.31927397 422.96207587 357.32077414 419.33349609 357.32226562 C416.73658681 357.32689335 414.1396782 357.33191795 411.54277039 357.33731079 C404.47611148 357.35089144 397.40945825 357.35691929 390.34278846 357.36132145 C385.92575253 357.36408607 381.50871879 357.368324 377.09168434 357.37282562 C364.8510931 357.38502124 352.61050361 357.39531783 340.36990643 357.39870071 C339.19470041 357.39903006 339.19470041 357.39903006 337.99575286 357.39936607 C336.81778505 357.39969348 336.81778505 357.39969348 335.6160199 357.40002751 C334.02477499 357.40047097 332.43353007 357.40091754 330.84228516 357.40136719 C329.65832486 357.40169933 329.65832486 357.40169933 328.45044617 357.40203819 C315.6829512 357.40597963 302.91551354 357.42341233 290.14804067 357.44672671 C277.02500533 357.47049575 263.90199865 357.4829052 250.77894145 357.48406863 C243.41704077 357.48498263 236.05521462 357.49066468 228.69333458 357.50888824 C221.76009869 357.52599046 214.82700584 357.52750046 207.89375496 357.51874924 C205.35704546 357.51798137 202.82032823 357.52228834 200.283638 357.53220749 C172.41980822 357.63471877 149.35932479 353.50647844 128.6550293 333.41113281 C115.56872484 320.14224851 109.90741638 303.84917429 106.36010742 285.92431641 C106.0240163 284.27382891 105.6869045 282.62354899 105.34888458 280.97345543 C104.40931219 276.36865917 103.48612678 271.76070746 102.56599808 267.15199184 C101.73935276 263.02081628 100.90403762 258.89140893 100.06909037 254.7619046 C97.17820736 240.46080767 94.31898833 226.15343567 91.46378136 211.84518099 C90.27621552 205.89593383 89.08680875 199.947055 87.89743954 193.99816816 C85.54884584 182.25087142 83.20195333 170.50323554 80.85620117 158.75537109 C78.58368974 147.37432656 76.31033323 135.99345134 74.03588867 124.61279297 C73.89461467 123.90589752 73.75334067 123.19900208 73.60778564 122.47068556 C72.8987287 118.92278989 72.18965565 115.37489743 71.48057461 111.82700658 C65.64039865 82.60554673 59.80304253 53.38352419 53.9675293 24.16113281 C52.87878006 24.15233345 52.87878006 24.15233345 51.76803589 24.14335632 C44.91198087 24.08533937 38.05620216 24.01321121 31.20046806 23.9254179 C27.6762307 23.88077991 24.15210718 23.84150985 20.62768555 23.81469727 C16.57140218 23.78359933 12.5157339 23.72881319 8.4597168 23.67285156 C7.20013153 23.66646164 5.94054626 23.66007172 4.64279175 23.65348816 C3.46202057 23.633694 2.28124939 23.61389984 1.06469727 23.59350586 C0.02989227 23.5824028 -1.00491272 23.57129974 -2.07107544 23.55986023 C-6.41222406 22.97536042 -9.80163645 21.41543636 -12.8762207 18.28222656 C-14.98532035 14.41316876 -14.79152425 10.42563367 -14.0324707 6.16113281 C-9.69235488 0.56466767 -6.83476007 0.03554705 0 0 Z " fill="#455A63" transform="translate(14.032470703125,10.8388671875)"/>
<path d="M0 0 C10.99741831 9.23932762 18.87227125 22.74185124 20.359375 37.1171875 C21.43408098 53.23777721 18.19175918 68.34737665 7.56835938 80.87084961 C-1.42954247 90.9148362 -13.93240234 99.12264017 -27.72436523 100.29418945 C-38.65893957 100.5953612 -48.41692983 100.53449058 -58.640625 96.1171875 C-59.56875 95.72789062 -60.496875 95.33859375 -61.453125 94.9375 C-75.41606696 88.23370116 -84.32501518 76.35999565 -89.640625 62.1171875 C-91.54704715 56.35285884 -91.99596365 50.85166895 -91.953125 44.8046875 C-91.94748535 43.96800537 -91.9418457 43.13132324 -91.93603516 42.26928711 C-91.80991597 35.82659455 -91.07254561 30.13201404 -88.640625 24.1171875 C-88.26164062 23.158125 -87.88265625 22.1990625 -87.4921875 21.2109375 C-81.88894936 8.64413751 -71.97804222 -2.025595 -59.1796875 -7.3125 C-38.48115863 -14.99308618 -18.1132759 -12.91508725 0 0 Z " fill="#455A64" transform="translate(447.640625,400.8828125)"/>
<path d="M0 0 C11.73039687 9.37929224 19.16357701 21.1139929 22.42382812 35.82666016 C23.39176695 47.22163649 23.00385511 58.22634614 18.42382812 68.82666016 C18.03453125 69.75478516 17.64523438 70.68291016 17.24414062 71.63916016 C10.53962207 85.60360117 -1.33329809 94.50879183 -15.57617188 99.82666016 C-29.69120803 104.51076635 -46.01426797 102.92925397 -59.23632812 96.54150391 C-74.61451278 88.00863174 -83.77920122 75.55659087 -88.57617188 58.82666016 C-92.01014308 42.09148404 -88.04212117 27.25404875 -79.57617188 12.82666016 C-71.59337987 1.1211238 -58.63462699 -5.87870838 -45.20117188 -9.48583984 C-29.72909285 -12.39034565 -12.74728326 -9.48938094 0 0 Z " fill="#455A64" transform="translate(222.576171875,399.17333984375)"/>
<path d="M0 0 C3.73483503 1.69765229 5.79655897 3.57787323 8 7 C8.71272564 9.51013374 8.71272564 9.51013374 9.19596863 12.38699341 C9.4798217 14.02694527 9.4798217 14.02694527 9.76940918 15.70002747 C10.06180481 17.49231026 10.06180481 17.49231026 10.36010742 19.32080078 C10.57512405 20.5830397 10.79014069 21.84527863 11.01167297 23.14576721 C11.60047353 26.60513282 12.17502925 30.06672613 12.74662185 33.5289712 C13.34803408 37.15966762 13.96101988 40.78841156 14.57234192 44.41744995 C15.59805476 50.51755745 16.61464606 56.61913191 17.62573242 62.72167969 C18.7916524 69.75813007 19.97128892 76.79217271 21.15854377 83.82505238 C22.30295339 90.6058094 23.43804966 97.38809346 24.56881142 104.17113876 C25.04875396 107.04935533 25.53179571 109.92702557 26.01738548 112.80429459 C26.69717568 116.83559077 27.36327502 120.86903691 28.02807617 124.90283203 C28.22907928 126.08554184 28.4300824 127.26825165 28.63717651 128.48680115 C31.3866889 145.37270234 31.3866889 145.37270234 28.99498272 149.90416145 C26.87942184 152.58742151 25.25387458 153.91537514 22 155 C17.94242848 155.37570107 15.71970875 155.43182525 12.1875 153.3125 C8.63080966 149.55257021 7.7616207 145.44483174 6.92428589 140.43460083 C6.73642517 139.32717529 6.54856445 138.21974976 6.35501099 137.07876587 C6.15648529 135.87344208 5.95795959 134.66811829 5.75341797 133.42626953 C5.53854736 132.14931213 5.32367676 130.87235474 5.10229492 129.55670166 C4.51447558 126.06164392 3.93382334 122.56543083 3.35477209 119.06891108 C2.74692712 115.4040862 2.13353134 111.74018975 1.52102661 108.07614136 C0.49316764 101.92171571 -0.52990757 95.76650867 -1.55029297 89.61083984 C-2.72839848 82.50414043 -3.91466418 75.39883908 -5.10519516 68.29421151 C-6.12852638 62.18604217 -7.14741023 56.07714302 -8.16261566 49.96761787 C-8.7683379 46.32239656 -9.37557152 42.67744498 -9.98682022 39.0331459 C-10.66846694 34.96733404 -11.34078244 30.90003196 -12.01220703 26.83251953 C-12.21478119 25.6312442 -12.41735535 24.42996887 -12.62606812 23.19229126 C-14.97202485 8.8624293 -14.97202485 8.8624293 -12.9765625 5.0390625 C-8.50736517 0.36319708 -6.5206002 -0.44207459 0 0 Z " fill="#FAF9F7" transform="translate(170,123)"/>
<path d="M0 0 C4.27798141 2.17788145 4.27798141 2.17788145 6 5 C7.92385663 12.56205984 8.45452019 20.54384657 9.14501953 28.30126953 C9.24284729 29.35985168 9.34067505 30.41843384 9.44146729 31.50909424 C9.75974857 34.96660543 10.07152138 38.4246655 10.3828125 41.8828125 C10.60389347 44.30795653 10.82524196 46.73307618 11.04684448 49.15817261 C11.50860611 54.22286324 11.9671306 59.28783364 12.42333984 64.35302734 C13.00671488 70.82718666 13.59819948 77.3005748 14.19211006 83.7737751 C14.65006367 88.77504192 15.10370212 93.77669304 15.55605698 98.77846909 C15.77241756 101.16507865 15.99010394 103.55156843 16.2091713 105.93793106 C16.5150832 109.27741518 16.8151632 112.61737528 17.11376953 115.95751953 C17.20413483 116.93129547 17.29450012 117.90507141 17.38760376 118.90835571 C18.84898283 135.49069719 18.84898283 135.49069719 16.3125 140 C12.97564718 142.88592676 10.39372268 143.79242428 6.0625 144.4375 C1.8004726 143.82863894 -0.0250935 142.04251801 -3 139 C-4.87270621 135.21780472 -5.37698193 131.79818504 -5.71435547 127.61303711 C-5.82154907 126.3324794 -5.92874268 125.05192169 -6.03918457 123.7325592 C-6.14862334 122.33082887 -6.25795449 120.92909013 -6.3671875 119.52734375 C-6.48734332 118.06145796 -6.60824949 116.59563351 -6.7298584 115.12986755 C-7.05333982 111.20973667 -7.36766397 107.28892173 -7.68029022 103.36791229 C-8.19953722 96.88655165 -8.73656834 90.40661925 -9.26973343 83.9263916 C-9.46873188 81.50412675 -9.66671483 79.08178038 -9.86459351 76.65942383 C-10.62113765 67.42311328 -11.41668291 58.19179783 -12.28125 48.96484375 C-12.37657013 47.94529099 -12.47189026 46.92573822 -12.57009888 45.87528992 C-12.99891344 41.31174004 -13.43616641 36.74914021 -13.88232422 32.18725586 C-14.53975742 25.35580635 -15.13121288 18.52555809 -15.3515625 11.6640625 C-15.38330566 10.68131348 -15.41504883 9.69856445 -15.44775391 8.68603516 C-14.86560542 5.19377905 -13.41410857 3.53517833 -11 1 C-7.49022749 -0.75488626 -3.82991625 -0.52782039 0 0 Z " fill="#FAF9F7" transform="translate(238,123)"/>
<path d="M0 0 C3.61236175 2.1520453 5.41988627 4.15496596 7 8 C7.25447559 10.26863575 7.25447559 10.26863575 7.26069641 12.79975891 C7.26778122 13.76276917 7.27486603 14.72577942 7.28216553 15.7179718 C7.27968811 16.76792831 7.27721069 17.81788483 7.2746582 18.8996582 C7.2823246 20.56615921 7.2823246 20.56615921 7.29014587 22.2663269 C7.30406268 25.94453294 7.30308326 29.62255199 7.30078125 33.30078125 C7.30466749 35.85662404 7.30900201 38.41246619 7.31376648 40.9683075 C7.32123354 46.32907468 7.3210724 51.68977316 7.31567383 57.05053711 C7.30963969 63.23649562 7.32193127 69.42222636 7.3432439 75.60814601 C7.36302207 81.56900337 7.36602891 87.52979051 7.36250877 93.4906826 C7.36302198 96.02200034 7.36825966 98.55332172 7.37832069 101.08461952 C7.39067136 104.62731015 7.38390062 108.16947584 7.37231445 111.7121582 C7.38378006 113.27798393 7.38378006 113.27798393 7.39547729 114.8754425 C7.35348931 120.69070313 6.83964454 124.88097778 4 130 C1.17721762 132.43072927 -0.70010494 132.95001749 -4.375 133.5625 C-9.13593929 132.82373356 -11.97577273 130.72475449 -15 127 C-15.94040265 124.05138368 -16.1292623 121.3599142 -16.14044189 118.27616882 C-16.14900711 116.8568959 -16.14900711 116.8568959 -16.15774536 115.40895081 C-16.15886322 114.37769577 -16.15998108 113.34644073 -16.16113281 112.28393555 C-16.16609772 111.19244202 -16.17106262 110.10094849 -16.17617798 108.97637939 C-16.19079083 105.36315278 -16.19760005 101.74997007 -16.203125 98.13671875 C-16.208877 95.62571715 -16.21463473 93.11471556 -16.22039795 90.60371399 C-16.22956255 86.01016012 -16.23586399 81.41661884 -16.2388947 76.82305688 C-16.24337328 70.07312835 -16.26091539 63.32340253 -16.2898953 56.57353562 C-16.31416103 50.71733438 -16.32184116 44.8612005 -16.32357025 39.00495338 C-16.32659601 36.51828724 -16.33462193 34.03162193 -16.34775543 31.54498863 C-16.36482604 28.06458589 -16.36293292 24.58467577 -16.35644531 21.10424805 C-16.3656601 20.0790657 -16.37487488 19.05388336 -16.3843689 17.99763489 C-16.34606202 11.4312259 -15.7419521 6.26925058 -11.375 1.0625 C-7.61429038 -0.61992272 -4.04239475 -0.65688915 0 0 Z " fill="#FAF8F2" transform="translate(305,123)"/>
<path d="M0 0 C3.58552881 1.63687185 4.79315055 2.68972583 7 6 C8.32400732 16.74524826 6.08387575 28.31429075 4.91796875 39.015625 C4.70069884 41.04194459 4.48368779 43.06829195 4.266922 45.09466553 C3.81315065 49.3210891 3.35436756 53.54693297 2.89233398 57.77246094 C2.30246555 63.17335137 1.72814721 68.57577 1.15790844 73.97876358 C0.71481262 78.15582116 0.26200809 82.33178441 -0.1935482 86.50749969 C-0.40935596 88.49894302 -0.62183838 90.49074977 -0.8308506 92.48291779 C-1.12430906 95.26878768 -1.43122207 98.05286895 -1.74145508 100.83691406 C-1.82417664 101.64956726 -1.90689819 102.46222046 -1.99212646 103.29949951 C-2.7365032 109.77429043 -3.75851124 116.00756555 -8.8125 120.5 C-12.35929982 122.16908227 -14.14192779 122.64301203 -18 122 C-21.93620011 119.88050763 -24.51141972 118.25485818 -26 114 C-26.0400752 111.45896075 -25.96446832 109.08143254 -25.76123047 106.55957031 C-25.70890196 105.8155257 -25.65657345 105.07148109 -25.60265923 104.30488968 C-24.90184899 94.86412665 -23.86455554 85.45457357 -22.8203125 76.046875 C-22.6046932 74.08775184 -22.38910751 72.12862497 -22.17355347 70.16949463 C-21.72466198 66.10171453 -21.27187326 62.0343886 -20.81689453 57.96728516 C-20.23521687 52.76017312 -19.66893809 47.55150402 -19.10609627 42.34232712 C-18.66808478 38.3128359 -18.21930078 34.28459766 -17.76751328 30.25662994 C-17.55385029 28.33535541 -17.3441633 26.41363428 -17.13858414 24.49147797 C-16.85130863 21.81549825 -16.54888719 19.1416432 -16.24267578 16.46777344 C-16.16152527 15.68024185 -16.08037476 14.89271027 -15.99676514 14.08131409 C-15.356765 8.69149733 -14.00089845 5.14911315 -10.3125 1.1875 C-6.920356 -0.55441178 -3.69231196 -0.55054353 0 0 Z " fill="#FAF9F7" transform="translate(371,123)"/>
<path d="M0 0 C3.03522895 1.63435405 5.28352297 3.055553 7.375 5.8125 C9.11647929 11.90767753 7.54273317 17.84160404 6.02807617 23.79345703 C5.71343666 25.07041443 5.71343666 25.07041443 5.3924408 26.37316895 C4.70085589 29.17017076 3.99734641 31.96400721 3.29296875 34.7578125 C2.80642864 36.70869141 2.32037746 38.65969231 1.83479309 40.61080933 C0.81700625 44.6922588 -0.20670243 48.77216458 -1.23461914 52.85107422 C-2.55053491 58.07482711 -3.85160791 63.30214279 -5.14827442 68.53070259 C-6.14861443 72.55737446 -7.15680205 76.58204943 -8.16736412 80.60616684 C-8.65020117 82.53285187 -9.13060027 84.46014959 -9.60849953 86.38806534 C-10.2776718 89.08256273 -10.95737281 91.77418926 -11.63989258 94.46533203 C-11.834823 95.25922333 -12.02975342 96.05311462 -12.23059082 96.87106323 C-13.61004693 102.24499931 -15.39742662 107.53139398 -20 111 C-23.38957368 111.68940482 -26.59883918 111.60211938 -30 111 C-33.0625 108.5625 -33.0625 108.5625 -35 106 C-35.33 105.67 -35.66 105.34 -36 105 C-36.31219634 99.0862966 -35.53765384 94.07843924 -34.0234375 88.3828125 C-33.81770111 87.57660965 -33.61196472 86.7704068 -33.3999939 85.93977356 C-32.96050327 84.22123561 -32.51680586 82.50376877 -32.06921387 80.787323 C-30.89482606 76.28352408 -29.7503221 71.77210878 -28.6015625 67.26171875 C-28.37380127 66.37112259 -28.14604004 65.48052643 -27.91137695 64.5629425 C-26.07919018 57.3780733 -24.37801095 50.17159993 -22.75 42.9375 C-20.86796391 34.63478971 -18.8793212 26.36801476 -16.75 18.125 C-16.3802002 16.67855103 -16.3802002 16.67855103 -16.00292969 15.20288086 C-15.76993164 14.3135083 -15.53693359 13.42413574 -15.296875 12.5078125 C-15.09416992 11.73066895 -14.89146484 10.95352539 -14.68261719 10.15283203 C-12.46804978 3.16854898 -7.73105133 -1.28850855 0 0 Z " fill="#FAF9F7" transform="translate(437,122)"/>
</svg>
