<?xml version="1.0" encoding="UTF-8"?>
<svg version="1.1" xmlns="http://www.w3.org/2000/svg" width="512" height="512">
<path d="M0 0 C0.9666156 -0.0066568 1.9332312 -0.0133136 2.92913818 -0.02017212 C4.96982937 -0.03027089 7.01055339 -0.03499 9.05126953 -0.03466797 C12.1480254 -0.03902891 15.2433408 -0.07534478 18.33984375 -0.11328125 C20.33072434 -0.11915269 22.32161164 -0.12311989 24.3125 -0.125 C25.22638489 -0.13937103 26.14026978 -0.15374207 27.08184814 -0.16854858 C34.42972048 -0.11721715 41.58634639 1.37039073 47.2109375 6.37109375 C47.65179688 7.04011719 48.09265625 7.70914062 48.546875 8.3984375 C49.24683594 9.40583984 49.24683594 9.40583984 49.9609375 10.43359375 C50.921875 12.3359375 50.921875 12.3359375 50.921875 15.3359375 C52.18668701 15.31499023 53.45149902 15.29404297 54.75463867 15.27246094 C59.50517181 15.19935432 64.25565659 15.15388388 69.0065918 15.11621094 C71.05192462 15.0962549 73.09720158 15.06908012 75.14233398 15.03417969 C97.17624696 14.66793523 97.17624696 14.66793523 107.921875 19.3359375 C108.58485596 19.62388184 109.24783691 19.91182617 109.9309082 20.20849609 C111.48487761 20.95041445 112.98838943 21.79562396 114.484375 22.6484375 C116.08732422 23.545625 116.08732422 23.545625 117.72265625 24.4609375 C119.85689778 25.71177503 121.97946366 26.98274881 124.08984375 28.2734375 C125.10691406 28.8921875 126.12398437 29.5109375 127.171875 30.1484375 C128.06390625 30.71175781 128.9559375 31.27507812 129.875 31.85546875 C138.29034361 35.94446263 147.08013153 35.60331221 156.23046875 35.57421875 C157.60613255 35.58025265 158.98179022 35.5878662 160.35743713 35.5969696 C166.15343947 35.63376159 171.94924491 35.65266534 177.74536133 35.64135742 C181.30925102 35.63546288 184.87235375 35.6539653 188.43608284 35.68724632 C190.42883556 35.69891637 192.42168815 35.68395644 194.41441345 35.66828918 C203.30078569 35.7634501 210.41929899 37.10406595 217.05833435 43.34394836 C222.68863432 49.37579591 225.52786624 55.31232577 226.171875 63.5234375 C225.85111792 68.41498291 224.48480277 72.71227617 222.921875 77.3359375 C229.85749865 76.76388874 236.14089213 75.33845327 242.80664062 73.37670898 C243.85663742 73.07420227 244.90663422 72.77169556 245.9884491 72.46002197 C248.25478659 71.80622599 250.52018135 71.14915493 252.78471375 70.48913383 C256.37309271 69.44393334 259.96422335 68.40874095 263.55627441 67.37623596 C273.1197894 64.62549279 282.67904014 61.86009887 292.23587751 59.08625609 C299.13105651 57.08502475 306.02931264 55.09476344 312.93058777 53.11464119 C315.30806847 52.42984769 317.68424115 51.74049544 320.05903625 51.04644585 C323.38203765 50.07537341 326.70897051 49.11906238 330.03710938 48.16577148 C331.49620979 47.73331871 331.49620979 47.73331871 332.98478699 47.29212952 C341.84005765 44.78587769 349.53073951 44.0667633 357.921875 48.3359375 C363.15150501 51.66388387 365.20770106 55.90758962 367.921875 61.3359375 C368.59437537 68.65658433 369.15132136 75.57958113 364.49609375 81.625 C363.97660156 82.18960938 363.45710938 82.75421875 362.921875 83.3359375 C362.43332031 83.87992187 361.94476563 84.42390625 361.44140625 84.984375 C355.79944452 90.48431938 348.74238738 94.23845512 342.0234375 98.25390625 C336.6679926 101.46322773 331.42222614 104.83341508 326.171875 108.2109375 C315.2493296 115.20075609 304.14768349 121.84614041 292.921875 128.3359375 C292.00857422 128.86541992 291.09527344 129.39490234 290.15429688 129.94042969 C274.66210986 138.8949791 258.89836962 147.27915644 242.921875 155.3359375 C241.85114746 155.87669922 240.78041992 156.41746094 239.67724609 156.97460938 C208.73695656 172.49461953 175.23155656 188.76997656 140.58886719 177.58251953 C127.59765809 173.21236372 115.3043684 167.33944762 103.04589844 161.26025391 C92.55712137 156.07081072 83.75982128 152.06435846 72.0234375 151.0234375 C68.41382423 150.22332171 67.07544624 149.31450867 64.921875 146.3359375 C65.171875 142.5859375 65.171875 142.5859375 65.921875 139.3359375 C70.47711246 137.51521664 73.64197676 137.18582501 78.484375 137.8984375 C79.57878906 138.04410156 80.67320313 138.18976563 81.80078125 138.33984375 C92.71288519 140.59683858 102.80105585 146.13192416 112.671875 151.0859375 C138.71866678 163.99143698 161.73336565 172.97201096 190.33984375 163.53857422 C204.94975372 158.47269688 218.98126884 151.9924343 232.921875 145.3359375 C233.79199219 144.92085937 234.66210938 144.50578125 235.55859375 144.078125 C248.26156967 137.97281874 260.52798772 131.17669788 272.74414062 124.15576172 C276.13445282 122.21419848 279.5350405 120.2912413 282.9375 118.37109375 C295.62535241 111.19990925 308.14370062 103.84417286 320.39794922 95.94873047 C326.5057644 92.04582593 332.67532549 88.23975902 338.82910156 84.40991211 C348.56590073 79.39282181 348.56590073 79.39282181 354.921875 71.3359375 C355.41627673 66.68856125 354.70939443 64.0883675 351.921875 60.3359375 C345.41198769 57.08099384 336.99817834 60.10980334 330.48364258 62.05810547 C329.48069153 62.3475 328.47774048 62.63689453 327.44439697 62.93505859 C325.27892998 63.56160111 323.11505333 64.19366153 320.95264626 64.83068466 C317.51928482 65.84200494 314.08193164 66.8385592 310.64323425 67.83157349 C303.33636475 69.94466953 296.03524552 72.07722477 288.734375 74.2109375 C280.28546615 76.67776813 271.83428109 79.13643925 263.37882042 81.58072281 C260.01217618 82.55759035 256.64910119 83.54608997 253.28608704 84.53536987 C240.17551569 88.35576782 227.51088076 91.76758288 213.734375 91.3984375 C208.73423072 91.24005163 208.73423072 91.24005163 203.921875 92.3359375 C201.24549538 92.44243175 198.59477108 92.49318404 195.91796875 92.49707031 C194.69559006 92.50451767 194.69559006 92.50451767 193.44851685 92.51211548 C190.75212767 92.52672413 188.05579725 92.53353577 185.359375 92.5390625 C183.48754881 92.54481357 181.61572264 92.55057131 179.74389648 92.55633545 C175.81982142 92.56684073 171.89576683 92.57268697 167.97167969 92.57617188 C162.93751938 92.58166568 157.90362831 92.60571454 152.86955261 92.63414383 C149.00402019 92.65274043 145.13855313 92.65797414 141.27297974 92.65950775 C139.41658043 92.66253989 137.56018242 92.67058722 135.7038269 92.68369293 C133.11093431 92.70069673 130.51870655 92.69888764 127.92578125 92.69238281 C126.77083664 92.70620499 126.77083664 92.70620499 125.59255981 92.7203064 C122.61216672 92.69681532 120.4541229 92.67974148 117.90991211 91.03631592 C116.19953829 88.09282047 117.17180506 85.50931032 117.921875 82.3359375 C120.4044673 79.8533452 121.83493892 80.09900442 125.22221375 80.07917786 C125.95986465 80.08487289 126.69751556 80.09056793 127.45751953 80.09643555 C128.23500046 80.09442139 129.01248138 80.09240723 129.81352234 80.09033203 C131.50557219 80.08678122 133.1976353 80.08756013 134.88968277 80.09210777 C137.5721898 80.09769269 140.25426302 80.08855421 142.93673706 80.0749054 C150.56493952 80.03775411 158.19299873 80.01920372 165.82128906 80.03051758 C170.48576619 80.03638738 175.14963784 80.01801139 179.81399155 79.98462868 C181.58807558 79.97669793 183.36222602 79.97792001 185.13629532 79.98865318 C197.95640703 80.30280952 197.95640703 80.30280952 208.921875 74.3359375 C212.36734483 70.56745488 212.43759942 66.68735204 212.26953125 61.76953125 C211.58613633 56.98576678 209.06175983 54.41206376 205.6652832 51.20556641 C200.4047979 47.8251277 193.66891908 48.77370831 187.65234375 48.796875 C186.24756855 48.78695489 184.84280633 48.77500867 183.43806458 48.76113892 C179.74749207 48.72884831 176.05721594 48.7183931 172.36651611 48.71429443 C166.47145917 48.70552701 160.5766452 48.66967869 154.68178749 48.6221199 C152.63624846 48.60965771 150.59102474 48.61028244 148.54545593 48.61239624 C139.10443259 48.5603069 131.10699274 47.96684982 122.734375 43.2109375 C121.6309375 42.59476562 120.5275 41.97859375 119.390625 41.34375 C117.02391517 39.98423657 114.6740064 38.59821356 112.328125 37.203125 C111.42743286 36.67356201 111.42743286 36.67356201 110.50854492 36.13330078 C108.83357345 35.1444983 107.16839806 34.13915579 105.50390625 33.1328125 C94.61662223 27.38425503 83.30362588 27.79496413 71.296875 27.6484375 C69.4153415 27.6152149 67.53383 27.58072079 65.65234375 27.54492188 C61.07564312 27.46058375 56.49898738 27.39350924 51.921875 27.3359375 C51.92556217 27.9573185 51.92924934 28.57869949 51.93304825 29.21891022 C52.02150353 44.35987413 52.08763512 59.50075841 52.12912369 74.64191437 C52.14972214 81.9641703 52.17779037 89.28625344 52.22363281 96.60839844 C52.26358426 102.99266985 52.28932756 109.37681606 52.29822898 115.76120901 C52.30342979 119.13969521 52.31559585 122.51782336 52.34479523 125.89619446 C52.373869 129.67385003 52.37782914 133.45076601 52.37597656 137.22851562 C52.39035767 138.34054352 52.40473877 139.45257141 52.41955566 140.59829712 C52.38188506 147.70624395 51.49051398 153.49794345 46.50983047 158.85456085 C42.09798509 162.77740498 37.84050037 164.57300277 31.9831543 164.62646484 C31.02833664 164.63922455 30.07351898 164.65198425 29.08976746 164.66513062 C28.06885513 164.66735626 27.04794281 164.66958191 25.99609375 164.671875 C24.93453568 164.6785318 23.8729776 164.6851886 22.7792511 164.69204712 C20.53587574 164.70215942 18.29247039 164.70686458 16.04907227 164.70654297 C12.63181471 164.71090883 9.21585672 164.74722484 5.79882812 164.78515625 C3.61458773 164.79102628 1.43034123 164.79499442 -0.75390625 164.796875 C-1.76874588 164.81124603 -2.78358551 164.82561707 -3.82917786 164.84042358 C-10.7501124 164.79625948 -16.34251559 163.71542318 -21.59980774 158.95932007 C-27.82218377 152.06995269 -27.37098321 144.50444842 -27.3527832 135.75634766 C-27.35789413 134.4906041 -27.36300507 133.22486053 -27.36827087 131.92076111 C-27.38162423 128.45991626 -27.38224359 124.99918087 -27.37970757 121.5383153 C-27.37863524 118.64335202 -27.38352801 115.74841065 -27.388313 112.85345209 C-27.3993958 106.02012315 -27.3998527 99.18684919 -27.39379883 92.35351562 C-27.38776119 85.31776238 -27.40006743 78.28220923 -27.4213689 71.24649012 C-27.43901688 65.19362736 -27.44498118 59.1408281 -27.44173115 53.08794057 C-27.43992303 49.47825576 -27.44250709 45.86871366 -27.45644569 42.25905228 C-27.47141997 38.23067604 -27.46202607 34.20270383 -27.45043945 30.17431641 C-27.45808319 28.98755814 -27.46572693 27.80079987 -27.47360229 26.57807922 C-27.42724659 19.27820433 -27.04671732 12.96914004 -22.24609375 7.09375 C-21.59253906 6.55492187 -20.93898438 6.01609375 -20.265625 5.4609375 C-19.61980469 4.90664063 -18.97398438 4.35234375 -18.30859375 3.78125 C-12.50963859 0.02360831 -6.67587828 0.01611545 0 0 Z " fill="#010100" transform="translate(43.078125,276.6640625)"/>
<path d="M0 0 C5.73372376 6.2251858 9.33838501 12.88471616 9.3125 21.375 C9.31507813 22.220625 9.31765625 23.06625 9.3203125 23.9375 C9.19583711 26.22198944 8.82627457 28.18491574 8.1875 30.375 C8.868125 30.46136719 9.54875 30.54773438 10.25 30.63671875 C40.86102934 35.07368976 67.51812367 50.98447687 90.1875 71.375 C90.91453125 72.01695312 91.6415625 72.65890625 92.390625 73.3203125 C117.34625993 96.70311329 135.10238888 134.35578894 136.30078125 168.61328125 C136.31066049 171.20493561 136.28091768 173.78525436 136.1875 176.375 C137.20070313 176.32859375 138.21390625 176.2821875 139.2578125 176.234375 C140.60934532 176.19683242 141.96091028 176.16043494 143.3125 176.125 C143.97765625 176.09148437 144.6428125 176.05796875 145.328125 176.0234375 C150.4714462 175.92258806 153.23103946 177.16626341 157.1875 180.375 C159.53875704 183.27488368 160.1433484 185.03440197 160.625 188.75 C159.58925694 197.33187109 153.51872197 202.98173684 147.1875 208.375 C133.27934857 218.96798684 117.96020361 224.69873121 100.4561615 224.64242554 C99.41028777 224.64695665 98.36441404 224.65148776 97.28684717 224.65615618 C93.80047948 224.66876363 90.31426875 224.66718214 86.82788086 224.66552734 C84.32052409 224.67151497 81.81316917 224.67832106 79.30581665 224.68588257 C73.21160567 224.7016971 67.11745166 224.70799008 61.02322208 224.70910732 C56.06409096 224.71006024 51.10497252 224.71418267 46.14584541 224.72050858 C32.05831812 224.73811053 17.9708212 224.7473494 3.88328283 224.74584763 C3.12491717 224.74576772 2.36655151 224.7456878 1.58520508 224.74560547 C0.4462528 224.74548283 0.4462528 224.74548283 -0.71570861 224.74535771 C-13.00694674 224.7445457 -25.29806206 224.76366448 -37.5892647 224.7918822 C-50.23673438 224.82068652 -62.88414434 224.83441827 -75.53164762 224.83269465 C-82.62133597 224.83203322 -89.71089566 224.8374162 -96.80055428 224.85905075 C-103.47454699 224.87928759 -110.14822447 224.87851216 -116.82224655 224.86401749 C-119.26178701 224.86193634 -121.7013447 224.86658845 -124.14085579 224.8787384 C-148.07295959 224.99014207 -168.81263871 221.75222458 -186.8125 204.375 C-195.20359386 195.4154772 -195.20359386 195.4154772 -195.8125 188.375 C-194.7813926 183.32257374 -192.65891251 180.74061095 -188.8125 177.375 C-186.28163324 176.10956662 -184.54352466 176.25081214 -181.70940208 176.25195217 C-180.62208396 176.24996112 -179.53476584 176.24797007 -178.41449869 176.24591869 C-177.21023945 176.24883153 -176.00598021 176.25174437 -174.76522827 176.25474548 C-173.49353464 176.25389106 -172.221841 176.25303663 -170.9116112 176.25215632 C-167.37022916 176.24991182 -163.82887716 176.25393203 -160.28749895 176.25893438 C-156.47291086 176.26323934 -152.65832457 176.26179242 -148.84373474 176.2610321 C-142.23085502 176.2605069 -135.61798513 176.26365335 -129.00510788 176.26926994 C-119.44391236 176.27738539 -109.88272162 176.28000021 -100.32152303 176.28125793 C-84.81037463 176.28344838 -69.29923148 176.29010828 -53.78808594 176.29956055 C-38.71744818 176.30873485 -23.64681186 176.31581559 -8.57617188 176.32006836 C-7.6477417 176.32033108 -6.71931152 176.32059381 -5.76274709 176.32086449 C-1.10524221 176.3221695 3.55226268 176.32343321 8.20976758 176.32467639 C46.8690154 176.33504878 85.52825735 176.35266691 124.1875 176.375 C123.58377998 172.42056875 122.96861686 168.46799567 122.3515625 164.515625 C122.18277588 163.40912598 122.01398926 162.30262695 121.84008789 161.16259766 C116.91725011 129.82706348 102.6322715 102.69380996 80.1875 80.375 C79.37925781 79.56675781 78.57101562 78.75851563 77.73828125 77.92578125 C57.09789906 58.37712175 29.90325719 47.03837451 2.1875 42.375 C1.29289063 42.22289062 0.39828125 42.07078125 -0.5234375 41.9140625 C-2.96608403 41.59694699 -5.3495175 41.4572136 -7.8125 41.375 C-8.48265137 41.34921875 -9.15280273 41.3234375 -9.84326172 41.296875 C-42.19640564 40.20224547 -74.71131629 48.65236643 -100.8125 68.375 C-102.11767578 69.34953125 -102.11767578 69.34953125 -103.44921875 70.34375 C-116.45367 80.5194958 -128.03045547 92.36527821 -136.8125 106.375 C-137.20131348 106.99455566 -137.59012695 107.61411133 -137.99072266 108.25244141 C-147.08104816 123.00596104 -152.74998807 138.24394989 -156.21582031 155.20361328 C-156.39854492 156.09419434 -156.58126953 156.98477539 -156.76953125 157.90234375 C-156.92397705 158.69374756 -157.07842285 159.48515137 -157.23754883 160.30053711 C-157.8125 162.375 -157.8125 162.375 -159.8125 165.375 C-162.6875 166.25 -162.6875 166.25 -165.8125 166.375 C-168.16622624 165.021501 -169.55377482 164.20292058 -170.37890625 161.5625 C-170.32304279 130.27896045 -150.41343881 97.40200191 -129.22070312 75.81835938 C-127.91239633 74.47739027 -126.63448666 73.10694742 -125.359375 71.734375 C-104.56678737 49.84019332 -75.96472785 36.69790239 -46.8125 30.375 C-45.8225 30.375 -44.8325 30.375 -43.8125 30.375 C-43.97105469 29.81039062 -44.12960937 29.24578125 -44.29296875 28.6640625 C-46.39940335 19.38307999 -43.99123377 11.48367927 -39.0625 3.5625 C-27.4672659 -7.71064426 -13.54967759 -7.82870261 0 0 Z M-30.6875 13.5 C-32.34490604 17.73559321 -32.22652308 21.87648004 -31.8125 26.375 C-31.4825 27.035 -31.1525 27.695 -30.8125 28.375 C-22.2325 28.375 -13.6525 28.375 -4.8125 28.375 C-2.56862987 23.88725975 -2.56065413 21.08302904 -3.8125 16.375 C-6.10144008 12.04236343 -8.20285182 9.17877538 -12.8125 7.375 C-20.50337211 6.33151484 -25.40921516 7.51794384 -30.6875 13.5 Z " fill="#010102" transform="translate(335.8125,58.625)"/>
<path d="M0 0 C1.29659546 -0.01395813 1.29659546 -0.01395813 2.61938477 -0.02819824 C3.54033936 -0.01180298 4.46129395 0.00459229 5.41015625 0.02148438 C6.36784912 0.02144409 7.32554199 0.02140381 8.31225586 0.0213623 C10.33291197 0.02671318 12.35356785 0.04427739 14.37402344 0.07324219 C17.46223739 0.11509318 20.54826902 0.11430915 23.63671875 0.10742188 C25.6028797 0.11791512 27.56902943 0.13085394 29.53515625 0.14648438 C30.45611084 0.14668579 31.37706543 0.14688721 32.32592773 0.14709473 C37.15831546 0.23604958 40.58030166 0.41598518 44.47265625 3.61523438 C45.73943037 6.14878261 45.60992066 7.92026092 45.6265564 10.75740051 C45.63515686 11.84676407 45.64375732 12.93612762 45.65261841 14.0585022 C45.65687836 15.25905243 45.66113831 16.45960266 45.66552734 17.6965332 C45.67779358 19.58687035 45.67779358 19.58687035 45.69030762 21.51539612 C45.71652996 25.70099752 45.73183525 29.88660894 45.74609375 34.07226562 C45.75145331 35.51282953 45.75683082 36.95339337 45.7622261 38.39395714 C45.78385497 44.38600326 45.80259195 50.37804668 45.8138485 56.37012196 C45.83008969 64.95928663 45.86327081 73.54799906 45.92024934 82.13699323 C45.95894187 88.17527838 45.97848032 94.21344253 45.98376906 100.2518484 C45.9874235 103.85885263 45.99945327 107.46537455 46.0318718 111.07224464 C46.06752786 115.09702093 46.06358346 119.12082461 46.05615234 123.14575195 C46.07255768 124.34022949 46.08896301 125.53470703 46.10586548 126.76538086 C46.04506426 134.7895588 46.04506426 134.7895588 43.22587585 138.85612488 C40.4210564 140.64820297 39.11329816 141.23913815 35.83764648 141.23046875 C34.95000107 141.23977417 34.06235565 141.24907959 33.14781189 141.25866699 C31.72886375 141.2340741 31.72886375 141.2340741 30.28125 141.20898438 C29.29898941 141.20902466 28.31672882 141.20906494 27.30470276 141.20910645 C25.23277369 141.20375542 23.16084485 141.1861906 21.08911133 141.15722656 C17.91750118 141.1153314 14.74801239 141.11616279 11.57617188 141.12304688 C9.56118316 141.11255543 7.54620538 141.09961757 5.53125 141.08398438 C4.58326035 141.08378296 3.63527069 141.08358154 2.65855408 141.08337402 C1.77406082 141.06746216 0.88956757 141.05155029 -0.02172852 141.03515625 C-0.79718521 141.02673706 -1.57264191 141.01831787 -2.37159729 141.00964355 C-5.11744818 140.50727056 -6.49808996 139.50815905 -8.52734375 137.61523438 C-9.53446054 134.59388402 -9.66255058 132.55099584 -9.6812439 129.39077759 C-9.68984436 128.30845352 -9.69844482 127.22612946 -9.70730591 126.11100769 C-9.71156586 124.92340347 -9.71582581 123.73579926 -9.72021484 122.51220703 C-9.72839233 121.26158981 -9.73656982 120.0109726 -9.74499512 118.72245789 C-9.76985389 114.57474081 -9.78651657 110.42706013 -9.80078125 106.27929688 C-9.80614186 104.85080331 -9.81151938 103.42230981 -9.8169136 101.99381638 C-9.83853485 96.05234209 -9.85727223 90.11087049 -9.868536 84.16936684 C-9.88478184 75.65635788 -9.91798294 67.14380483 -9.97493684 58.63096774 C-10.01362872 52.64361743 -10.03316759 46.65638911 -10.03845656 40.66891706 C-10.04211038 37.09322501 -10.05413402 33.5180196 -10.0865593 29.94246292 C-10.12221355 25.95385576 -10.11827091 21.96582189 -10.11083984 17.97705078 C-10.12724518 16.79349503 -10.14365051 15.60993927 -10.16055298 14.39051819 C-10.09973886 6.43671667 -10.09973886 6.43671667 -7.27383423 2.381073 C-4.50658216 0.60188584 -3.23353637 -0.00879334 0 0 Z " fill="#F6B218" transform="translate(37.52734375,288.384765625)"/>
<path d="M0 0 C109.23 0 218.46 0 331 0 C324.96154223 12.07691554 311.34075711 18.86934548 299 23 C293.5218297 24.19334471 288.14169943 24.14822215 282.56454468 24.14717102 C281.51432841 24.15084771 280.46411214 24.1545244 279.38207114 24.1583125 C275.86327032 24.16932473 272.34449905 24.173189 268.82568359 24.17700195 C266.30242825 24.18326842 263.77917383 24.18991539 261.25592041 24.19691467 C253.68544181 24.21611963 246.11496841 24.22673897 238.54447168 24.23564246 C234.97466059 24.24003194 231.40485098 24.24539697 227.83504105 24.25063133 C215.96066025 24.26763801 204.08628036 24.28213125 192.21188927 24.28938007 C189.13360976 24.29128979 186.05533026 24.29321015 182.97705078 24.29516602 C181.82949397 24.29589163 181.82949397 24.29589163 180.65875418 24.2966319 C168.27086492 24.30492893 155.88307231 24.33026281 143.49522524 24.36274669 C130.76199568 24.39586272 118.02881519 24.41383287 105.29554236 24.41702431 C98.15227293 24.41918504 91.00914453 24.4278695 83.86591721 24.45348549 C77.14356371 24.47753744 70.42150724 24.48098979 63.69910431 24.47072411 C61.23691845 24.47022923 58.77472002 24.47653542 56.31257248 24.49028015 C32.48579852 24.61581018 32.48579852 24.61581018 23 20 C22.0387792 19.55442906 21.0775584 19.10885813 20.0872097 18.64978504 C12.7669711 15.12799144 6.40761265 10.04614994 1 4 C0.67 2.68 0.34 1.36 0 0 Z " fill="#5472B7" transform="translate(153,247)"/>
</svg>
