<?xml version="1.0" encoding="UTF-8"?>
<svg version="1.1" xmlns="http://www.w3.org/2000/svg" width="512" height="512">
<path d="M0 0 C1.85291153 0.46882851 1.85291153 0.46882851 3.74325562 0.9471283 C6.34802367 1.60976635 8.95164832 2.27583448 11.55419922 2.94702148 C14.18677566 3.62491801 16.82193085 4.29068563 19.46044922 4.94506836 C42.48011269 10.65857812 63.7237565 16.27754535 76.91430664 37.55517578 C84.60160427 50.64534647 86.9834071 66.82484038 86.8984375 81.90234375 C87.7468551 81.89681299 87.7468551 81.89681299 88.61241245 81.8911705 C102.39273745 81.8027257 116.17301254 81.73684426 129.95356083 81.69509506 C136.61784314 81.67422607 143.28188065 81.64592039 149.94604492 81.60058594 C156.37808177 81.55710472 162.80992155 81.53320143 169.24209404 81.52283478 C171.69528747 81.5154476 174.1484702 81.50102222 176.60157967 81.47942352 C180.0393919 81.45036041 183.47639119 81.44638912 186.91430664 81.44824219 C188.43345421 81.42667053 188.43345421 81.42667053 189.98329163 81.40466309 C196.17096672 81.44072087 199.86399813 82.22402672 204.8984375 85.90234375 C208.66388089 90.72983527 209.49609401 94.44673904 209.21875 100.5390625 C208.59152685 105.16674552 206.88997114 107.93760832 203.5859375 111.15234375 C197.46751732 115.13643131 191.73328989 115.18280259 184.67041016 115.12939453 C183.65516266 115.12968658 182.63991516 115.12997864 181.59390259 115.13027954 C178.25001372 115.12889015 174.90634978 115.11334714 171.5625 115.09765625 C169.23937095 115.09392474 166.91624032 115.09107842 164.59310913 115.08908081 C158.48736199 115.08145527 152.38171043 115.06181595 146.27600098 115.03967285 C140.04208672 115.01919124 133.80815698 115.01007413 127.57421875 115 C115.3489164 114.97856912 103.12368491 114.94444611 90.8984375 114.90234375 C91.07353348 116.07290817 91.24862946 117.2434726 91.42903137 118.44950867 C93.64279074 133.47220073 95.46514785 148.53420195 97.2315557 163.61508775 C97.55877374 166.40652847 97.8875224 169.19778823 98.21619731 171.98905772 C98.99109601 178.57062174 99.76315083 185.15251502 100.53344727 191.73461914 C101.3248769 198.49677459 102.12173849 205.25827518 102.92109555 212.01949769 C103.61237442 217.86844125 104.30006517 223.71779936 104.98495418 229.56749457 C105.39192264 233.04301496 105.80026403 236.51835958 106.21219444 239.99329567 C106.66970122 243.85405837 107.11973142 247.71567282 107.5690918 251.57739258 C107.77241371 253.28010315 107.77241371 253.28010315 107.97984314 255.01721191 C108.16265839 256.60370293 108.16265839 256.60370293 108.34916687 258.22224426 C108.45588557 259.13151074 108.56260427 260.04077723 108.67255688 260.97759724 C108.95489153 264.63332154 108.93296847 268.23594977 108.8984375 271.90234375 C109.98886604 271.78046944 111.07929459 271.65859512 112.20276642 271.53302765 C125.49342213 270.07549831 138.80063282 268.98564336 152.13085938 267.96289062 C154.50316758 267.77889811 156.87545605 267.59465102 159.24772644 267.41017151 C164.31432558 267.01654662 169.38103458 266.62437905 174.4478302 266.23329163 C182.45685692 265.61477203 190.46546688 264.99096954 198.47399902 264.36608887 C201.2237913 264.15159672 203.97358595 263.93713517 206.72338104 263.72267914 C207.41004362 263.66912428 208.09670619 263.61556943 208.80417672 263.56039169 C216.58048486 262.95395665 224.35687127 262.34852892 232.13330078 261.74365234 C232.84250748 261.68848629 233.55171418 261.63332023 234.28241199 261.57648247 C245.82488717 260.67880321 257.36772263 259.78582656 268.91065711 258.89407557 C280.79159544 257.97605095 292.67200103 257.05133978 304.55196619 256.12080622 C311.21086435 255.59945323 317.87000998 255.08163634 324.5297699 254.57139587 C330.77509004 254.09289906 337.01973281 253.6063909 343.26394081 253.11359978 C345.55873911 252.93397326 347.85377672 252.75737545 350.14905357 252.58397102 C353.27214022 252.34759301 356.39420057 252.10054047 359.51623535 251.85070801 C360.43225509 251.78396991 361.34827483 251.71723182 362.29205275 251.64847136 C363.12580695 251.57953814 363.95956115 251.51060493 364.81858063 251.43958282 C365.89957401 251.35577197 365.89957401 251.35577197 367.00240564 251.27026796 C369.22052158 250.96642778 369.22052158 250.96642778 371.8984375 248.90234375 C372.60712327 246.13682607 372.60712327 246.13682607 372.890625 242.86328125 C373.03886719 241.64253906 373.18710937 240.42179688 373.33984375 239.1640625 C373.62622829 236.59692177 373.90757636 234.02921358 374.18359375 231.4609375 C375.06178773 224.30778481 376.00674345 218.42516372 380.8984375 212.90234375 C385.93538445 209.06466988 391.80606878 209.0851855 397.8984375 209.90234375 C402.34990001 212.08760717 405.08728895 214.84179585 407.8984375 218.90234375 C411.90401316 230.91907072 407.41774532 253.48770522 402.1484375 264.71484375 C396.96326504 273.72867656 389.23005342 280.58183299 379.01058376 283.4281463 C373.0738464 284.79620855 367.22495827 285.44638836 361.1555481 285.895401 C360.10866912 285.97807533 359.06179014 286.06074966 357.98318756 286.14592928 C354.49460932 286.41988267 351.00539694 286.68465806 347.51611328 286.94946289 C345.00732602 287.14461274 342.49858377 287.34034188 339.98988342 287.53660583 C334.59807157 287.95720005 329.20598211 288.37391187 323.81360245 288.78715706 C316.01392861 289.38495941 308.21488264 289.99065149 300.41597675 290.59838109 C287.756524 291.58472589 275.09667505 292.56588142 262.43652344 293.54321289 C261.30142795 293.63084136 261.30142795 293.63084136 260.14340125 293.72024011 C258.61173516 293.83848144 257.08006902 293.95672219 255.54840284 294.07496237 C254.78894296 294.13359088 254.02948309 294.19221938 253.24700928 294.25262451 C252.48683215 294.31130722 251.72665503 294.36998992 250.94344223 294.43045089 C242.48825803 295.08323538 234.03317368 295.73730852 225.578125 296.3918457 C224.82050185 296.45049476 224.0628787 296.50914383 223.28229727 296.56957013 C210.66068632 297.54674931 198.03931283 298.5269697 185.41807353 299.50893682 C177.63519094 300.11428266 169.85208501 300.71660635 162.06866805 301.31504308 C156.1140455 301.77302487 150.15971767 302.23472625 144.2054882 302.69779396 C141.75898272 302.8873918 139.31237426 303.07566592 136.86565971 303.26254654 C133.53663483 303.51698271 130.20800115 303.77603853 126.87942505 304.03627014 C125.90211084 304.10981203 124.92479662 304.18335391 123.91786683 304.25912434 C122.58483373 304.36476268 122.58483373 304.36476268 121.22487068 304.47253513 C120.45625902 304.53182652 119.68764736 304.59111791 118.89574444 304.652206 C116.69374535 304.86174845 116.69374535 304.86174845 113.8984375 305.90234375 C113.98931641 306.62301025 114.08019531 307.34367676 114.17382812 308.08618164 C114.58646289 311.37853095 114.99250391 314.67166178 115.3984375 317.96484375 C115.54152344 319.09857422 115.68460938 320.23230469 115.83203125 321.40039062 C116.03505859 323.05844727 116.03505859 323.05844727 116.2421875 324.75 C116.36787109 325.76070557 116.49355469 326.77141113 116.62304688 327.81274414 C116.92408798 331.19011579 116.91607778 334.51314188 116.8984375 337.90234375 C118.20157772 337.89957837 119.50471794 337.89681299 120.84734726 337.89396381 C151.81226451 337.82892768 182.77716327 337.77949091 213.74213247 337.74914776 C217.55709234 337.74539584 221.37205206 337.74151286 225.18701172 337.73754883 C226.32620028 337.73636843 226.32620028 337.73636843 227.48840275 337.73516419 C239.76995196 337.72212614 252.05145885 337.69848116 264.33298299 337.67088536 C276.94397668 337.64278654 289.55494828 337.62615804 302.16597199 337.62007827 C309.94162593 337.61597109 317.71716023 337.60301991 325.49277732 337.57859435 C331.46480142 337.56079512 337.43672358 337.55898939 343.40877724 337.56302071 C345.85160621 337.56219762 348.29443986 337.55626026 350.73724174 337.54472733 C354.08319062 337.5297097 357.42863561 337.5334241 360.77459717 337.5415802 C361.73183489 337.53284168 362.6890726 337.52410315 363.67531753 337.51509982 C379.5249448 337.61888895 394.33634465 343.54331266 405.71875 354.58984375 C417.51209884 367.10178374 423.46342361 381.68732399 423.24755859 398.97485352 C422.67662808 415.23860527 415.70000453 429.79732789 403.8984375 440.90234375 C389.95421149 453.40068341 374.62846227 457.09111683 356.29443359 456.109375 C341.80618975 454.8574868 328.05437777 447.25301492 318.65234375 436.28125 C309.56016594 424.80032268 304.48735242 412.32807719 304.5859375 397.65234375 C304.58867676 396.82404053 304.59141602 395.9957373 304.59423828 395.14233398 C304.73536967 386.80503766 306.1534611 379.39229654 309.8984375 371.90234375 C236.1434375 371.40734375 236.1434375 371.40734375 160.8984375 370.90234375 C162.8784375 375.85234375 162.8784375 375.85234375 164.8984375 380.90234375 C168.84503668 396.09675061 167.34696023 411.54901107 160.3359375 425.65234375 C152.19754515 439.22996315 139.3798826 450.18116734 123.95166016 454.43969727 C106.65193403 458.67509546 89.91889705 455.83544574 74.58544922 446.96630859 C61.60509613 438.77985725 52.86491884 424.9820637 49.31079102 410.19750977 C46.3956887 393.97200541 49.06074691 377.87073348 57.7265625 363.890625 C64.34752593 354.78084618 72.34482486 347.21457257 82.8984375 342.90234375 C83.5584375 342.90234375 84.2184375 342.90234375 84.8984375 342.90234375 C84.5684375 342.24234375 84.2384375 341.58234375 83.8984375 340.90234375 C83.65449618 339.42142748 83.45731036 337.93267791 83.28401375 336.44184303 C83.11659933 335.02574507 83.11659933 335.02574507 82.94580281 333.58103907 C82.82625166 332.53671225 82.70670052 331.49238544 82.58352661 330.41641235 C82.38940951 328.7604599 82.38940951 328.7604599 82.19137084 327.07105386 C81.75569193 323.34676647 81.32540218 319.62187553 80.89501953 315.89697266 C80.58481764 313.23633806 80.27430805 310.57574118 79.96337891 307.91519165 C79.29271571 302.17184636 78.62464091 296.42820475 77.9581337 290.68437576 C76.99278749 282.36645021 76.02180278 274.04918997 75.04912518 265.73211889 C73.46908169 252.22158401 71.89125322 238.7107917 70.31591797 225.19970703 C70.22157073 224.39053854 70.12722349 223.58137005 70.03001724 222.7476813 C68.69331839 211.2825236 67.35902256 199.81708756 66.02576242 188.35152952 C65.93202157 187.54539294 65.83828071 186.73925637 65.74169922 185.90869141 C65.64807429 185.10353889 65.55444937 184.29838638 65.45798732 183.46883531 C63.89407221 170.02089624 62.3240664 156.57367656 60.74908721 143.12702882 C59.77840135 134.83755026 58.81279133 126.54751183 57.8537793 118.25667445 C57.19514655 112.56620919 56.53078183 106.87643142 55.86199512 101.18715067 C55.47685388 97.90921458 55.09511242 94.63094599 54.71860886 91.352005 C54.3088024 87.78647695 53.88922553 84.22222479 53.46731567 80.65811157 C53.29468112 79.12508217 53.29468112 79.12508217 53.118559 77.56108248 C51.38089298 61.76742392 51.38089298 61.76742392 42.8984375 48.90234375 C35.62168375 44.22083504 27.5517642 42.25049596 19.2265625 40.2734375 C17.26896557 39.7900241 15.3113718 39.30659746 13.35396957 38.82239628 C9.9545518 37.98487459 6.5514002 37.16282127 3.1484375 36.33984375 C-0.933092 35.35263501 -5.01378219 34.36260787 -9.09014893 33.35426331 C-11.61835041 32.72996669 -14.14917149 32.1161591 -16.68280029 31.51426697 C-25.22717571 29.40237326 -30.92154433 27.38459222 -36.1015625 19.90234375 C-37.90066407 14.50503904 -37.79625154 9.80186091 -35.4765625 4.65234375 C-33.09369037 0.35134405 -29.92139029 -2.19306378 -25.19100952 -3.71055603 C-16.99718554 -5.22858019 -7.86685094 -2.00804414 0 0 Z M88.8984375 377.90234375 C82.3552886 385.94067762 81.0852379 392.62971943 81.8984375 402.90234375 C83.61550732 410.54794517 88.55645198 415.56576938 94.8984375 419.90234375 C101.66616148 423.26925818 108.12759354 423.86416418 115.3984375 421.71484375 C124.22126298 418.44934977 128.90984305 413.46845263 132.8984375 404.90234375 C134.73771254 397.50092371 134.29974418 390.73919845 130.8984375 383.90234375 C125.48098023 375.97963042 119.56090183 372.31795983 110.3984375 370.02734375 C101.96412426 369.72611828 95.22540453 372.27573517 88.8984375 377.90234375 Z M344.8984375 377.90234375 C338.3552886 385.94067762 337.0852379 392.62971943 337.8984375 402.90234375 C339.61550732 410.54794517 344.55645198 415.56576938 350.8984375 419.90234375 C357.66616148 423.26925818 364.12759354 423.86416418 371.3984375 421.71484375 C380.22126298 418.44934977 384.90984305 413.46845263 388.8984375 404.90234375 C390.73771254 397.50092371 390.29974418 390.73919845 386.8984375 383.90234375 C381.48098023 375.97963042 375.56090183 372.31795983 366.3984375 370.02734375 C357.96412426 369.72611828 351.22540453 372.27573517 344.8984375 377.90234375 Z " fill="#000000" transform="translate(63.1015625,30.09765625)"/>
<path d="M0 0 C1.19882812 0.0309375 1.19882812 0.0309375 2.421875 0.0625 C10.15359122 2.62549985 16.49905921 11.11359621 22.125 16.77734375 C22.93493408 17.58869278 23.74486816 18.40004181 24.5793457 19.23597717 C27.13861015 21.80079139 29.6943553 24.36907948 32.25 26.9375 C33.99586133 28.68838283 35.74195287 30.43903613 37.48828125 32.18945312 C41.74485198 36.45698616 45.99854716 40.72736866 50.25 45 C53.5424155 43.56300579 55.69176049 41.79290363 58.20483398 39.24047852 C59.3513871 38.08401573 59.3513871 38.08401573 60.52110291 36.90419006 C61.33784988 36.07084641 62.15459686 35.23750275 62.99609375 34.37890625 C63.84422134 33.52320541 64.69234894 32.66750458 65.56617737 31.78587341 C69.19497903 28.12436462 72.81189821 24.45119724 76.42993164 20.77905273 C79.07289972 18.09992849 81.7218284 15.42680121 84.37109375 12.75390625 C85.1858165 11.92258682 86.00053925 11.0912674 86.83995056 10.23475647 C87.99123192 9.07356544 87.99123192 9.07356544 89.16577148 7.88891602 C89.83543442 7.20877945 90.50509735 6.52864288 91.1950531 5.82789612 C96.40328084 1.1951247 101.34862819 -0.34664425 108.25 0 C113.60522424 1.54706478 117.22390912 4.27929822 120.25 9 C121.15402948 11.71208843 121.44179124 13.50392749 121.5 16.3125 C121.53867187 17.42044922 121.53867187 17.42044922 121.578125 18.55078125 C120.85508769 23.94773833 117.82310736 27.80142514 114.05395508 31.53662109 C113.21331009 32.37703949 112.3726651 33.21745789 111.50654602 34.08334351 C110.60333115 34.97107452 109.70011627 35.85880554 108.76953125 36.7734375 C107.84154221 37.6971817 106.91355316 38.6209259 105.95744324 39.57266235 C103.50302056 42.01568925 101.03972084 44.44956766 98.57440186 46.8815918 C96.05519832 49.36998032 93.54457878 51.86699715 91.03320312 54.36328125 C86.11379192 59.25062142 81.18493983 64.12834151 76.25 69 C77.7138111 72.38709624 79.58395706 74.56272739 82.20898438 77.13842773 C83.02322876 77.94283798 83.83747314 78.74724823 84.6763916 79.57603455 C85.55661987 80.43652908 86.43684814 81.29702362 87.34375 82.18359375 C89.19673247 84.01615685 91.04959332 85.84884293 92.90234375 87.68164062 C95.82865599 90.56651164 98.7593612 93.44689408 101.69189453 96.32543945 C104.52110685 99.10366766 107.33841666 101.89382491 110.15625 104.68359375 C111.03647827 105.54206406 111.91670654 106.40053436 112.8236084 107.28501892 C113.63785278 108.09258133 114.45209717 108.90014374 115.29101562 109.73217773 C116.00890259 110.43737045 116.72678955 111.14256317 117.46643066 111.86912537 C121.07298166 116.17796152 121.64448204 120.35292585 121.5 125.7890625 C120.98366065 130.35543863 119.15351783 133.14403574 115.875 136.25 C110.95281478 139.53145681 107.21074619 140.60617758 101.25 140 C93.80130595 137.04101232 89.04630973 132.32077425 83.5 126.640625 C82.60128174 125.73624695 81.70256348 124.8318689 80.77661133 123.90008545 C78.4085693 121.51353826 76.04958631 119.1187247 73.69464111 116.71929932 C71.2816952 114.26516746 68.85714438 111.82255806 66.43359375 109.37890625 C61.69505088 104.59639987 56.96812933 99.80264172 52.25 95 C48.86290376 96.4638111 46.68727261 98.33395706 44.11157227 100.95898438 C43.30716202 101.77322876 42.50275177 102.58747314 41.67396545 103.4263916 C40.81347092 104.30661987 39.95297638 105.18684814 39.06640625 106.09375 C37.23384315 107.94673247 35.40115707 109.79959332 33.56835938 111.65234375 C30.68348836 114.57865599 27.80310592 117.5093612 24.92456055 120.44189453 C22.14633234 123.27110685 19.35617509 126.08841666 16.56640625 128.90625 C15.70793594 129.78647827 14.84946564 130.66670654 13.96498108 131.5736084 C13.15741867 132.38785278 12.34985626 133.20209717 11.51782227 134.04101562 C10.81262955 134.75890259 10.10743683 135.47678955 9.38087463 136.21643066 C5.34052556 139.59825454 1.48328991 140.41382223 -3.765625 140.24609375 C-8.49443349 139.65964703 -11.55172307 137.4558079 -14.5625 133.9375 C-17.35538209 130.18705833 -17.94173431 128.42066462 -18.0625 123.8125 C-18.09988281 122.89082031 -18.13726562 121.96914062 -18.17578125 121.01953125 C-16.99712649 112.66081447 -10.33910297 107.19228586 -4.609375 101.56640625 C-3.28610199 100.2495005 -3.28610199 100.2495005 -1.93609619 98.9059906 C0.39297775 96.59080261 2.72838866 94.28227277 5.06713867 91.97686768 C7.45911159 89.61576747 9.8424504 87.24598585 12.2265625 84.87695312 C16.89318247 80.24331874 21.56827228 75.61836664 26.25 71 C24.81400605 67.70801459 23.04792417 65.56769699 20.49047852 63.06103516 C19.71950333 62.2998941 18.94852814 61.53875305 18.15419006 60.75454712 C17.32084641 59.94093719 16.48750275 59.12732727 15.62890625 58.2890625 C13.87162512 56.55220441 12.11446748 54.81522136 10.35742188 53.078125 C7.5838156 50.34800604 4.80780151 47.62039259 2.02905273 44.89550781 C-0.65245954 42.26232609 -3.32466212 39.61996504 -5.99609375 36.9765625 C-6.82741318 36.16700104 -7.6587326 35.35743958 -8.51524353 34.52334595 C-13.16675368 29.91198589 -17.13628638 25.93661347 -18.18359375 19.21875 C-18.19210479 13.29506542 -17.89004919 9.58762207 -13.75 5 C-9.31248384 0.89529756 -5.98564924 -0.30500124 0 0 Z " fill="#000000" transform="translate(353.75,58)"/>
</svg>
