<?xml version="1.0" encoding="UTF-8"?>
<svg version="1.1" xmlns="http://www.w3.org/2000/svg" width="512" height="512">
<path d="M0 0 C1.47239547 -0.00072232 1.47239547 -0.00072232 2.9745363 -0.00145924 C16.78002004 -0.00678264 30.57835231 0.06494261 44.38061523 0.39526367 C47.23141998 0.4630795 50.08232725 0.52170227 52.93334961 0.57958984 C61.91853409 0.77173839 70.89776926 1.04217887 79.87475586 1.47607422 C81.02805389 1.5277903 81.02805389 1.5277903 82.20465088 1.58055115 C93.51684239 2.17642376 105.37471689 5.52705821 113.37084961 14.02294922 C119.54545456 21.66402284 123.51572635 30.13468579 123.37084961 40.02294922 C124.52907227 40.00200195 125.68729492 39.98105469 126.88061523 39.95947266 C131.25662431 39.88602354 135.63258133 39.84077587 140.0090332 39.80322266 C141.88835875 39.7833424 143.76762444 39.75622835 145.64672852 39.72119141 C165.79793379 39.3553927 184.10980142 42.18151669 200.02319336 55.74951172 C217.27064294 72.45170083 240.37535897 110.5255414 240.87084961 135.14794922 C240.99972807 146.944234 239.13910386 158.31129699 237.12084961 169.89794922 C236.89546509 171.19928802 236.89546509 171.19928802 236.66552734 172.5269165 C230.81438684 205.94229099 230.81438684 205.94229099 225.55834961 215.52294922 C225.04014648 216.50690674 225.04014648 216.50690674 224.51147461 217.51074219 C218.69199912 228.2783706 211.70547681 236.60713166 199.83959961 240.57763672 C196.31991488 241.21251656 192.94583258 241.09054343 189.37084961 241.02294922 C189.11561523 239.33878906 189.11561523 239.33878906 188.85522461 237.62060547 C187.04233373 225.86986206 187.04233373 225.86986206 182.37084961 215.02294922 C181.92741211 214.25595703 181.48397461 213.48896484 181.02709961 212.69873047 C174.5345104 202.25187815 165.31527402 196.41849873 153.56225586 192.87451172 C137.34160973 189.11454245 120.78595882 192.7787364 106.53881836 200.91748047 C90.44930713 211.61075612 82.03048879 226.26391141 75.37084961 244.02294922 C41.38084961 244.02294922 7.39084961 244.02294922 -27.62915039 244.02294922 C-27.95915039 239.07294922 -28.28915039 234.12294922 -28.62915039 229.02294922 C-31.86325283 216.45970512 -37.96357005 206.6363762 -48.62915039 199.02294922 C-61.94006567 191.56048174 -76.92634055 189.89133724 -91.81665039 193.02294922 C-103.73241372 196.55966677 -114.02466838 203.12068004 -122.62915039 212.02294922 C-123.61334961 213.02841797 -123.61334961 213.02841797 -124.61743164 214.05419922 C-130.49051483 220.39260163 -134.00252624 227.37698366 -137.27758789 235.31982422 C-137.94153564 236.92615723 -137.94153564 236.92615723 -138.61889648 238.56494141 C-138.95228027 239.37608398 -139.28566406 240.18722656 -139.62915039 241.02294922 C-148.76546714 241.09259244 -157.90169189 241.14583298 -167.03821659 241.17838573 C-171.28110726 241.19401285 -175.52381573 241.21519678 -179.76660156 241.24926758 C-183.86444822 241.28196692 -187.9621201 241.29982444 -192.0600872 241.30758095 C-193.62012926 241.31310554 -195.18016222 241.32389369 -196.74012947 241.34013939 C-198.93259149 241.36205497 -201.12433984 241.36491036 -203.31689453 241.36352539 C-204.56265762 241.37018723 -205.80842072 241.37684906 -207.0919342 241.38371277 C-212.34444505 240.84800492 -216.16301343 239.15587323 -220.37915039 235.89794922 C-223.7659464 231.57037654 -225.70501812 227.26358488 -225.57446289 221.68701172 C-224.61505163 215.950124 -222.01994245 211.81499691 -217.62915039 208.02294922 C-214.19791744 205.88289829 -211.36435837 205.74678484 -207.35961914 205.67919922 C-206.14081055 205.64955078 -204.92200195 205.61990234 -203.66625977 205.58935547 C-202.39588867 205.56744141 -201.12551758 205.54552734 -199.81665039 205.52294922 C-187.0930096 205.8432507 -187.0930096 205.8432507 -175.87915039 200.83544922 C-172.42177145 196.51372554 -170.25222374 192.57653621 -170.69165039 186.96044922 C-171.61307246 181.8480429 -173.90886585 178.27015551 -178.12915039 175.21044922 C-182.73501056 173.02266564 -186.91996963 172.8772203 -191.96459961 172.88110352 C-192.69681732 172.87762909 -193.42903503 172.87415466 -194.18344116 172.87057495 C-195.77014282 172.86323603 -197.35685463 172.85788074 -198.94356918 172.85428429 C-201.45759083 172.84710009 -203.97141942 172.83141946 -206.48538208 172.8129425 C-213.63207371 172.76056135 -220.77865756 172.7124972 -227.92553711 172.69702148 C-232.30052188 172.68692785 -236.67501727 172.65757171 -241.0498085 172.61570168 C-242.71388164 172.60340949 -244.37802392 172.59826717 -246.04214096 172.60050011 C-248.37359431 172.602859 -250.70364826 172.58064542 -253.03491211 172.55297852 C-253.7177124 172.55957993 -254.4005127 172.56618134 -255.10400391 172.57298279 C-260.0357784 172.47719914 -262.81074006 171.07055891 -266.62915039 168.02294922 C-271.616246 162.36192177 -272.03453057 158.7631728 -271.97680664 151.30029297 C-271.49051341 146.71602306 -270.01019462 144.08990737 -266.62915039 141.02294922 C-261.36394177 137.17035754 -256.66132869 136.87620189 -250.29370117 136.88110352 C-249.56148346 136.87762909 -248.82926575 136.87415466 -248.07485962 136.87057495 C-246.48815796 136.86323603 -244.90144615 136.85788074 -243.3147316 136.85428429 C-240.80070995 136.84710009 -238.28688136 136.83141946 -235.7729187 136.8129425 C-228.62622707 136.76056135 -221.47964322 136.7124972 -214.33276367 136.69702148 C-209.9577789 136.68692785 -205.58328351 136.65757171 -201.20849228 136.61570168 C-199.54441914 136.60340949 -197.88027686 136.59826717 -196.21615982 136.60050011 C-193.88470647 136.602859 -191.55465252 136.58064542 -189.22338867 136.55297852 C-188.54058838 136.55957993 -187.85778809 136.56618134 -187.15429688 136.57298279 C-181.38351986 136.46090425 -178.17569484 134.09688171 -173.84008789 130.56591797 C-171.25933837 127.27754358 -170.87647971 123.09483437 -170.62915039 119.02294922 C-171.34347846 114.6091537 -172.85070544 111.80139417 -176.00415039 108.64794922 C-180.57980545 105.81540085 -184.21032362 104.77910679 -189.59399414 104.71435547 C-191.28878906 104.67665039 -191.28878906 104.67665039 -193.01782227 104.63818359 C-195.3797474 104.60308619 -197.74173268 104.5718232 -200.10375977 104.54443359 C-207.80536289 104.3645101 -212.7856185 103.93110683 -218.37915039 98.21044922 C-222.19301701 92.80747151 -223.1011932 88.65365238 -222.16821289 82.19873047 C-220.79781887 76.66750244 -217.18333517 73.17584637 -212.62915039 70.02294922 C-209.49245755 68.97738494 -207.22234411 68.88322291 -203.92993164 68.84716797 C-202.80264648 68.82332031 -201.67536133 68.79947266 -200.51391602 68.77490234 C-198.15211453 68.73228919 -195.79008229 68.70084748 -193.42797852 68.68115234 C-186.38942253 68.50908986 -181.5978545 67.84994186 -175.62915039 64.02294922 C-171.87033246 59.78223155 -170.36820893 55.63319073 -170.62915039 50.02294922 C-172.32617929 44.13326069 -174.82557062 41.49787927 -179.62915039 38.02294922 C-183.04758156 36.31373363 -186.96705089 36.84312275 -190.73071289 36.81201172 C-192.60181512 36.78392542 -194.47290875 36.75526085 -196.34399414 36.72607422 C-199.29304603 36.68494515 -202.24194031 36.64805884 -205.19116211 36.62158203 C-208.03801776 36.59380783 -210.88414291 36.54791777 -213.73071289 36.49951172 C-214.60184723 36.49625885 -215.47298157 36.49300598 -216.37051392 36.48965454 C-222.72749576 36.3633518 -228.64320255 35.52729257 -233.68774414 31.29638672 C-237.27405067 26.35886555 -239.07269787 22.20015928 -238.62915039 16.02294922 C-237.58166969 10.11602196 -234.89227768 6.81556796 -230.25024414 3.15185547 C-226.61959424 0.62352337 -223.35455679 0.87035661 -219.07417297 0.86473083 C-218.28483169 0.85979286 -217.49549041 0.85485488 -216.6822297 0.84976727 C-214.02041444 0.83433572 -211.35862345 0.82601479 -208.69677734 0.81762695 C-206.79246813 0.80804928 -204.88816104 0.79803926 -202.9838562 0.78762817 C-197.78471744 0.76047255 -192.58556959 0.73949818 -187.38639855 0.71962619 C-181.90571 0.69769111 -176.42504856 0.67030796 -170.94438171 0.64356995 C-161.69079825 0.59919575 -152.43720462 0.55847698 -143.18359375 0.52026367 C-130.3076548 0.46708154 -117.43175425 0.40712878 -104.55585158 0.34586799 C-95.49903217 0.30306419 -86.44220451 0.2620445 -77.38537574 0.22127652 C-75.22910022 0.21155494 -73.07282494 0.2017795 -70.91654992 0.19194674 C-47.27769646 0.08429737 -23.63911977 0.00574409 0 0 Z M122.37084961 64.02294922 C120.72827551 71.59226644 119.61014403 79.17270887 118.64428711 86.85498047 C118.49174469 88.0497551 118.33920227 89.24452972 118.18203735 90.47550964 C117.86269694 92.98385858 117.54512752 95.49243357 117.22924805 98.0012207 C116.74504808 101.84180684 116.25364571 105.68142422 115.76147461 109.52099609 C115.45114965 111.96560312 115.14123928 114.41026281 114.83178711 116.85498047 C114.68494476 118.00086136 114.53810242 119.14674225 114.3868103 120.3273468 C114.25312042 121.39583359 114.11943054 122.46432037 113.98168945 123.56518555 C113.86336761 124.50098953 113.74504578 125.43679352 113.62313843 126.4009552 C113.3768726 128.96035332 113.32541345 131.45359077 113.37084961 134.02294922 C124.74089052 134.13885847 136.11079061 134.22767267 147.48130226 134.28201008 C152.76126618 134.30809098 158.04082555 134.34346194 163.32055664 134.40014648 C168.41693466 134.45451937 173.51292384 134.4843811 178.60956955 134.49733543 C180.55285131 134.50656579 182.49611207 134.52459083 184.43922806 134.5515995 C187.16380859 134.58796017 189.88678769 134.59289167 192.61157227 134.59057617 C193.81351227 134.61754074 193.81351227 134.61754074 195.03973389 134.64505005 C200.83180089 134.59187644 203.30771158 133.15517264 207.37084961 129.02294922 C209.17572563 126.59029023 209.40320853 125.53122103 209.21069336 122.50732422 C208.0415047 117.6565508 205.84135208 113.59324515 203.49584961 109.21044922 C203.00769775 108.28989746 202.5195459 107.3693457 202.01660156 106.42089844 C198.74925177 100.35288837 195.29049906 94.44143758 191.55834961 88.64794922 C191.12731934 87.97787842 190.69628906 87.30780762 190.25219727 86.61743164 C186.22492513 80.52412112 182.02773581 74.51388277 175.62084961 70.77294922 C174.86288086 70.31404297 174.10491211 69.85513672 173.32397461 69.38232422 C162.63398253 64.46153421 152.31656886 64.48445144 140.74584961 64.33544922 C138.96066911 64.30222223 137.17551173 64.26772774 135.39038086 64.23193359 C131.05066582 64.14764755 126.7109975 64.08055054 122.37084961 64.02294922 Z " fill="#F8C358" transform="translate(271.629150390625,112.97705078125)"/>
<path d="M0 0 C6.79279475 5.59406626 10.79584622 13.70316184 11.671875 22.39453125 C11.79163985 23.9289119 11.90460265 25.4639118 12 27 C13.15822266 26.97905273 14.31644531 26.95810547 15.50976562 26.93652344 C19.8857747 26.86307432 24.26173173 26.81782665 28.63818359 26.78027344 C30.51750914 26.76039318 32.39677483 26.73327913 34.27587891 26.69824219 C54.42708418 26.33244348 72.73895181 29.15856747 88.65234375 42.7265625 C105.89979333 59.42875161 129.00450936 97.50259218 129.5 122.125 C129.62887846 133.92128478 127.76825425 145.28834778 125.75 156.875 C125.52461548 158.17633881 125.52461548 158.17633881 125.29467773 159.50396729 C119.44353724 192.91934177 119.44353724 192.91934177 114.1875 202.5 C113.66929687 203.48395752 113.66929687 203.48395752 113.140625 204.48779297 C107.32114951 215.25542138 100.3346272 223.58418244 88.46875 227.5546875 C84.94906527 228.18956734 81.57498297 228.06759422 78 228 C77.74476563 226.31583984 77.74476563 226.31583984 77.484375 224.59765625 C75.67148412 212.84691284 75.67148412 212.84691284 71 202 C70.5565625 201.23300781 70.113125 200.46601563 69.65625 199.67578125 C63.16366079 189.22892894 53.94442441 183.39554952 42.19140625 179.8515625 C25.97076012 176.09159323 9.41510921 179.75578719 -4.83203125 187.89453125 C-20.92154248 198.5878069 -29.34036082 213.24096219 -36 231 C-69.99 231 -103.98 231 -139 231 C-139.495 223.575 -139.495 223.575 -140 216 C-143.44897422 202.60206169 -150.4277564 191.68120795 -162.52734375 184.5 C-169.68955517 180.96622168 -177.17730483 179.40465913 -185 178 C-182.24256835 175.24256835 -179.01529021 174.62298078 -175.375 173.5 C-142.7573014 162.97966716 -113.67514819 146.75226871 -86.92431641 125.44116211 C-85.97177979 124.72778687 -85.97177979 124.72778687 -85 124 C-84.12158447 123.28859863 -83.24316895 122.57719727 -82.33813477 121.84423828 C-77.99922233 119.44709467 -74.84575642 119.5351981 -69.98828125 119.71484375 C-69.1382402 119.72761856 -68.28819916 119.74039337 -67.41239929 119.7535553 C-64.71165316 119.79561024 -62.01256162 119.86404368 -59.3125 119.9375 C-56.60182252 120.00552534 -53.8916562 120.06743842 -51.1804657 120.11073303 C-49.49738831 120.13801353 -47.81446916 120.17969249 -46.13215637 120.23728943 C-41.93119927 120.43363229 -41.93119927 120.43363229 -38.27262878 118.68190002 C-36.38515489 116.18742368 -36.79799568 114.03006476 -37 111 C-39.79120091 109.60439955 -42.20205692 109.78191712 -45.3203125 109.68359375 C-46.57714844 109.64169922 -47.83398438 109.59980469 -49.12890625 109.55664062 C-50.44761719 109.51732422 -51.76632812 109.47800781 -53.125 109.4375 C-54.46485751 109.39430488 -55.80470156 109.35069027 -57.14453125 109.30664062 C-60.42957815 109.20029019 -63.71470281 109.09826192 -67 109 C-66.85805236 106.93722893 -66.71127784 104.87478969 -66.5625 102.8125 C-66.44068359 101.08966797 -66.44068359 101.08966797 -66.31640625 99.33203125 C-66.04596188 96.48401829 -65.62478253 93.78789518 -65 91 C-64.31897217 90.98541748 -63.63794434 90.97083496 -62.9362793 90.95581055 C-59.85277785 90.88137304 -56.77036433 90.78469917 -53.6875 90.6875 C-52.61564453 90.66494141 -51.54378906 90.64238281 -50.43945312 90.61914062 C-48.89741211 90.5659668 -48.89741211 90.5659668 -47.32421875 90.51171875 C-46.37635498 90.48553467 -45.42849121 90.45935059 -44.4519043 90.43237305 C-41.60340463 89.93006369 -40.66906843 89.33381159 -39 87 C-38.5832448 83.95788569 -38.5832448 83.95788569 -39 81 C-41.52128356 78.47871644 -42.51239013 78.70646931 -46.0078125 78.5859375 C-46.99394531 78.54726562 -47.98007812 78.50859375 -48.99609375 78.46875 C-50.02863281 78.4378125 -51.06117188 78.406875 -52.125 78.375 C-53.16527344 78.33632812 -54.20554687 78.29765625 -55.27734375 78.2578125 C-57.85138311 78.16335234 -60.42541155 78.07778786 -63 78 C-62.85973717 75.68715544 -62.71264442 73.37472409 -62.5625 71.0625 C-62.44068359 69.13083984 -62.44068359 69.13083984 -62.31640625 67.16015625 C-62 64 -62 64 -61 63 C-58.81707872 62.89019244 -56.63090365 62.84407737 -54.4453125 62.82421875 C-53.09503652 62.80101874 -51.74477606 62.77690132 -50.39453125 62.75195312 C-48.2591722 62.71683047 -46.12438228 62.68749612 -43.98876953 62.67407227 C-41.93191054 62.65860179 -39.87672881 62.61840172 -37.8203125 62.57421875 C-36.58555176 62.55963623 -35.35079102 62.54505371 -34.07861328 62.5300293 C-30.89851193 62.3130684 -30.89851193 62.3130684 -29.19873047 59.96411133 C-28.80314941 59.31595459 -28.40756836 58.66779785 -28 58 C-27.34 58 -26.68 58 -26 58 C-25.72091797 57.26692627 -25.44183594 56.53385254 -25.15429688 55.77856445 C-24.09471638 53.22799642 -22.90985205 50.93194098 -21.53125 48.54296875 C-12.83902083 33.21369471 -4.43864449 17.15798596 0 0 Z M11 51 C9.3574259 58.56931722 8.23929442 66.14975966 7.2734375 73.83203125 C7.12089508 75.02680588 6.96835266 76.22158051 6.81118774 77.45256042 C6.49184733 79.96090937 6.17427791 82.46948435 5.85839844 84.97827148 C5.37419847 88.81885762 4.8827961 92.658475 4.390625 96.49804688 C4.08030004 98.9426539 3.77038967 101.38731359 3.4609375 103.83203125 C3.31409515 104.97791214 3.16725281 106.12379303 3.01596069 107.30439758 C2.88227081 108.37288437 2.74858093 109.44137115 2.61083984 110.54223633 C2.49251801 111.47804031 2.37419617 112.4138443 2.25228882 113.37800598 C2.00602299 115.9374041 1.95456384 118.43064155 2 121 C13.37004091 121.11590926 24.739941 121.20472345 36.11045265 121.25906086 C41.39041657 121.28514176 46.66997594 121.32051272 51.94970703 121.37719727 C57.04608505 121.43157015 62.14207423 121.46143188 67.23871994 121.47438622 C69.1820017 121.48361658 71.12526246 121.50164161 73.06837845 121.52865028 C75.79295898 121.56501095 78.51593808 121.56994245 81.24072266 121.56762695 C82.44266266 121.59459152 82.44266266 121.59459152 83.66888428 121.62210083 C89.46095128 121.56892722 91.93686198 120.13222342 96 116 C97.80487602 113.56734101 98.03235892 112.50827181 97.83984375 109.484375 C96.67065509 104.63360158 94.47050247 100.57029593 92.125 96.1875 C91.63684814 95.26694824 91.14869629 94.34639648 90.64575195 93.39794922 C87.37840216 87.32993915 83.91964945 81.41848836 80.1875 75.625 C79.75646973 74.9549292 79.32543945 74.2848584 78.88134766 73.59448242 C74.85407552 67.5011719 70.6568862 61.49093355 64.25 57.75 C63.49203125 57.29109375 62.7340625 56.8321875 61.953125 56.359375 C51.26313292 51.43858499 40.94571925 51.46150222 29.375 51.3125 C27.5898195 51.27927302 25.80466212 51.24477852 24.01953125 51.20898438 C19.67981621 51.12469834 15.3401479 51.05760132 11 51 Z " fill="#FAAB48" transform="translate(383,126)"/>
<path d="M0 0 C9.05213177 7.47784798 13.39618421 14.85618569 15.21484375 26.5625 C15.83334761 38.4377741 10.19726287 48.25179426 3.625 57.5625 C-5.64263827 67.04076641 -16.01492512 71.71137393 -29.1875 71.875 C-38.7670907 71.76538918 -46.44201646 69.75757425 -53.59375 63.078125 C-61.19517305 54.623481 -62.70481038 45.68669711 -62.4296875 34.63671875 C-61.87876481 24.29895038 -56.98003257 15.95342797 -50.125 8.375 C-35.87461353 -4.32041156 -17.4558014 -9.07701673 0 0 Z " fill="#444464" transform="translate(211.125,326.625)"/>
<path d="M0 0 C7.49284768 5.99427814 11.72149705 11.45424042 14.5625 20.6875 C15.88997495 34.29411822 12.56027949 46.53111936 3.8125 57.25 C-4.83247016 66.13011335 -14.62482839 71.26569414 -27.06079102 71.78637695 C-34.47249447 71.86784098 -40.86656861 71.4726969 -47.1875 67.25 C-47.89132812 66.81429687 -48.59515625 66.37859375 -49.3203125 65.9296875 C-56.69429029 60.95021172 -60.1395552 54.8280144 -62.1875 46.25 C-63.41235618 32.40627672 -61.12858539 22.00871479 -52.51953125 10.828125 C-39.11585717 -3.99000715 -17.99368965 -9.87888843 0 0 Z " fill="#454564" transform="translate(427.1875,326.75)"/>
<path d="M0 0 C-0.72703125 0.36609375 -1.4540625 0.7321875 -2.203125 1.109375 C-16.7442086 8.93918924 -27.14788227 20.39473985 -33.1640625 35.79296875 C-33.43839111 36.48724976 -33.71271973 37.18153076 -33.99536133 37.89685059 C-34.6665404 39.59673222 -35.33368119 41.29820737 -36 43 C-45.13631675 43.06964322 -54.2725415 43.12288376 -63.4090662 43.15543652 C-67.65195687 43.17106363 -71.89466534 43.19224757 -76.13745117 43.22631836 C-80.23529783 43.2590177 -84.33296971 43.27687523 -88.43093681 43.28463173 C-89.99097887 43.29015632 -91.55101183 43.30094447 -93.11097908 43.31719017 C-95.3034411 43.33910575 -97.49518945 43.34196114 -99.68774414 43.34057617 C-100.93350723 43.34723801 -102.17927032 43.35389984 -103.46278381 43.36076355 C-108.71529466 42.82505571 -112.53386304 41.13292401 -116.75 37.875 C-120.13679601 33.54742732 -122.07586772 29.24063566 -121.9453125 23.6640625 C-120.98590124 17.92717478 -118.39079206 13.79204769 -114 10 C-110.56876705 7.85994907 -107.73520798 7.72383562 -103.73046875 7.65625 C-101.90225586 7.61177734 -101.90225586 7.61177734 -100.03710938 7.56640625 C-98.13155273 7.53353516 -98.13155273 7.53353516 -96.1875 7.5 C-82.99671483 7.9182013 -82.99671483 7.9182013 -71.5625 2.375 C-70.716875 1.59125 -69.87125 0.8075 -69 0 C-69 0.66 -69 1.32 -69 2 C-47.88285765 2.32856002 -27.26391801 2.31813572 -6.32958984 -0.83813477 C-3.96153791 -1.00267243 -2.25016087 -0.7122367 0 0 Z " fill="#FAAA48" transform="translate(168,311)"/>
<path d="M0 0 C1.02278046 -0.00149551 1.02278046 -0.00149551 2.06622314 -0.00302124 C3.50520511 0.00164371 4.94420586 0.02100556 6.3828125 0.05419922 C8.55881843 0.10114597 10.72987016 0.09534998 12.90625 0.08203125 C21.10287736 0.11520169 29.03910309 0.40828133 35.43261719 6.17333984 C39.78997385 11.02314794 40.18875086 15.66358087 40.10546875 21.9375 C39.3628822 29.40520133 36.40737681 35.78251239 31.48828125 41.38671875 C29.4231855 43.0533725 27.31708571 43.84637165 24.828125 44.7265625 C25.27285156 45.80035156 25.71757812 46.87414062 26.17578125 47.98046875 C26.74824774 49.41632731 27.31981484 50.85254468 27.890625 52.2890625 C28.18517578 52.99353516 28.47972656 53.69800781 28.78320312 54.42382812 C30.67225789 59.24647381 31.09056023 62.54599926 29.828125 67.7265625 C28.703125 69.6640625 28.703125 69.6640625 26.828125 70.7265625 C23.328125 71.1640625 23.328125 71.1640625 19.828125 70.7265625 C16.18685286 67.25378111 15.1166161 62.14142326 13.640625 57.4765625 C13.36798828 56.63609375 13.09535156 55.795625 12.81445312 54.9296875 C12.14551029 52.8641798 11.48589243 50.79565616 10.828125 48.7265625 C5.878125 48.3965625 0.928125 48.0665625 -4.171875 47.7265625 C-4.295625 49.5415625 -4.419375 51.3565625 -4.546875 53.2265625 C-5.64631373 65.9830639 -5.64631373 65.9830639 -8.921875 69.7265625 C-11.89177969 71.04652014 -13.95611508 71.13708504 -17.171875 70.7265625 C-18.86767578 69.54174805 -18.86767578 69.54174805 -20.171875 67.7265625 C-20.31201172 65.24145508 -20.31201172 65.24145508 -19.9765625 62.30859375 C-19.85764648 61.23561035 -19.73873047 60.16262695 -19.61621094 59.05712891 C-18.91870787 53.82892186 -18.1449309 48.6199502 -17.296875 43.4140625 C-16.2091238 36.6656052 -15.16018927 29.93309015 -14.41796875 23.13671875 C-14.30114746 22.09878174 -14.18432617 21.06084473 -14.06396484 19.99145508 C-13.84992183 18.0335164 -13.65264839 16.07364512 -13.47509766 14.11206055 C-13.32693604 12.78428589 -13.32693604 12.78428589 -13.17578125 11.4296875 C-13.10174072 10.66301758 -13.0277002 9.89634766 -12.95141602 9.10644531 C-10.70005541 2.23320286 -6.96688919 -0.03303959 0 0 Z " fill="#FEFDFB" transform="translate(204.171875,176.2734375)"/>
<path d="M0 0 C1.25025719 -0.00855011 1.25025719 -0.00855011 2.52577209 -0.01727295 C4.29019907 -0.02672544 6.05464371 -0.03325792 7.8190918 -0.03710938 C10.5209826 -0.04682404 13.22211565 -0.07784804 15.92382812 -0.109375 C17.63671422 -0.11590413 19.34960577 -0.12115496 21.0625 -0.125 C21.87194565 -0.1373468 22.6813913 -0.1496936 23.5153656 -0.16241455 C29.16947002 -0.13991306 29.16947002 -0.13991306 31.30763245 1.57305908 C32.59765625 3.203125 32.59765625 3.203125 33.03515625 5.640625 C32.44610556 9.09077902 31.35110383 10.07073902 28.59765625 12.203125 C25.38964844 12.65722656 25.38964844 12.65722656 21.64453125 12.59375 C20.98430969 12.58809021 20.32408813 12.58243042 19.64385986 12.57659912 C17.54437362 12.5542873 15.44662255 12.50410814 13.34765625 12.453125 C11.92059765 12.43305294 10.49351217 12.41480339 9.06640625 12.3984375 C5.57562406 12.35784701 2.08857144 12.2795684 -1.40234375 12.203125 C-1.73234375 17.153125 -2.06234375 22.103125 -2.40234375 27.203125 C-0.9328125 27.16832031 0.53671875 27.13351563 2.05078125 27.09765625 C3.98306148 27.06951625 5.91535408 27.04221631 7.84765625 27.015625 C9.29978516 26.97791992 9.29978516 26.97791992 10.78125 26.93945312 C12.18310547 26.92495117 12.18310547 26.92495117 13.61328125 26.91015625 C14.47211914 26.8944458 15.33095703 26.87873535 16.21582031 26.86254883 C19.08049441 27.27216551 20.44828789 28.316989 22.59765625 30.203125 C22.10796156 36.69157967 22.10796156 36.69157967 19.88964844 38.9152832 C17.09920587 40.48319805 15.36274669 40.54920984 12.17578125 40.49609375 C10.63857422 40.4815918 10.63857422 40.4815918 9.0703125 40.46679688 C8.00683594 40.44166016 6.94335938 40.41652344 5.84765625 40.390625 C4.22923828 40.37032227 4.22923828 40.37032227 2.578125 40.34960938 C-0.08253795 40.31429084 -2.74218671 40.26496699 -5.40234375 40.203125 C-5.46292969 41.25113281 -5.52351563 42.29914063 -5.5859375 43.37890625 C-5.67036113 44.75782548 -5.75500822 46.13673105 -5.83984375 47.515625 C-5.89881836 48.55106445 -5.89881836 48.55106445 -5.95898438 49.60742188 C-6.1516179 52.67474035 -6.42557092 55.27280652 -7.40234375 58.203125 C-6.10031006 58.18741455 -6.10031006 58.18741455 -4.77197266 58.17138672 C-1.55534847 58.13732784 1.66118392 58.11223733 4.87792969 58.09326172 C6.27086406 58.08319623 7.66377727 58.06954266 9.05664062 58.05224609 C11.05719985 58.0280228 13.0579124 58.01771686 15.05859375 58.0078125 C16.86529541 57.99210205 16.86529541 57.99210205 18.70849609 57.97607422 C21.59765625 58.203125 21.59765625 58.203125 23.59765625 60.203125 C23.97265625 63.640625 23.97265625 63.640625 23.59765625 67.203125 C21.11107011 70.04388728 19.49433962 70.21342234 15.70288086 70.59130859 C14.13537451 70.61105157 12.56758565 70.61344479 11 70.6015625 C10.1693251 70.60443268 9.33865021 70.60730286 8.48280334 70.61026001 C6.73030921 70.61229797 4.97779219 70.60678681 3.2253418 70.59423828 C0.54098815 70.57815993 -2.14186455 70.59410587 -4.82617188 70.61328125 C-6.52995124 70.61129917 -8.23372967 70.60745622 -9.9375 70.6015625 C-10.74067154 70.60763519 -11.54384308 70.61370789 -12.37135315 70.6199646 C-17.79455249 70.5513706 -17.79455249 70.5513706 -20.43994141 69.03564453 C-21.84844189 66.35370525 -21.55815671 64.49590709 -21.265625 61.484375 C-21.14654785 60.23140625 -21.0274707 58.9784375 -20.90478516 57.6875 C-20.73973098 56.19243848 -20.57204682 54.69766597 -20.40234375 53.203125 C-20.30822205 52.3471875 -20.21410034 51.49125 -20.11712646 50.609375 C-19.45809171 44.67373934 -18.73794887 38.74742034 -17.9831543 32.82324219 C-17.71925252 30.72971973 -17.46250397 28.63528407 -17.21264648 26.54003906 C-16.84734222 23.47767084 -16.46123668 20.4185655 -16.0703125 17.359375 C-15.96285202 16.42806763 -15.85539154 15.49676025 -15.74467468 14.53723145 C-15.01369473 9.04953088 -13.97004055 5.48936119 -10.40234375 1.203125 C-7.15125857 -0.42241759 -3.57338469 0.01871474 0 0 Z " fill="#FEFDFB" transform="translate(268.40234375,176.796875)"/>
<path d="M0 0 C1.21696312 -0.00855011 1.21696312 -0.00855011 2.45851135 -0.01727295 C4.17585952 -0.02672486 5.89322584 -0.03325769 7.6105957 -0.03710938 C10.24006674 -0.04682387 12.86875908 -0.07784818 15.49804688 -0.109375 C17.16535993 -0.11590418 18.83267859 -0.12115498 20.5 -0.125 C21.6813578 -0.1435202 21.6813578 -0.1435202 22.88658142 -0.16241455 C28.30212437 -0.14027466 28.30212437 -0.14027466 30.81274414 1.53613281 C32.3985142 4.16995377 32.19081876 6.20782496 31.81640625 9.203125 C30.72143555 10.85864258 30.72143555 10.85864258 28.81640625 12.203125 C25.72192383 12.63549805 25.72192383 12.63549805 21.9609375 12.71484375 C21.29930099 12.73279495 20.63766449 12.75074615 19.95597839 12.76924133 C17.84701878 12.82333398 15.73828526 12.85723431 13.62890625 12.890625 C12.19723417 12.92379927 10.76559192 12.95828905 9.33398438 12.99414062 C5.82809276 13.08153387 2.32322909 13.14160179 -1.18359375 13.203125 C-1.84359375 17.823125 -2.50359375 22.443125 -3.18359375 27.203125 C-1.63027344 27.16832031 -0.07695312 27.13351563 1.5234375 27.09765625 C3.55858296 27.0695206 5.59374008 27.0422202 7.62890625 27.015625 C8.65306641 26.99048828 9.67722656 26.96535156 10.73242188 26.93945312 C12.20678711 26.92495117 12.20678711 26.92495117 13.7109375 26.91015625 C14.61690674 26.8944458 15.52287598 26.87873535 16.45629883 26.86254883 C18.81640625 27.203125 18.81640625 27.203125 20.6081543 28.5378418 C22.51170739 31.16142953 22.26540519 33.0601324 21.81640625 36.203125 C19.75527035 38.84838848 18.59401995 40.06548116 15.25097656 40.65722656 C14.30834961 40.6362793 13.36572266 40.61533203 12.39453125 40.59375 C10.85732422 40.57441406 10.85732422 40.57441406 9.2890625 40.5546875 C7.69384766 40.50441406 7.69384766 40.50441406 6.06640625 40.453125 C4.44798828 40.42605469 4.44798828 40.42605469 2.796875 40.3984375 C0.13581837 40.35133915 -2.52343629 40.285581 -5.18359375 40.203125 C-5.27447266 41.39808594 -5.27447266 41.39808594 -5.3671875 42.6171875 C-5.45097656 43.67679688 -5.53476562 44.73640625 -5.62109375 45.828125 C-5.70230469 46.87226563 -5.78351563 47.91640625 -5.8671875 48.9921875 C-6.17314186 52.09705763 -6.65628789 55.12936342 -7.18359375 58.203125 C-5.93485474 58.18741455 -5.93485474 58.18741455 -4.66088867 58.17138672 C-1.56910219 58.13728058 1.52258833 58.11221424 4.61450195 58.09326172 C6.60960243 58.07827005 8.60461571 58.05285769 10.59960938 58.02734375 C12.4800293 58.01767578 12.4800293 58.01767578 14.3984375 58.0078125 C15.55577393 57.99733887 16.71311035 57.98686523 17.90551758 57.97607422 C20.81640625 58.203125 20.81640625 58.203125 23.81640625 60.203125 C24.34019149 63.64514227 24.32388685 65.45990551 22.34008789 68.36523438 C18.64911313 71.05321522 15.46050623 70.77825769 11 70.734375 C9.72069359 70.74011536 9.72069359 70.74011536 8.4155426 70.74597168 C6.61596493 70.74868931 4.81634767 70.74133845 3.0168457 70.72460938 C0.25968675 70.70316995 -2.49487441 70.72442824 -5.25195312 70.75 C-7.00130784 70.74735721 -8.75066094 70.74223325 -10.5 70.734375 C-11.32504532 70.74247192 -12.15009064 70.75056885 -13.00013733 70.75891113 C-18.66409251 70.66588339 -18.66409251 70.66588339 -21.2265625 68.38330078 C-22.68458616 65.06183363 -22.12628064 62.06097018 -21.62109375 58.578125 C-21.47317383 57.42014404 -21.47317383 57.42014404 -21.32226562 56.23876953 C-20.24202295 48.04266794 -18.94777859 39.87120621 -17.64624023 31.70776367 C-16.87688821 26.86524526 -16.12900083 22.0378498 -15.62109375 17.16015625 C-15.54375 16.42619629 -15.46640625 15.69223633 -15.38671875 14.93603516 C-15.19954616 13.05126121 -15.03429382 11.16434458 -14.87109375 9.27734375 C-14.0613242 5.65638559 -12.73620574 3.85726133 -10.18359375 1.203125 C-6.98616236 -0.39559069 -3.51300259 0.01890819 0 0 Z " fill="#FEFDFB" transform="translate(323.18359375,176.796875)"/>
<path d="M0 0 C0.7381041 -0.00004028 1.47620819 -0.00008057 2.23667908 -0.00012207 C3.79076697 0.0052201 5.34485536 0.02274747 6.89868164 0.05175781 C9.27379037 0.09368727 11.64606714 0.09281778 14.02148438 0.0859375 C15.5351759 0.09642874 17.04885285 0.1093665 18.5625 0.125 C19.26987808 0.12520142 19.97725616 0.12540283 20.70606995 0.12561035 C24.81074083 0.22393402 27.22604256 0.70516692 30.21484375 3.59375 C29.72617879 10.06856068 29.72617879 10.06856068 27.54785156 12.3059082 C24.56428739 13.9528631 22.5347096 13.9366892 19.13671875 13.88671875 C17.9765625 13.87705078 16.81640625 13.86738281 15.62109375 13.85742188 C14.41453125 13.83228516 13.20796875 13.80714844 11.96484375 13.78125 C10.13179687 13.76094727 10.13179687 13.76094727 8.26171875 13.74023438 C5.24564877 13.7048898 2.23046888 13.6555456 -0.78515625 13.59375 C-0.87603516 15.07488281 -0.87603516 15.07488281 -0.96875 16.5859375 C-1.05253906 17.86726563 -1.13632813 19.14859375 -1.22265625 20.46875 C-1.30386719 21.74492187 -1.38507813 23.02109375 -1.46875 24.3359375 C-1.78515625 27.59375 -1.78515625 27.59375 -2.78515625 29.59375 C-1.89993286 29.57018433 -1.89993286 29.57018433 -0.99682617 29.54614258 C1.67779961 29.48377061 4.35227239 29.44475343 7.02734375 29.40625 C7.95611328 29.38111328 8.88488281 29.35597656 9.84179688 29.33007812 C10.73447266 29.32041016 11.62714844 29.31074219 12.546875 29.30078125 C13.36905518 29.2850708 14.19123535 29.26936035 15.03833008 29.25317383 C17.21484375 29.59375 17.21484375 29.59375 19.01049805 30.89331055 C20.21484375 32.59375 20.21484375 32.59375 20.15234375 36.09375 C19.10487662 40.00429396 18.59864624 40.62994923 15.21484375 42.59375 C12.92480469 42.93432617 12.92480469 42.93432617 10.44921875 42.88671875 C9.55976563 42.87705078 8.6703125 42.86738281 7.75390625 42.85742188 C6.83351562 42.83228516 5.913125 42.80714844 4.96484375 42.78125 C4.02898437 42.76771484 3.093125 42.75417969 2.12890625 42.74023438 C-0.17636952 42.70494954 -2.48046685 42.65565281 -4.78515625 42.59375 C-4.83003174 43.20371826 -4.87490723 43.81368652 -4.92114258 44.44213867 C-5.13331058 47.22304549 -5.36528649 50.00196132 -5.59765625 52.78125 C-5.66791016 53.74095703 -5.73816406 54.70066406 -5.81054688 55.68945312 C-6.35374674 61.96884351 -7.20546388 66.01405763 -11.78515625 70.59375 C-16.93895842 71.14202683 -16.93895842 71.14202683 -19.48339844 69.4934082 C-21.47643495 66.58496539 -20.9523898 64.36631831 -20.67578125 60.88671875 C-20.62093567 60.19362106 -20.56609009 59.50052338 -20.50958252 58.78642273 C-19.70286511 49.48513749 -18.37422895 40.23855369 -16.99365234 31.00805664 C-16.53064401 27.87572393 -16.09741368 24.74007149 -15.6640625 21.60351562 C-15.36770215 19.59608512 -15.06958962 17.58891233 -14.76953125 15.58203125 C-14.64535828 14.6518367 -14.5211853 13.72164215 -14.39324951 12.76325989 C-13.73862012 8.59722801 -13.08051688 6.02034454 -10.64770508 2.5065918 C-7.05522047 0.10598481 -4.18255963 -0.09721953 0 0 Z " fill="#FEFDFB" transform="translate(154.78515625,176.40625)"/>
<path d="M0 0 C4.99877131 2.81748928 8.60533165 6.44099496 10.4375 11.9375 C11.17174739 18.82257392 10.57811216 23.34207816 6.4375 28.9375 C1.26486384 33.73165059 -2.9249399 34.29621934 -9.76953125 34.21484375 C-14.08221013 33.78659172 -16.12619156 32.60239226 -19.5625 29.9375 C-24.07342628 24.12077927 -25.42842154 19.16553956 -24.5625 11.9375 C-22.47660214 6.12192606 -18.56152048 2.51593183 -13.1875 -0.3125 C-8.45063117 -1.66589109 -4.70194328 -1.40233396 0 0 Z " fill="#ED912D" transform="translate(29.5625,183.0625)"/>
<path d="M0 0 C0.85980469 -0.020625 1.71960938 -0.04125 2.60546875 -0.0625 C7.46369996 -0.09244287 10.83548508 0.02443971 14.75 3.25 C16.48723196 6.72446393 16.20968351 10.45122657 15.75 14.25 C14.12032452 17.56970931 12.9528446 19.56761701 9.71875 21.40234375 C5.44297663 22.62318957 1.3583942 22.46071458 -3.0625 22.375 C-3.94615234 22.36597656 -4.82980469 22.35695312 -5.74023438 22.34765625 C-7.91027359 22.32419637 -10.08017247 22.28832865 -12.25 22.25 C-10.66036832 0.0628004 -10.66036832 0.0628004 0 0 Z " fill="#F8C45D" transform="translate(214.25,188.75)"/>
<path d="M0 0 C0 4.28828021 -2.42303806 6.74255704 -4.875 10.0625 C-5.33519531 10.69994141 -5.79539062 11.33738281 -6.26953125 11.99414062 C-8.07097618 14.4717801 -9.83069584 16.83069584 -12 19 C-14.24658203 19.13525391 -14.24658203 19.13525391 -17.0078125 18.9765625 C-17.99394531 18.925 -18.98007812 18.8734375 -19.99609375 18.8203125 C-21.54490234 18.72363281 -21.54490234 18.72363281 -23.125 18.625 C-24.16527344 18.56828125 -25.20554687 18.5115625 -26.27734375 18.453125 C-28.85223418 18.31138791 -31.4261874 18.15995446 -34 18 C-33.85973717 15.68715544 -33.71264442 13.37472409 -33.5625 11.0625 C-33.48128906 9.77472656 -33.40007812 8.48695313 -33.31640625 7.16015625 C-33 4 -33 4 -32 3 C-29.8059611 2.86569422 -27.60789211 2.79635455 -25.41015625 2.75390625 C-24.05533201 2.72097071 -22.70051446 2.68775902 -21.34570312 2.65429688 C-19.20162528 2.6068365 -17.05757516 2.56240993 -14.91333008 2.52319336 C-12.84948201 2.48354506 -10.78619634 2.4319861 -8.72265625 2.37890625 C-6.86265991 2.34132202 -6.86265991 2.34132202 -4.96508789 2.30297852 C-1.88229587 2.30333897 -1.88229587 2.30333897 0 0 Z " fill="#F8C55E" transform="translate(354,186)"/>
<path d="M0 0 C4.62 0 9.24 0 14 0 C2.28571429 13.71428571 2.28571429 13.71428571 0 16 C7.92 16.33 15.84 16.66 24 17 C24 17.33 24 17.66 24 18 C15.42 18 6.84 18 -2 18 C-1.125 5.625 -1.125 5.625 0 0 Z " fill="#F8C059" transform="translate(318,217)"/>
</svg>
