<?xml version="1.0" encoding="UTF-8"?>
<svg version="1.1" xmlns="http://www.w3.org/2000/svg" width="512" height="512">
<path d="M0 0 C0.88856689 -0.00700928 1.77713379 -0.01401855 2.69262695 -0.02124023 C5.6183229 -0.03878886 8.54304489 -0.02720857 11.46875 -0.01367188 C13.50846542 -0.01636769 15.54817959 -0.02025085 17.58789062 -0.02526855 C21.85819765 -0.03115936 26.1281695 -0.02261394 30.3984375 -0.00390625 C35.86619751 0.01888287 41.33317211 0.00575757 46.80090332 -0.01819611 C51.01145319 -0.03266525 55.22181752 -0.02804293 59.43237305 -0.01768494 C61.44816176 -0.01502075 63.46396743 -0.01827656 65.47973633 -0.02760315 C68.29944337 -0.03778699 71.11788682 -0.02224194 73.9375 0 C74.76677002 -0.00809692 75.59604004 -0.01619385 76.45043945 -0.02453613 C81.75419194 0.05278609 84.75034014 1.02354369 88.96875 4.51757812 C92.88520391 9.09058519 93.56420403 12.91830329 93.5 18.76757812 C93.5038269 19.54391602 93.50765381 20.32025391 93.51159668 21.12011719 C93.51430654 22.75391952 93.50701031 24.38776592 93.49023438 26.02148438 C93.46880871 28.51075709 93.49006466 30.99714431 93.515625 33.48632812 C93.51298156 35.08008444 93.50785623 36.67383898 93.5 38.26757812 C93.50809692 39.00524414 93.51619385 39.74291016 93.52453613 40.50292969 C93.43128949 45.68660912 91.99722064 48.40342933 88.96875 52.51757812 C88.63622571 55.74145293 88.63622571 55.74145293 91.35205078 58.19384766 C92.44899705 59.26993726 93.55358831 60.3382668 94.6640625 61.40039062 C95.24912567 61.97409393 95.83418884 62.54779724 96.4369812 63.1388855 C98.94037122 65.59335339 101.46068436 68.03015593 103.98046875 70.46777344 C118.81534329 84.85946777 118.81534329 84.85946777 121.96875 91.51757812 C122.23188492 92.06153732 122.49501984 92.60549652 122.76612854 93.16593933 C126.02093926 101.09309909 125.34390491 109.61521646 125.26171875 118.02148438 C125.25611481 119.71255617 125.25184849 121.40363287 125.24885559 123.0947113 C125.23746953 127.51870465 125.20805702 131.94239666 125.17474365 136.36627197 C125.14390732 140.89127528 125.13032143 145.41632787 125.11523438 149.94140625 C125.08318055 158.8002617 125.03206083 167.65889473 124.96875 176.51757812 C125.5988649 176.50448608 126.2289798 176.49139404 126.87818909 176.47790527 C129.7637801 176.42558178 132.64927089 176.39330343 135.53515625 176.36132812 C136.52632446 176.34038086 137.51749268 176.31943359 138.53869629 176.29785156 C147.87422026 176.22033008 153.94866253 178.12385019 161.09765625 184.38085938 C167.69774596 191.25652694 170.37352752 200.0567099 172.546875 209.14648438 C172.76317566 210.02159164 172.97947632 210.89669891 173.20233154 211.79832458 C173.88232277 214.55705225 174.55072266 217.31843187 175.21875 220.08007812 C175.68152364 221.96633443 176.14505849 223.85240415 176.609375 225.73828125 C177.73796747 230.32927281 178.85618334 234.92267782 179.96875 239.51757812 C180.57855713 239.63439941 181.18836426 239.7512207 181.81665039 239.87158203 C182.62094482 240.03577637 183.42523926 240.1999707 184.25390625 240.36914062 C185.04933838 240.52721191 185.84477051 240.6852832 186.66430664 240.84814453 C190.86886972 242.06955697 193.78519408 244.62167357 196.11669922 248.35644531 C197.13964888 250.95104427 197.19644916 252.9354506 197.1640625 255.72070312 C197.15761719 256.70039063 197.15117187 257.68007813 197.14453125 258.68945312 C197.12777344 259.70523437 197.11101562 260.72101563 197.09375 261.76757812 C197.08472656 262.79882812 197.07570313 263.83007812 197.06640625 264.89257812 C197.04287011 267.43448099 197.00999023 269.97591093 196.96875 272.51757812 C197.57130615 272.70876221 198.1738623 272.89994629 198.79467773 273.09692383 C199.59333252 273.35562256 200.3919873 273.61432129 201.21484375 273.88085938 C202.0030249 274.13391846 202.79120605 274.38697754 203.60327148 274.64770508 C206.99775654 275.8959815 209.89496427 277.62098693 212.96875 279.51757812 C212.92234375 278.80214844 212.8759375 278.08671875 212.828125 277.34960938 C212.2885445 262.45333343 217.68610255 250.55896725 227.15625 239.33007812 C231.82842092 234.31065125 237.02100499 230.86318469 242.96875 227.51757812 C244.020625 226.87820312 245.0725 226.23882812 246.15625 225.58007812 C250.11997695 224.08267017 252.73074495 224.03909368 256.96875 224.51757812 C259.46875 226.01757813 259.46875 226.01757813 260.96875 228.51757812 C261.51561219 231.29746092 261.69866469 233.76966399 260.96875 236.51757812 C258.31180338 239.75820181 255.52249134 241.40733878 251.78125 243.20507812 C241.85443835 248.50644616 235.38809354 255.74233588 231.96875 266.51757812 C231.09016059 270.50359953 230.47793513 274.47072639 229.96875 278.51757812 C230.69545898 278.090979 231.42216797 277.66437988 232.17089844 277.22485352 C241.27660752 272.40232015 248.68439181 271.66090366 258.82373047 271.90014648 C261.20249458 271.95470529 263.57770707 271.96167444 265.95703125 271.9609375 C287.38956245 272.10782764 308.88056825 276.04100953 325.15625 291.01757812 C339.05497102 305.65814611 341.72790981 325.61836478 341.40625 344.95507812 C341.39943207 345.71860596 341.39261414 346.48213379 341.3855896 347.26879883 C341.28105653 358.58971503 340.68245667 369.49715122 337.96875 380.51757812 C337.80246094 381.25717773 337.63617188 381.99677734 337.46484375 382.75878906 C331.37173477 409.85055694 319.55285886 438.8596441 295.6171875 454.90820312 C282.94847694 462.60659361 271.52757788 465.08379429 256.71875 464.95507812 C256.03409668 464.95369843 255.34944336 464.95231873 254.64404297 464.95089722 C245.67202826 464.91741759 237.3578826 464.45953812 228.84375 461.49023438 C222.75144595 459.4291152 218.41985433 459.28986899 212.34375 461.39257812 C204.0990172 464.19304556 196.71885711 464.76303319 188.06103516 464.81274414 C186.68039637 464.82418234 185.29979889 464.84450273 183.91943359 464.87426758 C172.56238208 465.11843191 162.54149918 463.66788713 152.46875 458.14257812 C149.20359403 456.15225918 149.20359403 456.15225918 146.56640625 457.25585938 C143.14036308 458.91993749 139.75122849 460.64131425 136.37109375 462.39648438 C132.8345531 464.04687001 129.74194151 464.6419095 125.8528204 464.6517992 C125.03652533 464.65625705 124.22023025 464.66071489 123.37919897 464.66530782 C122.04220814 464.66503128 122.04220814 464.66503128 120.6782074 464.66474915 C119.25139581 464.67026418 119.25139581 464.67026418 117.79575974 464.67589062 C114.60008113 464.68692653 111.40443504 464.69077118 108.20874023 464.69458008 C105.92060747 464.70084486 103.63247572 464.70749167 101.34434509 464.7144928 C93.82201852 464.73553589 86.29969174 464.7458962 78.77734375 464.75585938 C76.18722078 464.759907 73.59709792 464.76402392 71.00697517 464.76820946 C60.23156054 464.78507922 49.45614961 464.79971325 38.68072414 464.8069582 C35.88570085 464.80886797 33.09067756 464.81078832 30.2956543 464.81274414 C29.60099786 464.81322788 28.90634143 464.81371162 28.19063479 464.81421002 C16.94651324 464.82250408 5.70249829 464.84783083 -5.54157675 464.88032482 C-17.09614027 464.91344269 -28.65063368 464.93107885 -40.20524639 464.93460244 C-46.68844692 464.9369517 -53.17147897 464.94589623 -59.65463448 464.97106361 C-65.7572721 464.99437073 -71.85963063 464.99856672 -77.96230125 464.98830223 C-80.19753575 464.98780739 -82.4327841 464.99411246 -84.66797638 465.00785828 C-100.01723911 465.09694126 -112.36227758 464.67920392 -124.03125 453.51757812 C-132.98686783 443.97674171 -135.55679381 433.56334886 -137.22949219 420.84130859 C-137.41618438 419.49307406 -137.60399655 418.14499421 -137.79283142 416.79705811 C-138.29810301 413.16653056 -138.78744052 409.53402233 -139.27347851 405.90087652 C-139.78663289 402.08378109 -140.31368869 398.26860319 -140.83892822 394.45315552 C-141.71822529 388.05082554 -142.58772487 381.6472274 -143.45068359 375.24267578 C-144.44641152 367.85321554 -145.4548036 360.46557445 -146.47061992 353.07885063 C-147.55563314 345.18849834 -148.63239157 337.29703684 -149.70620823 329.40515375 C-150.01469895 327.14156067 -150.32460546 324.87816506 -150.63478851 322.61480331 C-151.1226299 319.05152359 -151.60483394 315.48752284 -152.0827961 311.92290497 C-152.34166242 310.00129928 -152.60569869 308.08039224 -152.86991882 306.15951538 C-153.66034498 300.22087093 -154.23031882 294.50890186 -154.03125 288.51757812 C-155.0625 288.60007812 -156.09375 288.68257813 -157.15625 288.76757812 C-162.7388177 288.40741247 -165.41202677 286.23413171 -169.17578125 282.24414062 C-172.50992786 277.0605042 -171.60397764 270.43275928 -171.53125 264.51757812 C-171.54671875 263.25945312 -171.5621875 262.00132812 -171.578125 260.70507812 C-171.52970619 249.27823941 -171.52970619 249.27823941 -167.03125 244.51757812 C-162.723925 240.97599979 -159.4908768 240.1701489 -154.03125 239.51757812 C-153.72944824 238.26734863 -153.42764648 237.01711914 -153.11669922 235.72900391 C-151.98171818 231.04687281 -150.82463071 226.37043115 -149.66113281 221.6953125 C-149.16266656 219.6795227 -148.67003367 217.66228036 -148.18359375 215.64355469 C-141.4576437 187.77496659 -141.4576437 187.77496659 -128.2716217 179.39996338 C-120.8095644 175.50667566 -113.02333646 176.0108399 -104.83984375 176.12695312 C-103.28329703 176.13442652 -101.72674082 176.14011425 -100.17018127 176.144104 C-96.10115947 176.15927419 -92.03272156 176.19847958 -87.96392822 176.24291992 C-83.80090225 176.28406037 -79.63778065 176.30215483 -75.47460938 176.32226562 C-67.32655691 176.36498399 -59.17897638 176.43312836 -51.03125 176.51757812 C-51.04457367 175.12601753 -51.04457367 175.12601753 -51.0581665 173.7063446 C-51.13862034 164.92428413 -51.19937013 156.14234908 -51.23849869 147.36000347 C-51.25929203 142.84587959 -51.28745695 138.33206257 -51.33300781 133.81811523 C-51.37676249 129.45439998 -51.40044903 125.09097817 -51.41075897 120.72706032 C-51.41809759 119.06982625 -51.43242696 117.41260656 -51.45417023 115.75549889 C-51.6675717 98.80330182 -47.85844429 88.66187765 -36.04296875 76.39160156 C-32.74702547 73.01651063 -29.39214584 69.70276873 -26.03125 66.39257812 C-24.86281111 65.23419799 -23.69483912 64.0753467 -22.52734375 62.91601562 C-19.70065311 60.11108845 -16.86776545 57.31256801 -14.03125 54.51757812 C-14.84464844 53.57140625 -15.65804687 52.62523437 -16.49609375 51.65039062 C-20.41623468 45.36099462 -19.73878674 38.01766408 -19.62817383 30.86279297 C-19.59372941 28.39110087 -19.60757708 25.92296604 -19.62695312 23.45117188 C-19.62005673 21.86652137 -19.61038619 20.28188 -19.59765625 18.69726562 C-19.60261612 17.96587372 -19.60757599 17.23448181 -19.61268616 16.48092651 C-19.49561291 11.34690189 -18.35591263 8.40947685 -15.03125 4.51757812 C-9.97811354 0.33139418 -6.27864757 -0.0613042 0 0 Z " fill="#381F32" transform="translate(171.03125,23.482421875)"/>
<path d="M0 0 C85.47 0 170.94 0 259 0 C257.02 2.31 255.04 4.62 253 7 C251.90169153 8.47398261 250.83148011 9.97010269 249.8125 11.5 C249.11060547 12.53640625 249.11060547 12.53640625 248.39453125 13.59375 C233.7773327 38.81558278 238.43052574 73.39962888 245.3203125 100.296875 C250.74657251 120.18496019 259.26752675 138.50695326 273 154 C273 154.66 273 155.32 273 156 C266.26043055 159.13022724 260.68434471 160.58623336 253.27145386 160.50793457 C251.88278002 160.51729451 251.88278002 160.51729451 250.46605217 160.52684355 C247.39230374 160.54268161 244.31935849 160.53020544 241.24560547 160.51757812 C239.03053325 160.52300324 236.81546465 160.53012808 234.60040283 160.53881836 C228.60469077 160.55700595 222.60925497 160.55000346 216.61353827 160.53730202 C210.3312288 160.5271533 204.0489425 160.53657266 197.76663208 160.54284668 C186.54531424 160.55058174 175.32410997 160.53817793 164.10281886 160.51780933 C153.93908937 160.49993139 143.77554262 160.50305217 133.61181641 160.52148438 C121.79034002 160.54291312 109.96895203 160.55084711 98.14745247 160.53903532 C91.89641249 160.53280481 85.64549826 160.53195298 79.3944664 160.54518127 C73.51906824 160.55674713 67.64401484 160.54870015 61.76865387 160.52560425 C59.61440986 160.52032164 57.46013677 160.52182322 55.30590439 160.53065491 C52.36173937 160.54161111 49.41867411 160.52784547 46.47457886 160.50793457 C45.62534847 160.51685746 44.77611809 160.52578034 43.90115345 160.53497362 C36.98889743 160.44450829 31.93083346 158.38336698 26.57421875 154.02734375 C25.95160156 153.33769531 25.32898438 152.64804687 24.6875 151.9375 C24.05199219 151.26589844 23.41648437 150.59429687 22.76171875 149.90234375 C17.44625716 141.14538596 17.05171554 130.02382822 15.8659668 120.05004883 C15.34556788 115.67710702 14.79851073 111.30748195 14.25390625 106.9375 C14.14664215 106.07193481 14.03937805 105.20636963 13.92886353 104.3145752 C13.06104107 97.35904424 12.06695055 90.42782593 11 83.5 C9.1907743 71.68254614 7.67451965 59.83534975 6.18228149 47.97470093 C4.66706411 35.9462263 3.02941784 23.9492043 1.16796875 11.96875 C1.01328125 10.96457031 0.85859375 9.96039063 0.69921875 8.92578125 C0.56346436 8.06380127 0.42770996 7.20182129 0.2878418 6.3137207 C0 4 0 4 0 0 Z " fill="#FEE8E5" transform="translate(33,312)"/>
<path d="M0 0 C1.19818359 -0.04576172 2.39636719 -0.09152344 3.63085938 -0.13867188 C11.22037913 -0.23379937 16.22197934 0.86436486 22.66235352 4.94506836 C30.73905426 9.96723005 40.86040614 9.93270707 50.0625 8.4375 C52.81923444 7.39166468 55.24414195 5.98061604 57.75 4.4375 C67.33225541 -1.36254905 77.46431948 -0.33284424 88.32128906 0.28320312 C90.54275473 0.40824466 92.76764503 0.4713995 94.9921875 0.515625 C107.85814024 0.96481038 122.14520825 5.31018193 131.82421875 14.0234375 C145.03883292 28.20335094 144.78306012 47.96381806 144.24609375 66.11328125 C142.60576331 95.81373247 132.92823249 128.08854303 110.90625 149.08984375 C106.63620882 152.6149739 102.10497526 155.18330935 97.0625 157.4375 C96.27617187 157.79714844 95.48984375 158.15679687 94.6796875 158.52734375 C81.16194396 163.22829038 62.07218682 162.17768388 49.0625 156.4375 C48.38445312 156.07269531 47.70640625 155.70789063 47.0078125 155.33203125 C42.06525813 153.05925022 36.68733233 153.9188968 31.66015625 155.5234375 C29.40934624 156.39945579 27.16984969 157.30535573 24.9453125 158.24609375 C12.98743981 163.188033 -5.30902998 162.35352058 -17.296875 157.75390625 C-39.35998074 146.75499111 -49.99854331 125.27483387 -57.625 103 C-64.81037934 79.6548372 -69.3938309 47.89558763 -59.1875 24.78125 C-54.98669235 16.90473565 -49.63251945 11.84076113 -41.9375 7.4375 C-41.009375 6.880625 -40.08125 6.32375 -39.125 5.75 C-26.61305914 0.59802435 -13.34749428 0.20754817 0 0 Z " fill="#F3636E" transform="translate(351.9375,311.5625)"/>
<path d="M0 0 C0.90248136 -0.00384115 1.80496272 -0.00768229 2.73479199 -0.01163983 C4.23154781 -0.01034011 4.23154781 -0.01034011 5.75854111 -0.00901413 C6.81365662 -0.01198525 7.86877214 -0.01495637 8.95586085 -0.01801753 C12.51491239 -0.02673517 16.07393041 -0.02821536 19.63299179 -0.02970505 C22.17524412 -0.03433107 24.71749574 -0.03935544 27.25974655 -0.04475021 C34.18336416 -0.05789742 41.10697067 -0.06436019 48.03059864 -0.06876087 C52.35274313 -0.07152175 56.67488538 -0.07575885 60.99702835 -0.08026505 C72.96047577 -0.09245987 84.92392138 -0.10275832 96.88737488 -0.10614014 C97.65340658 -0.1063597 98.41943828 -0.10657927 99.20868306 -0.10680549 C99.97656563 -0.10702377 100.7444482 -0.10724204 101.53559995 -0.10746694 C103.09166416 -0.1079104 104.64772836 -0.10835697 106.20379257 -0.10880661 C106.97565693 -0.10902804 107.74752129 -0.10924947 108.54277548 -0.10947761 C121.0481173 -0.11342511 133.55340084 -0.1308767 146.05872014 -0.15416613 C158.8934956 -0.17787641 171.72824182 -0.19034186 184.56303954 -0.19150805 C191.77098243 -0.19242507 198.9788494 -0.19818395 206.18677139 -0.21632767 C212.96647334 -0.23333307 219.74600653 -0.23498368 226.52573204 -0.22618866 C229.01623101 -0.22541608 231.5067376 -0.22978988 233.99721718 -0.23964691 C237.39333637 -0.25230154 240.7889396 -0.24652452 244.18505478 -0.23606491 C245.1739691 -0.24412132 246.16288342 -0.25217772 247.18176484 -0.26047826 C253.92134046 -0.21182873 258.21630148 0.86096056 263.35076523 5.50642776 C270.10377988 14.41008403 271.3801657 28.71700422 273.77264023 39.38533401 C274.04866074 40.6123201 274.04866074 40.6123201 274.33025742 41.86409378 C274.72576523 44.13142776 274.72576523 44.13142776 274.72576523 48.13142776 C176.38576523 48.13142776 78.04576523 48.13142776 -23.27423477 48.13142776 C-22.38868591 41.04703684 -21.08425948 34.38853743 -19.42779922 27.46736526 C-18.96172722 25.50639599 -18.5134078 23.54187006 -18.0652504 21.57674026 C-17.76683243 20.32377151 -17.46841446 19.07080276 -17.16095352 17.77986526 C-16.89500381 16.64726273 -16.62905411 15.51466019 -16.35504532 14.34773636 C-13.78191634 6.69054159 -8.47013716 0.01348803 0 0 Z " fill="#F5981D" transform="translate(58.274234771728516,215.86857223510742)"/>
<path d="M0 0 C19.48093335 5.95992025 34.78343535 25.13128818 45.89355469 41.44042969 C46.32637756 42.02131348 46.75920044 42.60219727 47.20513916 43.20068359 C51.92690658 50.62689761 49.89355469 56.97417497 49.89355469 66.44042969 C2.37355469 66.44042969 -45.14644531 66.44042969 -94.10644531 66.44042969 C-94.10644531 46.80875767 -94.10644531 46.80875767 -90.10644531 41.44042969 C-89.62028748 40.72677246 -89.13412964 40.01311523 -88.63323975 39.27783203 C-66.49032427 7.88776353 -39.23178387 -9.29768668 0 0 Z " fill="#FEE8E5" transform="translate(230.1064453125,77.5595703125)"/>
<path d="M0 0 C47.52 0 95.04 0 144 0 C144 13.2 144 26.4 144 40 C96.48 40 48.96 40 0 40 C0 26.8 0 13.6 0 0 Z " fill="#96B1FF" transform="translate(136,160)"/>
<path d="M0 0 C110.88 0 221.76 0 336 0 C336 5.28 336 10.56 336 16 C225.12 16 114.24 16 0 16 C0 10.72 0 5.44 0 0 Z " fill="#ED9015" transform="translate(16,280)"/>
<path d="M0 0 C5.94 0 11.88 0 18 0 C20.12265283 10.78999075 21.84287141 21.54330539 23.23208427 32.44983292 C23.56847767 35.0852463 23.91176952 37.71968425 24.2568512 40.35397339 C25.23551918 47.830911 26.2055435 55.30893225 27.16333008 62.78857422 C27.75417913 67.39887582 28.3555746 72.00770514 28.96330452 76.61581039 C29.19007278 78.3509419 29.41296851 80.08658477 29.63162041 81.82275772 C32.35330682 103.41600187 37.51612026 121.82860192 54 137 C69.86266011 149.25650446 87.78149649 151.47933444 107.15698242 151.29296875 C108.93740459 151.28719771 110.71783171 151.2828127 112.4982605 151.2796936 C116.30193036 151.27028093 120.10539541 151.25158532 123.90898705 151.22549438 C129.92200012 151.18466041 135.93494739 151.16719185 141.94807434 151.15307617 C154.69463989 151.11991748 167.44104298 151.06119735 180.1875 151 C193.9890304 150.93388047 207.79049752 150.87225603 221.59215432 150.83974552 C227.57260896 150.82478814 233.55275978 150.79520068 239.5330919 150.75445557 C243.24143028 150.73213343 246.94972649 150.72214203 250.65812302 150.7155571 C252.38072401 150.70992623 254.10331679 150.69909395 255.82584953 150.68275833 C258.17142513 150.6612071 260.51632692 150.65799242 262.86198425 150.65942383 C264.17579165 150.65276199 265.48959906 150.64610016 266.8432188 150.63923645 C270 151 270 151 271.94612598 152.39628601 C273 154 273 154 273 156 C266.26043055 159.13022724 260.68434471 160.58623336 253.27145386 160.50793457 C251.88278002 160.51729451 251.88278002 160.51729451 250.46605217 160.52684355 C247.39230374 160.54268161 244.31935849 160.53020544 241.24560547 160.51757812 C239.03053325 160.52300324 236.81546465 160.53012808 234.60040283 160.53881836 C228.60469077 160.55700595 222.60925497 160.55000346 216.61353827 160.53730202 C210.3312288 160.5271533 204.0489425 160.53657266 197.76663208 160.54284668 C186.54531424 160.55058174 175.32410997 160.53817793 164.10281886 160.51780933 C153.93908937 160.49993139 143.77554262 160.50305217 133.61181641 160.52148438 C121.79034002 160.54291312 109.96895203 160.55084711 98.14745247 160.53903532 C91.89641249 160.53280481 85.64549826 160.53195298 79.3944664 160.54518127 C73.51906824 160.55674713 67.64401484 160.54870015 61.76865387 160.52560425 C59.61440986 160.52032164 57.46013677 160.52182322 55.30590439 160.53065491 C52.36173937 160.54161111 49.41867411 160.52784547 46.47457886 160.50793457 C45.62534847 160.51685746 44.77611809 160.52578034 43.90115345 160.53497362 C36.98889743 160.44450829 31.93083346 158.38336698 26.57421875 154.02734375 C25.95160156 153.33769531 25.32898438 152.64804687 24.6875 151.9375 C24.05199219 151.26589844 23.41648437 150.59429687 22.76171875 149.90234375 C17.44625716 141.14538596 17.05171554 130.02382822 15.8659668 120.05004883 C15.34556788 115.67710702 14.79851073 111.30748195 14.25390625 106.9375 C14.14664215 106.07193481 14.03937805 105.20636963 13.92886353 104.3145752 C13.06104107 97.35904424 12.06695055 90.42782593 11 83.5 C9.1907743 71.68254614 7.67451965 59.83534975 6.18228149 47.97470093 C4.66706411 35.9462263 3.02941784 23.9492043 1.16796875 11.96875 C1.01328125 10.96457031 0.85859375 9.96039063 0.69921875 8.92578125 C0.56346436 8.06380127 0.42770996 7.20182129 0.2878418 6.3137207 C0 4 0 4 0 0 Z " fill="#F8D1CE" transform="translate(33,312)"/>
<path d="M0 0 C0.33 0 0.66 0 1 0 C0.98428955 0.95551758 0.9685791 1.91103516 0.95239258 2.89550781 C0.37081489 29.11649887 0.37081489 29.11649887 4 55 C4.19867676 55.87865723 4.39735352 56.75731445 4.60205078 57.66259766 C8.62162275 74.8940661 14.50115252 91.58367211 25 106 C25.67675781 106.93328125 26.35351562 107.8665625 27.05078125 108.828125 C35.97401884 120.42991881 48.40528423 129.34165925 63 132 C66.04776933 132.30684287 69.06295847 132.38066462 72.125 132.375 C73.36080811 132.3747583 73.36080811 132.3747583 74.62158203 132.37451172 C83.07908 132.21877179 90.76698695 130.36382209 98.5078125 126.8671875 C104.20782799 124.88379653 108.59205224 126.33622899 114.0625 128.4375 C122.65548494 131.71235094 129.91508054 132.23829162 139.0625 132.3125 C140.22716797 132.34150391 141.39183594 132.37050781 142.59179688 132.40039062 C149.94265704 132.45362805 155.81718761 131.46558046 162.66967773 128.76635742 C165 128 165 128 167 129 C155.60636972 138.31359423 144.33410735 141.39680892 129.75 141.375 C128.74090576 141.37483887 127.73181152 141.37467773 126.69213867 141.37451172 C118.12856654 141.24383316 110.59033514 140.00772784 102.9453125 135.89453125 C98.00275813 133.62175022 92.62483233 134.4813968 87.59765625 136.0859375 C85.34684624 136.96195579 83.10734969 137.86785573 80.8828125 138.80859375 C68.92493981 143.750533 50.62847002 142.91602058 38.640625 138.31640625 C16.57751926 127.31749111 5.93895669 105.83733387 -1.6875 83.5625 C-9.15049546 59.31536764 -13.65853834 26.59032368 -2 3 C-1.34 2.01 -0.68 1.02 0 0 Z " fill="#E7525D" transform="translate(296,331)"/>
<path d="M0 0 C105.6 0 211.2 0 320 0 C320 2.64 320 5.28 320 8 C279.95600698 8.11439053 239.91203521 8.20252097 199.86791151 8.25532665 C195.14265363 8.26158034 190.41739607 8.26805194 185.69213867 8.2746582 C184.75140657 8.27596976 183.81067447 8.27728131 182.84143534 8.2786326 C167.59992706 8.30040195 152.35851288 8.33983188 137.11706046 8.38576398 C121.48332063 8.4324861 105.84963014 8.4602864 90.21582335 8.47044247 C80.56527247 8.47731046 70.91498751 8.49901886 61.26451846 8.53958233 C54.65099017 8.56596833 48.03759979 8.57401042 41.42402265 8.56750689 C37.60559327 8.56429749 33.78762924 8.56929102 29.96928215 8.59602737 C25.83251189 8.6247824 21.69673782 8.6149664 17.55989075 8.60127258 C16.34880624 8.61583679 15.13772174 8.630401 13.8899377 8.64540654 C4.85655263 8.56418588 4.85655263 8.56418588 1.71500683 5.64992046 C0 3 0 3 0 0 Z " fill="#F89B20" transform="translate(32,280)"/>
<path d="M0 0 C26.4 0 52.8 0 80 0 C80 7.92 80 15.84 80 24 C53.6 24 27.2 24 0 24 C0 16.08 0 8.16 0 0 Z " fill="#96B1FF" transform="translate(168,40)"/>
<path d="M0 0 C5.28 0 10.56 0 16 0 C16.75 7.5625 16.75 7.5625 16.95605469 9.90063477 C17.69964087 16.50122388 20.12319873 21.91583664 25.3125 26.3125 C25.84488281 26.78300781 26.37726563 27.25351563 26.92578125 27.73828125 C33.06940247 31.47536158 39.74389331 31.30356871 46.70874023 31.31884766 C47.76314804 31.32889328 48.81755585 31.3389389 49.90391541 31.34928894 C53.37213623 31.38005918 56.84028006 31.39713915 60.30859375 31.4140625 C62.7199825 31.43277907 65.13136473 31.45235285 67.54273987 31.4727478 C73.87690384 31.52402311 80.21108903 31.56367361 86.54534912 31.60089111 C93.01400991 31.6409595 99.48258277 31.69203894 105.95117188 31.7421875 C118.63405167 31.83889238 131.31698194 31.9236888 144 32 C144 34.64 144 37.28 144 40 C96.48 40 48.96 40 0 40 C0 26.8 0 13.6 0 0 Z " fill="#80A1FF" transform="translate(136,160)"/>
<path d="M0 0 C1.74023438 0.74636719 1.74023438 0.74636719 3.515625 1.5078125 C8.77477049 3.53219258 13.86349657 3.44036291 19.4375 3.375 C20.42298828 3.38660156 21.40847656 3.39820313 22.42382812 3.41015625 C28.08833062 3.38763338 32.78490514 2.76243373 38.0715332 0.69189453 C41.22904031 -0.44095458 43.70677841 -0.50664948 47 0 C50 2.0625 50 2.0625 52 5 C52 8.38764772 51.91483247 10.76669343 49.85546875 13.54296875 C38.83425792 22.19751957 21.08560672 21.1837723 8 20 C0.90501546 18.99603238 -6.28814955 17.83215056 -11 12 C-12.0625 8.5625 -12.0625 8.5625 -12 5 C-8.60466299 0.01309877 -5.86552023 -0.79532478 0 0 Z " fill="#3B2033" transform="translate(372,333)"/>
<path d="M0 0 C1.73618591 -0.00006042 1.73618591 -0.00006042 3.50744629 -0.00012207 C5.95179684 0.00523347 8.39614694 0.02281732 10.84033203 0.05175781 C14.58028833 0.09359939 18.31844293 0.09282635 22.05859375 0.0859375 C24.43490834 0.09643055 26.81121365 0.10936926 29.1875 0.125 C30.3053186 0.12520142 31.42313721 0.12540283 32.5748291 0.12561035 C34.14170471 0.14947815 34.14170471 0.14947815 35.74023438 0.17382812 C37.11326721 0.18645691 37.11326721 0.18645691 38.51403809 0.19934082 C41.63433226 0.676399 43.54257635 1.76301627 46.09375 3.59375 C47.49832737 6.40290474 47.34270157 8.48185534 47.09375 11.59375 C45.31390595 14.7296657 44.57066793 15.43477736 41.09375 16.59375 C39.38740843 16.70601312 37.67714861 16.76271412 35.96728516 16.78662109 C34.92255035 16.80268402 33.87781555 16.81874695 32.80142212 16.83529663 C28.03363736 16.87977343 23.26599045 16.92079304 18.49804688 16.94384766 C15.98200239 16.96042624 13.46600536 16.98774082 10.95019531 17.02587891 C7.32331909 17.08057216 3.69754524 17.10250922 0.0703125 17.1171875 C-1.61582657 17.15119156 -1.61582657 17.15119156 -3.33602905 17.18588257 C-11.12480853 17.16476223 -11.12480853 17.16476223 -15.11572266 14.24853516 C-16.90625 11.59375 -16.90625 11.59375 -17.53125 8.59375 C-15.57756079 -0.78395819 -7.83903622 -0.11497667 0 0 Z " fill="#392033" transform="translate(168.90625,327.40625)"/>
<path d="M0 0 C5.28 0 10.56 0 16 0 C16.37125 1.381875 16.7425 2.76375 17.125 4.1875 C18.77125174 9.1418595 20.65197671 11.16047459 25 14 C28.06185368 15.00210889 30.92598504 15.14970766 34.13574219 15.20532227 C35.15649841 15.22526749 36.17725464 15.24521271 37.22894287 15.26576233 C38.32386047 15.28247482 39.41877808 15.29918732 40.546875 15.31640625 C41.6732135 15.33718735 42.799552 15.35796844 43.96002197 15.37937927 C47.55661949 15.44474333 51.15328977 15.50369885 54.75 15.5625 C57.1888096 15.6056977 59.62761184 15.6493124 62.06640625 15.69335938 C68.044194 15.8004113 74.02205407 15.90220217 80 16 C80 18.64 80 21.28 80 24 C53.6 24 27.2 24 0 24 C0 16.08 0 8.16 0 0 Z " fill="#80A1FF" transform="translate(168,40)"/>
<path d="M0 0 C-3.63343295 4.45978662 -7.51101516 8.56466423 -11.625 12.58203125 C-12.13788574 13.08467499 -12.65077148 13.58731873 -13.17919922 14.10519409 C-15.3210488 16.20192738 -17.4645454 18.29661752 -19.62304688 20.3762207 C-32.96334585 33.23836538 -32.96334585 33.23836538 -38.4140625 50.42578125 C-38.45273438 51.22177734 -38.49140625 52.01777344 -38.53125 52.83789062 C-38.57765625 54.06282227 -38.57765625 54.06282227 -38.625 55.3125 C-38.66367188 56.14845703 -38.70234375 56.98441406 -38.7421875 57.84570312 C-38.83595159 59.89679259 -38.91904245 61.94836515 -39 64 C-44.28 64 -49.56 64 -55 64 C-55.10913707 61.33220494 -55.18782749 58.66897689 -55.25 56 C-55.28351563 55.25621094 -55.31703125 54.51242188 -55.3515625 53.74609375 C-55.36445313 53.00488281 -55.37734375 52.26367188 -55.390625 51.5 C-55.41157227 50.8296875 -55.43251953 50.159375 -55.45410156 49.46875 C-53.91535685 41.10327338 -48.22614486 35.53611993 -42.5 29.6875 C-41.66847412 28.83317383 -40.83694824 27.97884766 -39.98022461 27.09863281 C-38.22406605 25.30484346 -36.46214236 23.51668219 -34.69482422 21.73388672 C-32.00749849 19.00760718 -29.3658303 16.24167232 -26.72265625 13.47265625 C-25.00526209 11.72914872 -23.28529197 9.98817405 -21.5625 8.25 C-20.78390625 7.42201904 -20.0053125 6.59403809 -19.203125 5.7409668 C-13.0924361 -0.27408212 -8.43522282 -1.06891144 0 0 Z " fill="#F7D0CE" transform="translate(191,80)"/>
</svg>
