<?xml version="1.0" encoding="UTF-8"?>
<svg version="1.1" xmlns="http://www.w3.org/2000/svg" width="512" height="512">
<path d="M0 0 C1.04446358 -0.00226556 2.08892716 -0.00453111 3.16504115 -0.00686532 C6.65233107 -0.01317729 10.13958184 -0.01237776 13.62687683 -0.0115509 C16.13234507 -0.01454413 18.63781285 -0.01794704 21.14328003 -0.02172852 C27.23527286 -0.02963949 33.3272504 -0.03278243 39.41924695 -0.03334089 C44.37367343 -0.03381699 49.32809673 -0.0358764 54.2825222 -0.03904152 C68.34594361 -0.04784232 82.4093574 -0.05246176 96.47278158 -0.05171105 C97.6086681 -0.05165111 97.6086681 -0.05165111 98.76750183 -0.05158997 C99.52568979 -0.05154909 100.28387774 -0.0515082 101.06504109 -0.05146609 C113.34998124 -0.05105971 125.63489073 -0.06062859 137.91982201 -0.07472833 C150.55027918 -0.08910966 163.18072141 -0.09599756 175.81118697 -0.09513456 C182.89566099 -0.09480321 189.98010285 -0.09752303 197.06456947 -0.10831261 C203.72861266 -0.11839731 210.39257681 -0.11806435 217.05662727 -0.11079597 C219.49826405 -0.10975168 221.93990508 -0.11210378 224.38153458 -0.11815643 C227.72294145 -0.12590117 231.06411553 -0.12121503 234.40551758 -0.11352539 C235.36410213 -0.11866895 236.32268668 -0.12381252 237.31031924 -0.12911195 C248.2895196 -0.0735489 257.72770856 1.11454694 266.07756042 8.65470886 C271.88678539 14.74654477 274.5330169 21.9020776 277.45573425 29.63371277 C278.03640481 31.13094985 278.6188264 32.62750877 279.20280457 34.12345886 C280.52130989 37.50758361 281.83026031 40.89522384 283.13395691 44.28507996 C287.09956206 54.57655321 291.16237678 64.83028672 295.20179749 75.09294128 C297.05712482 79.81129327 298.90657391 84.53193401 300.75457764 89.25315857 C301.64407318 91.52009513 302.53697036 93.78570011 303.43338013 96.0499115 C305.68679054 101.74401781 307.88990083 107.44945964 310.00846863 113.19523621 C310.43810913 114.33342804 310.86774963 115.47161987 311.31040955 116.64430237 C312.12087714 118.79229578 312.91268586 120.94746479 313.68162537 123.110672 C315.96074767 129.07036024 318.15312088 132.51615619 323.58714294 135.96955872 C328.60895915 139.20647573 331.49630359 144.95368589 333.08073425 150.57121277 C334.05147704 158.5313036 333.39399785 166.07643032 328.51823425 172.66886902 C326.09265887 175.41101765 323.6151995 178.04725023 320.87785339 180.48105431 C319.13534944 182.42078674 318.51954701 184.01556706 317.701828 186.48640442 C317.40227707 187.37680923 317.10272614 188.26721405 316.7940979 189.18460083 C316.4761879 190.1599025 316.15827789 191.13520416 315.83073425 192.14006042 C315.48708328 193.17013718 315.14343231 194.20021393 314.78936768 195.26150513 C313.64877216 198.68748732 312.521031 202.11756066 311.39323425 205.54777527 C310.59511572 207.9533418 309.79619285 210.3586416 308.99650574 212.76368713 C307.09769575 218.48073678 305.20690242 224.20037681 303.31998158 229.92135656 C301.00972195 236.9244097 298.68775839 243.92356305 296.3658905 250.92277527 C295.13426337 254.63785791 293.90283018 258.3530048 292.67140198 262.06815338 C291.86156225 264.51107503 291.05152429 266.95393098 290.24128723 269.39672089 C284.95096703 285.33009952 284.95096703 285.33009952 279.75805664 301.29538155 C278.76155847 304.3935394 277.75617771 307.48877614 276.74989319 310.58376694 C276.11110579 312.56304431 275.48725236 314.54657025 274.86418152 316.53083801 C272.1119018 324.98478129 268.79807021 333.76800665 260.83073425 338.57121277 C260.10757019 339.02367371 259.38440613 339.47613464 258.639328 339.94230652 C252.79726077 343.04114218 248.18212765 343.44005834 241.65275574 343.45597839 C240.67643692 343.4659082 239.7001181 343.47583801 238.69421387 343.48606873 C235.46755636 343.51525034 232.24109575 343.52890803 229.014328 343.53996277 C226.76335651 343.55147405 224.51238503 343.56298941 222.26141357 343.57450867 C217.53963816 343.59551339 212.81793066 343.60720759 208.09611511 343.61418152 C202.06941065 343.62512535 196.04361577 343.67312993 190.0171957 343.73012543 C185.364649 343.7675323 180.71231758 343.77779765 176.05963326 343.78085327 C173.83942271 343.78687655 171.61921461 343.80283244 169.39915276 343.82922363 C145.67829874 344.09099329 145.67829874 344.09099329 135.50186157 335.54545593 C127.36787028 327.14288545 126.82857422 316.65757725 126.92448425 305.55168152 C126.91964691 304.16546663 126.91248303 302.77925813 126.90312195 301.39306641 C126.87799349 297.03568368 126.8832589 292.67863823 126.89323425 288.32121277 C126.90479429 283.24928014 126.90357717 278.1780273 126.86917114 273.10618019 C126.86210689 271.08673999 126.87870327 269.06839522 126.89628601 267.04904175 C126.88947815 265.82038895 126.88267029 264.59173615 126.87565613 263.32585144 C126.8788385 262.24792831 126.88202087 261.17000519 126.88529968 260.05941772 C126.26866856 256.39307456 125.00782565 254.73729256 122.39323425 252.13371277 C118.47414839 250.99361506 116.36164922 250.72482645 112.58073425 252.32121277 C110.23523871 254.26462336 109.48673953 255.33022727 108.39323425 258.13371277 C108.09383257 260.92460408 108.09383257 260.92460408 108.13786316 264.01286316 C108.13090424 265.1983223 108.12394531 266.38378143 108.11677551 267.60516357 C108.11827103 269.52388527 108.11827103 269.52388527 108.11979675 271.48136902 C108.11122859 272.81694502 108.10122595 274.15251251 108.08985901 275.48806763 C108.04376815 281.14586665 108.01903056 286.80361323 108.01237488 292.46159363 C108.00731412 295.92888025 107.98282966 299.39561591 107.94704819 302.86271477 C107.93267707 304.80496876 107.93983907 306.74734452 107.94758606 308.68963623 C107.84093771 318.39921173 106.38995129 328.35775078 99.28515625 335.58113098 C88.00059727 344.84166116 76.12073866 343.98753494 62.2252655 343.86027527 C59.97711183 343.85923619 57.72895633 343.86027883 55.48080444 343.86329651 C50.78800539 343.86311786 46.09589919 343.84241894 41.40324402 343.80607605 C35.40457417 343.76062463 29.40691119 343.75963593 23.40811634 343.77311134 C18.77279798 343.77980944 14.13770701 343.76649743 9.50243187 343.74685287 C7.29096861 343.73918641 5.07948 343.73683679 2.86800575 343.74002457 C-0.22587787 343.74077062 -3.31849361 343.71540015 -6.41218567 343.68302917 C-7.31475098 343.68798401 -8.21731628 343.69293884 -9.14723206 343.69804382 C-18.01140391 343.5508438 -25.26688686 340.38568272 -31.68635464 334.26399231 C-37.05991918 328.30318811 -39.55644314 320.00723284 -41.98152161 312.48527527 C-42.28163147 311.57592224 -42.58174133 310.66656921 -42.89094543 309.72966003 C-43.87509476 306.74167453 -44.84834614 303.75025994 -45.8216095 300.75871277 C-46.52009281 298.63136698 -47.21929099 296.50425578 -47.91915894 294.37736511 C-49.76338969 288.76676798 -51.59855085 283.15324658 -53.43159485 277.53898621 C-55.24615343 271.98562073 -57.0682259 266.43472468 -58.88996887 260.88371277 C-59.2463273 259.79703812 -59.60268574 258.71036346 -59.96984291 257.59075928 C-61.75744289 252.14023654 -63.54788912 246.69067561 -65.34367371 241.24284363 C-66.05250795 239.09064907 -66.76113753 236.93838708 -67.46955872 234.78605652 C-67.81630835 233.73256516 -68.16305798 232.67907379 -68.52031517 231.59365845 C-70.57294603 225.33879685 -72.58375207 219.07233008 -74.55852795 212.79246521 C-75.79088228 208.88258291 -77.04231488 204.97895274 -78.29652596 201.07603455 C-78.87285829 199.26493544 -79.44000189 197.4508819 -79.99709892 195.6337738 C-83.38385519 183.41906483 -83.38385519 183.41906483 -91.84490967 174.45280457 C-96.31127478 171.10886198 -97.66359126 164.91047859 -98.48176575 159.63371277 C-99.05246042 151.42997679 -96.70714015 144.54760825 -91.60676575 138.13371277 C-88.72603981 135.14931032 -85.87098542 132.62573812 -81.60676575 132.13371277 C-81.49461731 131.45002625 -81.38246887 130.76633972 -81.266922 130.06193542 C-80.49568896 126.64101492 -79.32317097 123.54867283 -78.04426575 120.28215027 C-77.78132721 119.60746704 -77.51838867 118.93278381 -77.2474823 118.23765564 C-76.37135397 115.99304298 -75.48916362 113.75086743 -74.60676575 111.50871277 C-73.9823129 109.91360229 -73.35813272 108.31838504 -72.73420715 106.72306824 C-70.69859984 101.52390553 -68.65328219 96.32858915 -66.60676575 91.13371277 C-66.25561707 90.24176208 -65.90446838 89.3498114 -65.54267883 88.43083191 C-61.25268084 77.5342468 -56.94830391 66.64345918 -52.62739563 55.75909424 C-50.7033023 50.90954897 -48.78938355 46.05623198 -46.88877869 41.19743347 C-45.8005927 38.41799863 -44.70640359 35.64095266 -43.61097717 32.86436462 C-42.88459062 31.01697852 -42.16617126 29.1664658 -41.44807434 27.31584167 C-37.14750185 16.4479861 -32.78483923 7.91851515 -22.16926575 2.32121277 C-14.91717358 -0.09615129 -7.56700921 -0.01213982 0 0 Z " fill="#242021" transform="translate(137.6067657470703,165.8662872314453)"/>
<path d="M0 0 C121.11 0 242.22 0 367 0 C365.63761039 6.13075325 364.17749124 11.92994752 362.21875 17.85546875 C361.93712509 18.71901978 361.65550018 19.5825708 361.36534119 20.47229004 C360.41543884 23.37909851 359.45851705 26.28352137 358.5 29.1875 C358.16574005 30.20147858 357.8314801 31.21545715 357.48709106 32.26016235 C355.99174778 36.79524693 354.49574089 41.33010543 352.99586487 45.86369324 C350.29169018 54.04338334 347.62391567 62.23435007 344.97418404 70.43183422 C342.68012994 77.52598579 340.3688684 84.61440605 338.0473156 91.69960499 C336.5963295 96.13027879 335.15346552 100.5632535 333.72900391 105.00253296 C332.36955279 109.23795739 330.98840213 113.46570637 329.5913105 117.68885803 C329.07550553 119.26079438 328.56751486 120.83531961 328.06794548 122.41249084 C327.3754123 124.59461202 326.65502732 126.76562031 325.92749023 128.9362793 C325.52940659 130.16082321 325.13132294 131.38536713 324.72117615 132.64701843 C322.53030657 136.91499839 320.21813552 139.66027509 316 142 C312.74605844 142.80519733 309.64450943 142.81245412 306.30444336 142.76049805 C304.88359184 142.77385948 304.88359184 142.77385948 303.43403625 142.78749084 C300.31859416 142.80871436 297.20523385 142.78649992 294.08984375 142.76171875 C291.91703582 142.76322184 289.74422844 142.7666535 287.57142639 142.77192688 C283.02447447 142.77625369 278.47823292 142.75945312 273.93139648 142.72729492 C268.10814949 142.68749125 262.28623248 142.69682644 256.46294308 142.72152996 C251.97869494 142.73572221 247.49475669 142.72561929 243.01053047 142.70801735 C240.86356916 142.70217474 238.71657605 142.70345925 236.56962395 142.71204185 C233.56775453 142.72004702 230.5678252 142.69575719 227.56616211 142.6628418 C226.6823587 142.67139191 225.7985553 142.67994202 224.88796997 142.68875122 C220.75550015 142.6106732 217.86266962 142.34022881 214.52711487 139.77107239 C210.39245572 135.23726985 209.75065317 131.84649193 209.76049805 125.80786133 C209.75676682 124.57920853 209.75303558 123.35055573 209.74919128 122.08467102 C209.75149435 121.43291712 209.75379742 120.78116322 209.75617027 120.10965919 C209.76180035 118.05221074 209.75254356 115.99531848 209.7389679 113.93791199 C209.70200626 108.09066309 209.6832417 102.24360292 209.69458008 96.39624023 C209.70047612 92.81102843 209.68195412 89.22659855 209.64869118 85.64154625 C209.63700385 83.63107542 209.65199307 81.62050549 209.66764832 79.61006165 C209.57481818 70.85046246 208.29301522 63.77547121 202.29057312 57.09846497 C196.92257617 51.95518413 190.96616738 49.89290755 183.625 49.5 C176.77831687 49.71841014 171.3065923 52.12591556 166.1484375 56.609375 C158.61816646 64.69607001 158.56919074 73.59730099 158.59375 84.1328125 C158.5845008 85.4970727 158.57352469 86.86132216 158.56091309 88.22555542 C158.51817189 93.25482035 158.50689317 98.28406189 158.49468994 103.31347656 C158.48312963 107.5781571 158.45949386 111.84244425 158.41999817 116.1069603 C158.40650361 118.09544176 158.41078428 120.0840184 158.41540527 122.07254028 C158.40529419 123.28755219 158.39518311 124.50256409 158.38476562 125.75439453 C158.38271118 126.81836456 158.38065674 127.88233459 158.37854004 128.97854614 C157.78202121 133.73987636 155.8103408 137.9834802 152 141 C147.97114905 142.34295032 144.0693124 142.18105475 139.86621094 142.20874023 C138.93092056 142.21852402 137.99563019 142.2283078 137.03199768 142.23838806 C133.93280459 142.26833364 130.83365462 142.289725 127.734375 142.30859375 C126.67570473 142.31516558 125.61703445 142.3217374 124.52628326 142.32850838 C118.92264644 142.36109805 113.31902861 142.38555011 107.71533203 142.4050293 C103.07865746 142.42284483 98.44259076 142.45767028 93.80615234 142.50756836 C88.20700959 142.56775685 82.60843066 142.59850325 77.0089798 142.60820198 C74.87672619 142.61675977 72.74448777 142.63558575 70.61241913 142.6649456 C67.62473451 142.70387306 64.63924537 142.70489294 61.65136719 142.69702148 C60.33565483 142.7270224 60.33565483 142.7270224 58.99336243 142.75762939 C53.77316031 142.69603154 50.29935252 141.84277496 46.52449226 138.11205578 C43.23875241 133.55993964 41.76595671 128.24048197 40.07446289 122.94213867 C39.63201599 121.61220029 39.18758463 120.28292072 38.74133301 118.95425415 C37.54173889 115.36400906 36.37006208 111.7652101 35.20343328 108.16414046 C33.97695663 104.39434879 32.7250434 100.63302205 31.47593689 96.87068176 C29.11693571 89.75229582 26.78121828 82.62649445 24.45364994 75.49777728 C21.80260018 67.38257865 19.12390284 59.27659352 16.44364178 51.17100561 C12.5001182 39.2416762 8.56608082 27.3091931 4.66001129 15.36754227 C4.03358076 13.45307988 3.40580542 11.5390577 2.77799988 9.62504578 C2.40947906 8.49643127 2.04095825 7.36781677 1.66127014 6.20500183 C1.3385164 5.21818011 1.01576265 4.23135839 0.68322849 3.21463299 C0 1 0 1 0 0 Z " fill="#FEFEFE" transform="translate(71,351)"/>
<path d="M0 0 C1.61842647 -0.00935994 1.61842647 -0.00935994 3.26954842 -0.01890898 C6.88548753 -0.03486565 10.50075508 -0.02222361 14.11669922 -0.00964355 C16.70880527 -0.01506345 19.30090825 -0.02218536 21.89300537 -0.03088379 C28.20289655 -0.0486626 34.51259732 -0.04483196 40.82249594 -0.03323323 C45.95103613 -0.02419663 51.07952298 -0.02297587 56.20806885 -0.02732849 C56.93821894 -0.02794142 57.66836903 -0.02855436 58.42064488 -0.02918586 C59.9039693 -0.03046477 61.38729371 -0.03176163 62.8706181 -0.03307623 C76.77706735 -0.04448015 90.68341109 -0.0313713 104.58984303 -0.00987476 C116.52007189 0.00799608 128.45014505 0.00489192 140.38037109 -0.0135498 C154.23733267 -0.03495987 168.09420179 -0.04338153 181.9511776 -0.03110075 C183.42901991 -0.02982656 184.90686224 -0.02856908 186.38470459 -0.02732849 C187.1118155 -0.02671139 187.83892641 -0.02609429 188.58807099 -0.02545848 C193.70996135 -0.02200598 198.83179304 -0.02783176 203.95367432 -0.0372467 C210.84839885 -0.04964196 217.74282432 -0.04080655 224.63751984 -0.01766968 C227.16993979 -0.01237458 229.70238446 -0.01390995 232.23479462 -0.02272034 C235.68779022 -0.03362711 239.13983843 -0.01996957 242.59277344 0 C243.59841402 -0.00892289 244.6040546 -0.01784577 245.64016914 -0.02703905 C251.50186763 0.0388579 254.81905117 0.6249959 259.29638672 4.50793457 C260.81072998 6.67420959 260.81072998 6.67420959 261.87744141 9.02575684 C262.48428772 10.34931686 262.48428772 10.34931686 263.10339355 11.69961548 C265.14785138 16.51229178 267.11143643 21.34652517 268.99951172 26.22277832 C269.65314194 27.89340332 269.65314194 27.89340332 270.31997681 29.59777832 C271.73307079 33.21200483 273.13974787 36.82869149 274.54638672 40.44543457 C275.52205664 42.94592871 276.49919329 45.44584835 277.4765625 47.94567871 C277.97049667 49.20914942 278.46442365 50.47262294 278.95834351 51.73609924 C279.2034605 52.36310289 279.4485775 52.99010654 279.70112228 53.63611031 C280.44589414 55.54192242 281.19002036 57.4479855 281.93399048 59.35411072 C285.10903723 67.48675619 288.30553025 75.61069576 291.52294922 83.72668457 C291.92300171 84.73598526 292.3230542 85.74528595 292.73522949 86.78517151 C294.25101201 90.60768978 295.76765441 94.42986244 297.28674316 98.25106812 C298.30958105 100.82442081 299.33048009 103.39853513 300.35107422 105.97277832 C300.65308746 106.7304248 300.95510071 107.48807129 301.26626587 108.26867676 C303.29638672 113.39456731 303.29638672 113.39456731 303.29638672 114.50793457 C183.17638672 114.50793457 63.05638672 114.50793457 -60.70361328 114.50793457 C-53.79475911 96.08432346 -53.79475911 96.08432346 -51.21533203 89.48840332 C-50.91466827 88.71717133 -50.61400452 87.94593933 -50.30422974 87.15133667 C-49.33454699 84.66550385 -48.36307858 82.18037573 -47.39111328 79.69543457 C-47.05300629 78.83062469 -46.71489929 77.96581482 -46.36654663 77.07479858 C-44.193445 71.5176496 -42.01694028 65.9618398 -39.8392334 60.40649414 C-38.6863596 57.46389623 -37.53515322 54.52065035 -36.38427734 51.57727051 C-34.46953359 46.68158043 -32.54952 41.78798548 -30.62588501 36.89578247 C-29.8933427 35.03081616 -29.16233327 33.16524694 -28.43295288 31.29904175 C-16.13833083 -0.14319281 -16.13833083 -0.14319281 0 0 Z " fill="#FEAF00" transform="translate(133.70361328125,181.4920654296875)"/>
<path d="M0 0 C1.5822862 -0.00476694 3.16456629 -0.0121604 4.74682939 -0.02194923 C9.08846226 -0.04117103 13.42925454 -0.02300185 17.77083206 0.00134361 C22.4552654 0.02109068 27.13960558 0.00622583 31.8240509 -0.00430298 C40.9977512 -0.01942435 50.17112693 -0.00251076 59.3447869 0.02524792 C70.02455797 0.05640247 80.70425889 0.05618931 91.38406686 0.05473018 C110.43623804 0.0532284 129.48825811 0.08071178 148.54037476 0.12428284 C167.0348689 0.16655684 185.52923007 0.18779464 204.02377319 0.18580627 C205.16312642 0.18568641 206.30247965 0.18556654 207.47635873 0.18544304 C209.18241216 0.18526144 209.18241216 0.18526144 210.92293131 0.18507618 C231.96992302 0.18300751 253.01685814 0.20067033 274.06383152 0.22753583 C281.5115465 0.23659051 288.9592511 0.23977516 296.40697098 0.24113274 C305.47929874 0.2431776 314.55153113 0.25655024 323.62381841 0.28413116 C328.25427907 0.29799652 332.88461765 0.30711747 337.51510048 0.30334854 C341.7514265 0.30006757 345.9874823 0.31059262 350.22375195 0.33229411 C351.75860514 0.33774133 353.29348618 0.33811791 354.82834049 0.33299225 C356.91073688 0.32680658 358.99224499 0.33897147 361.07456398 0.35581112 C362.81121895 0.35898103 362.81121895 0.35898103 364.58295786 0.36221498 C369.11056969 0.92212674 371.68721003 2.87874719 375.02670288 5.86671448 C377.05590424 9.45683996 376.98217688 11.58414335 376.33529663 15.58546448 C375.27294596 18.93642203 373.40068535 20.64725165 370.65170288 22.74171448 C367.3182031 23.85288107 364.83098403 23.87166474 361.31786633 23.87872887 C360.34539971 23.88270661 360.34539971 23.88270661 359.35328731 23.88676471 C357.16589473 23.89446622 354.9785582 23.8950172 352.79115295 23.89561462 C351.2130403 23.89962867 349.63492868 23.90406679 348.05681831 23.90889418 C343.708378 23.92087168 339.3599488 23.92651083 335.01149523 23.93107533 C330.32631044 23.93702683 325.64113896 23.94863767 320.95596313 23.95936584 C309.63636601 23.98389805 298.31676449 23.99851707 286.99714896 24.01142591 C283.80141839 24.01513689 280.60568826 24.01911018 277.40995812 24.02317858 C257.57503806 24.04841128 237.74011732 24.07046953 217.90518475 24.08290672 C213.31002996 24.08583653 208.71487519 24.08879818 204.11972046 24.09181213 C202.97758537 24.09255818 201.83545028 24.09330424 200.65870503 24.09407289 C182.14600373 24.10673361 163.63339832 24.13996609 145.12074187 24.18161397 C126.12510881 24.22399907 107.1295249 24.24759769 88.13384467 24.25282729 C77.46397295 24.25624501 66.79425115 24.26804293 56.12442589 24.30093002 C47.03995077 24.32888449 37.95565631 24.33995007 28.87114152 24.32873456 C24.23439786 24.32353634 19.5980328 24.32650994 14.96134377 24.3512001 C10.71791591 24.37360807 6.47514046 24.37301913 2.23170183 24.35399623 C0.69534685 24.35118431 -0.84105159 24.35686069 -2.37733642 24.37180917 C-15.29931071 24.48987157 -15.29931071 24.48987157 -19.21104717 21.31699562 C-22.48025416 17.37776188 -23.32624687 16.10882972 -23.41079712 10.86671448 C-22.68625047 6.68330234 -21.08605636 4.60775001 -17.8085835 1.98193753 C-12.36938153 -0.75994802 -5.95942572 -0.06481406 0 0 Z " fill="#D4D4D4" transform="translate(78.34829711914063,310.25828552246094)"/>
<path d="M0 0 C3.4147981 7.39872922 0.49952172 17.0773277 -1.875 24.4375 C-5.75613325 33.51451354 -11.37902022 43.61073665 -20.14111328 48.77246094 C-27.77754158 53.36503876 -30.98236871 58.99346316 -34.29345703 66.95898438 C-35.12161986 68.92945754 -36.01483072 70.85982337 -36.91796875 72.796875 C-40.61127494 81.13547513 -41.35775211 86.9230342 -39.50244141 95.99316406 C-37.28846613 108.14676839 -40.6802493 120.42662395 -47.453125 130.5859375 C-51.24320094 135.52136606 -55.49239004 140.62432042 -61.875 141.80859375 C-65.75126965 141.93729802 -67.31905483 141.91005339 -70.375 139.3125 C-72.15301176 135.90464413 -72.58460213 134.22204468 -71.875 130.4375 C-69.8125 128.0625 -69.8125 128.0625 -66.875 125.4375 C-59.50290209 117.96861306 -56.75385419 112.64013421 -56.5625 102.0625 C-56.64350972 97.73487563 -56.88433319 93.71211572 -57.875 89.5 C-60.58715032 77.7080421 -59.89616021 65.46869259 -53.40234375 55.08203125 C-47.77383204 47.35114401 -40.52040454 41.13150937 -32.625 35.8125 C-23.34930614 29.4399967 -18.41669295 21.28527438 -16.2265625 10.13671875 C-15.92416661 8.10670044 -15.65453329 6.07131421 -15.4296875 4.03125 C-14.80609999 1.11531966 -13.86928971 -0.37327972 -11.875 -2.5625 C-7.63048143 -4.61157793 -3.45047621 -2.87539684 0 0 Z " fill="#231F20" transform="translate(287.875,4.5625)"/>
<path d="M0 0 C2.375 1.0625 2.375 1.0625 4 3 C5.03824677 6.73768837 5.4060422 8.99683692 3.9375 12.625 C2 15 2 15 -1 17 C-5.86524256 20.85365747 -6.00497877 27.23901724 -7 33 C-7.27457031 34.14082031 -7.54914063 35.28164062 -7.83203125 36.45703125 C-9.28878278 42.48780638 -9.28878278 42.48780638 -7.890625 48.3125 C-6.83982057 49.64421254 -5.74358145 50.94130471 -4.60546875 52.19921875 C0.5167854 57.94461818 0.53652062 65.09724634 0.33984375 72.4765625 C-0.67214563 82.96868225 -6.05511666 92.87548809 -14.06640625 99.78125 C-16.92093486 101.58046803 -18.69391934 101.53976827 -22 101 C-25.48490596 98.49995877 -26.78215063 96.94401394 -27.75 92.75 C-26.81661886 88.08309431 -24.7597442 85.84788807 -21.76171875 82.25390625 C-18.21323268 77.71404713 -16.6972772 73.26611758 -16.875 67.5 C-17.72452495 61.95422476 -21.23519119 58.88865121 -25 55 C-30.89062979 47.03968947 -31.89506835 39.71952429 -31 30 C-28.20769462 17.71739087 -18.41719062 8.68428752 -9 1 C-5.94306678 -0.52846661 -3.37015453 -0.23242445 0 0 Z " fill="#231F20" transform="translate(342,40)"/>
<path d="M0 0 C2.68601216 1.90848233 3.7337462 3.32549038 4.9375 6.375 C5.02520633 10.0586659 3.99394748 11.91259745 2 15 C0.09630012 16.93407807 -1.78109476 18.39483451 -4 20 C-4.66 20 -5.32 20 -6 20 C-6.03738281 20.6084375 -6.07476562 21.216875 -6.11328125 21.84375 C-6.7525246 30.36699471 -8.33055563 38.63177885 -10 47 C-9.34 47 -8.68 47 -8 47 C-1.52170674 55.90765323 1.08750997 64.01614929 0 75 C-2.20833154 84.3352197 -7.34630573 94.02638496 -15 100 C-19.13630166 101.255663 -21.03509504 101.47218753 -24.9375 99.5625 C-27.17331197 96.784673 -27.89330468 94.93099344 -27.69921875 91.34375 C-26.44816249 87.15026533 -23.57652693 84.01689297 -20.91796875 80.60546875 C-17.67208397 76.19608962 -16.93120699 72.9606008 -17.125 67.4375 C-18.48587085 62.09122165 -21.45546267 58.59125562 -25.0625 54.5625 C-29.54824682 49.40842222 -31.6589402 43.82119597 -32 37 C-30.76608862 22.237933 -22.40408371 12.21019713 -11.375 2.875 C-7.51395542 0.02470008 -4.86991104 -1.05037297 0 0 Z " fill="#231F20" transform="translate(178,40)"/>
<path d="M0 0 C0.66 0.33 1.32 0.66 2 1 C-2.29 10.9 -6.58 20.8 -11 31 C-11.66 31 -12.32 31 -13 31 C-13.91495852 15.38470786 -13.91495852 15.38470786 -9.64453125 9.78515625 C-6.53301243 6.40756932 -3.35839024 3.13338643 0 0 Z " fill="#F8F8F8" transform="translate(258,58)"/>
<path d="M0 0 C1.94057264 3.88114528 -0.04502524 8.86864434 -0.8125 13 C-0.99103516 14.02351563 -1.16957031 15.04703125 -1.35351562 16.1015625 C-1.53205078 17.07867187 -1.71058594 18.05578125 -1.89453125 19.0625 C-2.05800049 19.96097656 -2.22146973 20.85945313 -2.38989258 21.78515625 C-3 24 -3 24 -5 26 C-7.97631239 23.11669737 -9.35268924 20.84182741 -9.625 16.75 C-9.33673064 9.85459688 -4.81594237 4.59900803 0 0 Z " fill="#F9F9F9" transform="translate(336,60)"/>
<path d="M0 0 C1.07138687 3.29760194 0.90279404 5.60429626 0.22265625 8.984375 C-0.05288086 10.38623047 -0.05288086 10.38623047 -0.33398438 11.81640625 C-0.53314453 12.78449219 -0.73230469 13.75257812 -0.9375 14.75 C-1.13279297 15.73355469 -1.32808594 16.71710938 -1.52929688 17.73046875 C-2.01190558 20.15528321 -2.50238859 22.57822773 -3 25 C-6 24 -6 24 -7.75 21.4375 C-9.25866579 17.28866908 -9.41970748 14.13566962 -8 10 C-5.74476832 6.27624537 -3.07262055 3.07262055 0 0 Z " fill="#F6F6F6" transform="translate(171,61)"/>
</svg>
