<?xml version="1.0" encoding="UTF-8"?>
<svg version="1.1" xmlns="http://www.w3.org/2000/svg" width="512" height="512">
<path d="M0 0 C1.68314049 -0.01925285 1.68314049 -0.01925285 3.40028381 -0.03889465 C5.20812599 -0.04997505 5.20812599 -0.04997505 7.05249023 -0.0612793 C8.30432602 -0.06935104 9.5561618 -0.07742279 10.84593201 -0.08573914 C13.49628376 -0.0995619 16.14651197 -0.1105823 18.796875 -0.11816406 C21.49404702 -0.12699397 24.1906988 -0.14780191 26.88769531 -0.1796875 C30.79695009 -0.22257788 34.70552869 -0.23856521 38.61499023 -0.2487793 C39.80604874 -0.26628738 40.99710724 -0.28379547 42.22425842 -0.30183411 C55.03141477 -0.26908673 66.06518303 3.3498246 75.45483398 12.2121582 C86.13347968 23.50841214 88.61188098 35.37304389 88.59936523 50.48168945 C88.60365036 51.64145294 88.60793549 52.80121643 88.61235046 53.99612427 C88.61806859 56.43840892 88.6186127 58.88071059 88.61425781 61.32299805 C88.61109952 65.03374655 88.63458428 68.7436956 88.65991211 72.4543457 C88.66218571 74.83845929 88.66288832 77.222575 88.66186523 79.60668945 C88.67107498 80.70286591 88.68028473 81.79904236 88.68977356 82.92843628 C88.6087779 96.59817186 84.60651856 108.18470162 75.31420898 118.32543945 C67.08156403 125.8879854 56.10018458 130.25476315 44.96435547 130.33813477 C43.92234482 130.34774231 42.88033417 130.35734985 41.80674744 130.36724854 C40.68901443 130.37149841 39.57128143 130.37574829 38.41967773 130.38012695 C37.25662613 130.38582703 36.09357452 130.3915271 34.89527893 130.3973999 C32.43328762 130.40683925 29.97128373 130.41337965 27.50927734 130.41723633 C23.77410288 130.42690355 20.03948788 130.45792221 16.30444336 130.48950195 C13.90535806 130.49603649 11.50626885 130.50128519 9.10717773 130.50512695 C8.00361435 130.51747375 6.90005096 130.52982056 5.76304626 130.5425415 C-8.56861498 130.50212077 -19.79830081 126.60065682 -30.51391602 116.98950195 C-40.04622623 106.83850814 -42.0122671 94.42890301 -42.00219727 81.1574707 C-42.00648239 79.90372147 -42.01076752 78.64997223 -42.0151825 77.35823059 C-42.02091351 74.71133314 -42.02237641 72.06482717 -42.01708984 69.41796875 C-42.01245689 66.72085912 -42.01938041 64.02420003 -42.03759766 61.32714844 C-42.06220931 57.41628452 -42.06624874 53.50590272 -42.06469727 49.5949707 C-42.07390701 48.39986374 -42.08311676 47.20475677 -42.09260559 45.97343445 C-42.02322278 33.29881598 -38.68359434 23.10373475 -30.32641602 13.42700195 C-21.10934923 5.52665899 -12.44822316 0.12465375 0 0 Z " fill="#76C2FA" transform="translate(311.701416015625,269.822998046875)"/>
<path d="M0 0 C1.73964523 -0.00642769 1.73964523 -0.00642769 3.51443481 -0.01298523 C5.95671946 -0.01870335 8.39902113 -0.01924747 10.84130859 -0.01489258 C14.5520571 -0.01173429 18.26200615 -0.03521904 21.97265625 -0.06054688 C24.35676984 -0.06282047 26.74088555 -0.06352308 29.125 -0.0625 C30.22117645 -0.07170975 31.31735291 -0.08091949 32.44674683 -0.09040833 C46.11648241 -0.00941267 57.70301216 3.99284668 67.84375 13.28515625 C75.40629594 21.5178012 79.77307369 32.49918065 79.85644531 43.63500977 C79.86605286 44.67702042 79.8756604 45.71903107 79.88555908 46.7926178 C79.8919339 48.4692173 79.8919339 48.4692173 79.8984375 50.1796875 C79.90413757 51.34273911 79.90983765 52.50579071 79.91571045 53.7040863 C79.9251498 56.16607762 79.9316902 58.6280815 79.93554688 61.09008789 C79.9452141 64.82526235 79.97623276 68.55987735 80.0078125 72.29492188 C80.01434703 74.69400717 80.01959573 77.09309638 80.0234375 79.4921875 C80.0357843 80.59575089 80.0481311 81.69931427 80.06085205 82.83631897 C80.02043131 97.16798021 76.11896736 108.39766605 66.5078125 119.11328125 C56.35681869 128.64559147 43.94721356 130.61163234 30.67578125 130.6015625 C28.79515739 130.60799019 28.79515739 130.60799019 26.87654114 130.61454773 C24.22964369 130.62027875 21.58313772 130.62174164 18.9362793 130.61645508 C16.23916967 130.61182213 13.54251057 130.61874564 10.84545898 130.63696289 C6.93459507 130.66157455 3.02421327 130.66561398 -0.88671875 130.6640625 C-2.08182571 130.67327225 -3.27693268 130.68248199 -4.508255 130.69197083 C-17.84305823 130.61897406 -28.50815069 126.78449068 -38.4921875 117.80078125 C-45.98684843 109.92529405 -50.37346934 99.40648598 -50.48168945 88.59936523 C-50.49452469 87.47727158 -50.50735992 86.35517792 -50.52058411 85.19908142 C-50.52797104 83.9938533 -50.53535797 82.78862518 -50.54296875 81.546875 C-50.5510405 80.29503922 -50.55911224 79.04320343 -50.56742859 77.75343323 C-50.58125135 75.10308148 -50.59227176 72.45285326 -50.59985352 69.80249023 C-50.60868342 67.10531821 -50.62949136 64.40866643 -50.66137695 61.71166992 C-50.70426734 57.80241514 -50.72025466 53.89383655 -50.73046875 49.984375 C-50.74797684 48.7933165 -50.76548492 47.602258 -50.78352356 46.37510681 C-50.75077618 33.56795047 -47.13186485 22.53418221 -38.26953125 13.14453125 C-26.97327731 2.46588555 -15.10864556 -0.01251574 0 0 Z " fill="#76C2FA" transform="translate(320.3046875,111.69921875)"/>
<path d="M0 0 C1.04201065 -0.00960754 2.0840213 -0.01921509 3.15760803 -0.02911377 C4.27534103 -0.03336365 5.39307404 -0.03761353 6.54467773 -0.04199219 C8.28925514 -0.0505423 8.28925514 -0.0505423 10.06907654 -0.05926514 C12.53106785 -0.06870449 14.99307174 -0.07524489 17.45507812 -0.07910156 C21.19025259 -0.08876879 24.92486759 -0.11978745 28.65991211 -0.15136719 C31.05899741 -0.15790172 33.45808662 -0.16315042 35.85717773 -0.16699219 C36.96074112 -0.17933899 38.0643045 -0.19168579 39.2013092 -0.20440674 C53.53297045 -0.163986 64.76265628 3.73747795 75.47827148 13.34863281 C85.0105817 23.49962662 86.97662257 35.90923175 86.96655273 49.18066406 C86.97083786 50.4344133 86.97512299 51.68816254 86.97953796 52.97990417 C86.98526898 55.62680163 86.98673188 58.27330759 86.98144531 60.92016602 C86.97681236 63.61727565 86.98373588 66.31393474 87.00195312 69.01098633 C87.02656478 72.92185024 87.03060421 76.83223204 87.02905273 80.74316406 C87.03826248 81.93827103 87.04747223 83.13337799 87.05696106 84.36470032 C86.9839643 97.69950354 83.14948091 108.364596 74.16577148 118.34863281 C66.29028429 125.84329374 55.77147621 130.22991465 44.96435547 130.33813477 C43.28121498 130.35738762 43.28121498 130.35738762 41.56407166 130.37702942 C40.35884354 130.38441635 39.15361542 130.39180328 37.91186523 130.39941406 C36.66002945 130.40748581 35.40819366 130.41555756 34.11842346 130.4238739 C31.46807171 130.43769666 28.8178435 130.44871707 26.16748047 130.45629883 C23.47030845 130.46512874 20.77365666 130.48593667 18.07666016 130.51782227 C14.16740538 130.56071265 10.25882678 130.57669997 6.34936523 130.58691406 C5.15830673 130.60442215 3.96724823 130.62193024 2.74009705 130.63996887 C-10.0670593 130.60722149 -21.10082756 126.98831016 -30.49047852 118.12597656 C-41.16912421 106.82972263 -43.64752551 94.96509088 -43.63500977 79.85644531 C-43.63929489 78.69668182 -43.64358002 77.53691833 -43.647995 76.3420105 C-43.65371312 73.89972585 -43.65425723 71.45742418 -43.64990234 69.01513672 C-43.64674405 65.30438822 -43.67022881 61.59443917 -43.69555664 57.88378906 C-43.69783024 55.49967547 -43.69853285 53.11555977 -43.69750977 50.73144531 C-43.70671951 49.63526886 -43.71592926 48.53909241 -43.72541809 47.40969849 C-43.64442244 33.7399629 -39.64216309 22.15343315 -30.34985352 12.01269531 C-22.11720857 4.45014937 -11.13582911 0.08337162 0 0 Z " fill="#76C2FA" transform="translate(155.334228515625,111.8388671875)"/>
<path d="M0 0 C1.25374924 -0.00428513 2.50749847 -0.00857025 3.79924011 -0.01298523 C6.44613756 -0.01871625 9.09264353 -0.02017914 11.73950195 -0.01489258 C14.43661158 -0.01025963 17.13327068 -0.01718314 19.83032227 -0.03540039 C23.74118618 -0.06001205 27.65156798 -0.06405148 31.5625 -0.0625 C33.35516045 -0.07631462 33.35516045 -0.07631462 35.18403625 -0.09040833 C48.51883948 -0.01741156 59.18393194 3.81707182 69.16796875 12.80078125 C76.66262968 20.67626845 81.04925059 31.19507652 81.1574707 42.00219727 C81.17672356 43.68533775 81.17672356 43.68533775 81.19636536 45.40248108 C81.20375229 46.6077092 81.21113922 47.81293732 81.21875 49.0546875 C81.22682175 50.30652328 81.23489349 51.55835907 81.24320984 52.84812927 C81.2570326 55.49848102 81.26805301 58.14870924 81.27563477 60.79907227 C81.28446467 63.49624429 81.30527261 66.19289607 81.3371582 68.88989258 C81.38004859 72.79914736 81.39603591 76.70772595 81.40625 80.6171875 C81.42375809 81.808246 81.44126617 82.9993045 81.45930481 84.22645569 C81.42655743 97.03361203 77.8076461 108.06738029 68.9453125 117.45703125 C57.64905856 128.13567695 45.78442681 130.61407824 30.67578125 130.6015625 C28.93613602 130.60799019 28.93613602 130.60799019 27.16134644 130.61454773 C24.71906179 130.62026585 22.27676012 130.62080997 19.83447266 130.61645508 C16.12372415 130.61329679 12.4137751 130.63678154 8.703125 130.66210938 C6.31901141 130.66438297 3.9348957 130.66508558 1.55078125 130.6640625 C0.4546048 130.67327225 -0.64157166 130.68248199 -1.77096558 130.69197083 C-15.44070116 130.61097517 -27.02723091 126.60871582 -37.16796875 117.31640625 C-44.73051469 109.0837613 -49.09729244 98.10238185 -49.18066406 86.96655273 C-49.19027161 85.92454208 -49.19987915 84.88253143 -49.20977783 83.8089447 C-49.21402771 82.6912117 -49.21827759 81.5734787 -49.22265625 80.421875 C-49.22835632 79.25882339 -49.2340564 78.09577179 -49.2399292 76.8974762 C-49.24936855 74.43548488 -49.25590895 71.973481 -49.25976562 69.51147461 C-49.26943285 65.77630015 -49.30045151 62.04168515 -49.33203125 58.30664062 C-49.33856578 55.90755533 -49.34381448 53.50846612 -49.34765625 51.109375 C-49.36000305 50.00581161 -49.37234985 48.90224823 -49.3850708 47.76524353 C-49.34465006 33.43358229 -45.44318611 22.20389645 -35.83203125 11.48828125 C-25.68103744 1.95597103 -13.27143231 -0.01006984 0 0 Z " fill="#76C2FA" transform="translate(161.01953125,269.69921875)"/>
</svg>
