<?xml version="1.0" encoding="UTF-8"?>
<svg version="1.1" xmlns="http://www.w3.org/2000/svg" width="512" height="512">
<path d="M0 0 C1.01545898 0.19867676 2.03091797 0.39735352 3.07714844 0.60205078 C52.9758035 10.58327711 96.53871388 34.88580573 133 70 C133.7940625 70.7528125 134.588125 71.505625 135.40625 72.28125 C140.75597303 77.46114055 145.38660506 83.16405541 150 89 C151.19109375 90.48306641 151.19109375 90.48306641 152.40625 91.99609375 C175.32205725 121.03970389 191.22147176 154.85685587 199.6875 190.8125 C199.97306763 191.99936401 199.97306763 191.99936401 200.2644043 193.21020508 C204.22851721 210.89052902 205.555362 228.61292655 205.4375 246.6875 C205.43293793 248.18546112 205.43293793 248.18546112 205.42828369 249.71368408 C205.35621635 265.78341917 204.43972751 281.25213186 201 297 C200.78037598 298.02625488 200.56075195 299.05250977 200.33447266 300.10986328 C191.83138831 338.85817193 174.61772522 375.56726438 149 406 C148.57138672 406.51739746 148.14277344 407.03479492 147.70117188 407.56787109 C137.18164284 420.2564129 126.03816903 431.86528878 113 442 C111.52660156 443.18142578 111.52660156 443.18142578 110.0234375 444.38671875 C79.03075655 469.0530687 42.45229279 485.30136285 3.75 493.25 C3.01966553 493.40114258 2.28933105 493.55228516 1.53686523 493.70800781 C-13.82073758 496.67407563 -29.02143327 497.37492896 -44.625 497.3125 C-45.59588562 497.31034485 -46.56677124 497.3081897 -47.56707764 497.30596924 C-61.90585186 497.25491637 -75.90546967 496.85949913 -90 494 C-91.01545898 493.80132324 -92.03091797 493.60264648 -93.07714844 493.39794922 C-142.9758035 483.41672289 -186.53871388 459.11419427 -223 424 C-223.7940625 423.2471875 -224.588125 422.494375 -225.40625 421.71875 C-230.75597303 416.53885945 -235.38660506 410.83594459 -240 405 C-240.7940625 404.01128906 -241.588125 403.02257812 -242.40625 402.00390625 C-266.9776499 370.86198961 -283.32468106 334.48759715 -291.25 295.6875 C-291.47671387 294.57942993 -291.47671387 294.57942993 -291.70800781 293.44897461 C-292.18439803 290.97158418 -292.60252786 288.49133778 -293 286 C-293.17805176 284.88423584 -293.35610352 283.76847168 -293.53955078 282.61889648 C-295.19998488 270.98027732 -295.3987437 259.43103747 -295.375 247.6875 C-295.37445618 246.6738739 -295.37391235 245.6602478 -295.37335205 244.61590576 C-295.33347417 228.41878779 -294.46747801 212.87491635 -291 197 C-290.78037598 195.97374512 -290.56075195 194.94749023 -290.33447266 193.89013672 C-279.82149525 145.98280374 -255.85138923 104.15003587 -222 69 C-221.2471875 68.2059375 -220.494375 67.411875 -219.71875 66.59375 C-214.53885945 61.24402697 -208.83594459 56.61339494 -203 52 C-202.01128906 51.2059375 -201.02257812 50.411875 -200.00390625 49.59375 C-167.66655102 24.07913264 -130.33332447 7.86607287 -90 0 C-89.17274414 -0.16661133 -88.34548828 -0.33322266 -87.49316406 -0.50488281 C-59.91781494 -5.80488028 -27.50199116 -5.57960557 0 0 Z " fill="#DB4437" transform="translate(301,9)"/>
<path d="M0 0 C69.96 0 139.92 0 212 0 C212 14.62547095 212 14.62547095 211.33010864 21.33624268 C211.25801583 22.07603953 211.18592302 22.81583639 211.11164558 23.57805133 C210.8736059 26.00482438 210.62657152 28.43058736 210.37939453 30.85644531 C210.20476788 32.61708375 210.03069095 34.37777679 209.8571167 36.13851929 C209.38774342 40.88261229 208.91035453 45.62586603 208.43113947 50.36897373 C207.92893046 55.3504624 207.43321095 60.33259762 206.93649292 65.31463623 C206.10202655 73.67376052 205.2622968 82.03234348 204.41943359 90.390625 C203.44663253 100.03812098 202.48234686 109.68643964 201.5225631 119.3352387 C200.59640749 128.64384637 199.66409037 137.95182725 198.72903061 147.25954437 C198.33231482 151.20966659 197.93776436 155.15999609 197.54498672 159.11051178 C197.08210671 163.76337936 196.61382254 168.41567273 196.14144135 173.06758499 C195.96946193 174.76971153 195.79931006 176.47202392 195.63116837 178.17453384 C193.18575524 202.90184586 193.18575524 202.90184586 187 210 C181.71485543 214.15998684 177.09673679 216.11904581 170.34016418 216.14717102 C169.16120575 216.15432632 167.98224731 216.16148163 166.76756287 216.16885376 C165.47246292 216.17154266 164.17736298 216.17423157 162.84301758 216.17700195 C161.46640858 216.18326798 160.08980127 216.1899149 158.7131958 216.19691467 C154.19031957 216.21794421 149.66744305 216.22831728 145.14453125 216.23828125 C143.58609182 216.24232948 142.02765256 216.24644642 140.46921349 216.25063133 C133.14574472 216.26968203 125.82228602 216.28391227 118.49879724 216.2922433 C110.05314327 216.3020101 101.60775177 216.32831537 93.16219026 216.36874419 C86.62957249 216.39893928 80.09702981 216.41371546 73.56434363 216.41702431 C69.66503386 216.41937131 65.76600452 216.42828542 61.86676979 216.45348549 C58.19523857 216.47683035 54.52417115 216.48097405 50.85258484 216.47072411 C48.87170937 216.46999562 46.89085713 216.48904253 44.91007996 216.50878906 C37.34174013 216.46473992 31.31415754 216.02194827 25.52340412 210.62341785 C19.77376186 204.17432733 18.43307551 197.85329876 17.63623047 189.5612793 C17.52610249 188.51353899 17.4159745 187.46579868 17.30250931 186.38630867 C16.93773739 182.88751276 16.58991951 179.38724613 16.2421875 175.88671875 C15.98556271 173.38862966 15.7279618 170.89064069 15.4694519 168.39274597 C14.84730307 162.35343087 14.23630041 156.31308307 13.6305927 150.27210468 C13.14296115 145.41219851 12.64985236 140.55287585 12.1529541 135.69390869 C12.08265275 135.00637689 12.0123514 134.31884509 11.93991971 133.610479 C11.79740967 132.2168663 11.65489615 130.82325395 11.51237917 129.42964196 C10.12978362 115.9014413 8.76929762 102.37110071 7.42291641 88.83925056 C7.2796703 87.3995878 7.13641951 85.9599255 6.99316406 84.52026367 C6.922117 83.80621837 6.85106994 83.09217306 6.77786994 82.35649002 C6.18961845 76.44963838 5.59484288 70.5434548 4.99897778 64.63736707 C4.41257922 58.82167094 3.83113866 53.00549215 3.25340641 47.18892878 C2.91339734 43.76680139 2.57144831 40.34489851 2.22415543 36.92350197 C1.84275341 33.15375987 1.46948927 29.38329312 1.09814453 25.61254883 C0.9860112 24.52231918 0.87387787 23.43208954 0.75834656 22.30882263 C0.02737774 14.76640559 0 7.66157818 0 0 Z " fill="#FEFDFD" transform="translate(150,201)"/>
<path d="M0 0 C1.158983 -0.01606293 2.317966 -0.03212585 3.5120697 -0.04867554 C8.83031575 -0.09341507 14.14841616 -0.13465542 19.46679688 -0.15722656 C22.26108055 -0.17049377 25.0546214 -0.19821407 27.84863281 -0.23925781 C31.89603601 -0.2986899 35.94266073 -0.31596604 39.99047852 -0.33056641 C41.22326035 -0.35323578 42.45604218 -0.37590515 43.72618103 -0.39926147 C56.68703872 -0.36815115 67.56423188 3.7687233 76.88500977 12.77880859 C83.56645482 19.96642373 87.38188851 28.50445275 87.34204102 38.26708984 C87.33991859 39.29283867 87.33991859 39.29283867 87.3377533 40.33930969 C87.33216353 42.51970831 87.31961298 44.7000036 87.30688477 46.88037109 C87.30186844 48.36018732 87.29730576 49.84000515 87.29321289 51.31982422 C87.28219748 54.94420666 87.26493989 58.56852879 87.24438477 62.19287109 C87.85524429 62.18620926 88.46610382 62.17954742 89.09547424 62.17268372 C95.47098511 62.10615452 101.84639685 62.06099754 108.22216797 62.02807617 C110.59948738 62.01301857 112.97677915 61.9925682 115.35400391 61.96655273 C118.77716915 61.93003706 122.19996608 61.91311401 125.62329102 61.89990234 C126.68085098 61.88441849 127.73841095 61.86893463 128.82801819 61.85298157 C135.57515351 61.85145349 140.96891138 62.26321462 146.20532227 66.94677734 C146.9052832 67.84203125 146.9052832 67.84203125 147.61938477 68.75537109 C148.34254883 69.65449219 148.34254883 69.65449219 149.08032227 70.57177734 C152.42331642 75.22728934 151.8314239 80.68851594 151.24438477 86.19287109 C149.2097397 92.27695611 145.22880331 95.24216544 139.73167336 98.16312969 C135.68978407 99.83647824 131.96352042 99.88148174 127.63609314 99.82106018 C126.24870094 99.83170176 126.24870094 99.83170176 124.83328062 99.84255832 C121.75626036 99.86005934 118.68051653 99.84207362 115.60351562 99.82397461 C113.38858976 99.82911639 111.17366798 99.83639961 108.95875549 99.84565735 C102.958788 99.86414521 96.95926584 99.85124931 90.95931697 99.83156705 C84.67433466 99.81515994 78.3893801 99.82399623 72.10438538 99.8290863 C61.55194349 99.83360459 50.99965875 99.81785775 40.44726562 99.78979492 C29.60181306 99.76095335 18.75661322 99.75387871 7.91113281 99.76928711 C-5.17725583 99.78785674 -18.26551514 99.78609843 -31.35391045 99.76707268 C-36.34616658 99.76020617 -41.33832877 99.76123057 -46.33058357 99.76861763 C-52.21008682 99.77628647 -58.08922667 99.76413422 -63.96866798 99.73676872 C-66.12451855 99.7298905 -68.28040309 99.72978085 -70.43625259 99.73698425 C-73.38267445 99.74569381 -76.32797866 99.72969692 -79.27430725 99.70753479 C-80.12421976 99.71577556 -80.97413226 99.72401632 -81.84979969 99.73250681 C-87.58980048 99.65300366 -91.95130773 98.40150136 -96.75561523 95.19287109 C-102.20577068 89.45586536 -103.21914938 84.87184639 -103.06811523 77.10302734 C-102.49023162 71.72148619 -99.60329317 68.83742183 -95.75561523 65.38037109 C-91.64691138 62.3844412 -88.71620719 62.06670798 -83.71166992 62.0793457 C-82.71093445 62.07942123 -81.71019897 62.07949677 -80.67913818 62.07957458 C-79.06957245 62.08731651 -79.06957245 62.08731651 -77.42749023 62.09521484 C-76.32334778 62.09662979 -75.21920532 62.09804474 -74.081604 62.09950256 C-70.55624682 62.10509852 -67.03095322 62.11765031 -63.50561523 62.13037109 C-61.11499115 62.13538662 -58.72436607 62.13994943 -56.33374023 62.14404297 C-50.47434355 62.15506662 -44.61498394 62.17180076 -38.75561523 62.19287109 C-38.7765625 61.30615723 -38.79750977 60.41944336 -38.8190918 59.50585938 C-38.88786166 56.16965031 -38.93769907 52.83421014 -38.9753418 49.49755859 C-38.99527712 48.06221522 -39.02243598 46.62695112 -39.05737305 45.19189453 C-39.38582076 31.33912923 -36.66934248 21.54141852 -26.97827148 11.31787109 C-19.51852535 4.23950257 -10.27012426 0.12976811 0 0 Z " fill="#FEFCFC" transform="translate(231.755615234375,94.80712890625)"/>
<path d="M0 0 C1.15517624 -0.01283524 2.31035248 -0.02567047 3.50053406 -0.03889465 C5.37549309 -0.04997505 5.37549309 -0.04997505 7.28833008 -0.0612793 C8.5746785 -0.06935104 9.86102692 -0.07742279 11.18635559 -0.08573914 C13.91248441 -0.1007554 16.63858729 -0.11059726 19.36474609 -0.11816406 C22.84039248 -0.12919882 26.31539339 -0.16356803 29.79081249 -0.20333576 C33.12329124 -0.23592975 36.45570434 -0.24029212 39.78833008 -0.2487793 C41.64810738 -0.27504143 41.64810738 -0.27504143 43.54545593 -0.30183411 C51.55233141 -0.28182906 57.1959221 0.50220603 63.39379883 5.95825195 C63.83981445 6.52543945 64.28583008 7.09262695 64.74536133 7.67700195 C65.43758789 8.5277832 65.43758789 8.5277832 66.14379883 9.39575195 C73.6251458 20.26038323 69.37036133 25.56573376 69.37036133 43.17700195 C39.67036133 43.17700195 9.97036133 43.17700195 -20.62963867 43.17700195 C-20.62963867 12.55455297 -20.62963867 12.55455297 -13.71557617 5.1184082 C-13.1509668 4.66336914 -12.58635742 4.20833008 -12.00463867 3.73950195 C-11.14999023 3.02987305 -11.14999023 3.02987305 -10.27807617 2.3059082 C-6.95207832 0.02815138 -3.90083175 0.03774619 0 0 Z " fill="#DB4438" transform="translate(231.629638671875,113.822998046875)"/>
<path d="M0 0 C2.87029869 1.79393668 4.49131638 2.98263276 6 6 C6.13265542 8.57598322 6.19019159 11.11029932 6.1875 13.6875 C6.1862915 14.93841431 6.1862915 14.93841431 6.18505859 16.21459961 C6.10343141 25.16558004 5.47083265 34.07130207 4.85229492 42.99829102 C4.14357237 53.31125835 3.59883398 63.62621483 3.12353516 73.95248413 C3.00017587 76.62119533 2.87359194 79.28973553 2.74609375 81.95825195 C2.36396703 89.99048038 1.99404516 98.02250327 1.67681885 106.05758667 C1.53874523 109.47710449 1.38606892 112.89587582 1.23046875 116.31463623 C1.16086616 117.92181961 1.09789995 119.52930589 1.04199219 121.13702393 C0.96421483 123.35807109 0.86357223 125.57700938 0.7578125 127.796875 C0.7077002 129.04823242 0.65758789 130.29958984 0.60595703 131.58886719 C-0.10750646 135.60518947 -1.46562837 137.83246914 -4 141 C-7.68497796 143.45665197 -10.71971786 143.70086491 -15 143 C-17.8100346 141.20636089 -19.50940468 139.98119065 -21 137 C-21.09800965 134.30193963 -21.1348644 131.63531035 -21.1171875 128.9375 C-21.11411591 128.13038574 -21.11104431 127.32327148 -21.10787964 126.49169922 C-21.05141577 119.05695747 -20.70822405 111.65236238 -20.25976562 104.2322998 C-20.01899132 100.24403922 -19.79575037 96.25477685 -19.5703125 92.265625 C-19.52279846 91.4318634 -19.47528442 90.59810181 -19.42633057 89.73907471 C-18.9312735 80.96664669 -18.52634502 72.19046925 -18.1232605 63.41342163 C-17.80096888 56.44932146 -17.46071738 49.48607136 -17.12176514 42.52276611 C-17.00098095 40.02032362 -16.88330671 37.51774967 -16.76611328 35.01513672 C-16.58259511 31.12582662 -16.3846369 27.23750326 -16.17553711 23.3494873 C-16.10106826 21.92516997 -16.03128984 20.50059848 -15.96655273 19.07580566 C-15.87720027 17.12673216 -15.76913247 15.17854359 -15.66015625 13.23046875 C-15.60480713 12.14145264 -15.54945801 11.05243652 -15.49243164 9.93041992 C-14.93770407 6.62928209 -13.97733199 4.68521861 -12 2 C-7.98141405 -0.6790573 -4.72358279 -0.69610694 0 0 Z " fill="#DB4639" transform="translate(296,229)"/>
<path d="M0 0 C3.87868484 0.22543772 4.86517859 0.58294462 8.0625 3.0625 C10.85868525 6.85088001 11.18634668 8.95088519 11.46484375 13.625 C11.54154297 14.89053711 11.61824219 16.15607422 11.69726562 17.45996094 C11.77760004 18.86912604 11.85766942 20.27830627 11.9375 21.6875 C12.02399516 23.16178934 12.11058593 24.63607306 12.19726562 26.11035156 C12.98242748 39.65830592 13.62250478 53.21329646 14.24536133 66.76953125 C14.64799378 75.49986763 15.07306685 84.22761261 15.5703125 92.953125 C15.61702087 93.77963562 15.66372925 94.60614624 15.71185303 95.45770264 C15.93153107 99.33388279 16.15640548 103.20963288 16.390625 107.08496094 C16.63776075 111.28434453 16.8352307 115.48411501 17 119.6875 C17.04997131 120.87714355 17.04997131 120.87714355 17.10095215 122.09082031 C17.19318316 124.5397044 17.25341672 126.98744714 17.3046875 129.4375 C17.33490997 130.18854004 17.36513245 130.93958008 17.39627075 131.71337891 C17.43984715 135.43669882 17.1362725 137.47502873 15.10595703 140.640625 C11.65562197 143.99416189 8.93012123 144.13944523 4.26171875 144.109375 C1.586102 143.61029623 0.73643043 142.93223723 -1 140.875 C-3.79798919 136.41570473 -4.18650363 133.17689935 -4.46484375 127.99609375 C-4.50235245 127.31589172 -4.53986115 126.6356897 -4.57850647 125.93487549 C-4.70236359 123.66512181 -4.8199846 121.3950902 -4.9375 119.125 C-5.02385144 117.51732123 -5.11044489 115.90965545 -5.19726562 114.30200195 C-5.90274466 101.10372553 -6.51750324 87.90113302 -7.12271118 74.69793701 C-7.65853627 63.03724189 -8.32077061 51.39506811 -9.125 39.75 C-10.25037512 22.72334889 -10.25037512 22.72334889 -10.4375 14.625 C-10.47182129 13.88709229 -10.50614258 13.14918457 -10.54150391 12.38891602 C-10.57264799 8.65474051 -9.99899943 6.17792795 -7.78515625 3.234375 C-4.84735246 0.54791207 -3.8879511 -0.11542355 0 0 Z " fill="#DB4639" transform="translate(220,228.3125)"/>
</svg>
