<?xml version="1.0" encoding="UTF-8"?>
<svg version="1.1" xmlns="http://www.w3.org/2000/svg" width="512" height="512">
<path d="M0 0 C19.96520013 19.1408016 29.8718261 43.72078604 31.7890625 71.10131836 C32.37354261 100.83674402 20.84357145 127.36692744 0.44921875 148.67944336 C-11.65422583 160.84391371 -26.46958633 168.06079197 -42.4609375 173.53100586 C-44.59041166 187.87774883 -46.71663666 202.22496868 -48.83856201 216.5728302 C-49.85097572 223.41656699 -50.86652456 230.25982245 -51.88632202 237.10246277 C-52.4495653 240.88578698 -53.00993577 244.66953255 -53.56951904 248.45339966 C-53.8293467 250.2059297 -54.09044417 251.95827197 -54.35284424 253.7104187 C-54.71511147 256.13060468 -55.07293672 258.55140776 -55.4296875 260.97241211 C-55.53554169 261.67206085 -55.64139587 262.37170959 -55.75045776 263.09255981 C-56.26127224 266.59256075 -56.71657393 269.99395677 -56.4609375 273.53100586 C-55.06380124 275.16697745 -55.06380124 275.16697745 -53.1484375 276.40600586 C-48.86248919 279.81567729 -46.94549689 283.17543208 -46.1484375 288.69506836 C-45.79467787 295.12907167 -47.54648247 300.22179755 -51.81640625 305.07006836 C-58.65666791 311.34183642 -66.83726562 310.81991812 -75.54434204 310.78929138 C-76.75961024 310.79296709 -77.97487843 310.79664279 -79.22697294 310.80042988 C-82.58784534 310.80866735 -85.94850402 310.80804566 -89.30936956 310.80370295 C-92.93856368 310.80122136 -96.56773064 310.81030174 -100.19691467 310.81808472 C-106.48175146 310.83011615 -112.76656291 310.83523692 -119.05141068 310.83596611 C-128.14364381 310.83729278 -137.23581551 310.8524129 -146.32802694 310.87146128 C-161.08749213 310.90228652 -175.84695888 310.92646088 -190.60644531 310.94433594 C-191.9308591 310.94594496 -191.9308591 310.94594496 -193.28202872 310.94758648 C-203.13725687 310.95941171 -212.99248564 310.96961723 -222.84771729 310.97802734 C-226.42386883 310.98110144 -230.00002036 310.98419019 -233.57617188 310.98730469 C-234.45864348 310.98807003 -235.34111509 310.98883537 -236.25032826 310.9896239 C-250.95771128 311.00269918 -265.66504969 311.02732765 -280.37239969 311.06104809 C-289.44368246 311.08134836 -298.51486989 311.09162608 -307.58617555 311.08905888 C-313.7983013 311.08802487 -320.01035157 311.09764361 -326.22245099 311.11569791 C-329.80789345 311.12575485 -333.39316894 311.13085823 -336.97862053 311.12293053 C-340.86301511 311.11444375 -344.74712814 311.12895872 -348.63150024 311.14573669 C-349.76777284 311.13952488 -350.90404544 311.13331306 -352.07475054 311.12691301 C-353.6350608 311.13924773 -353.6350608 311.13924773 -355.22689247 311.15183163 C-356.57167606 311.15305331 -356.57167606 311.15305331 -357.943627 311.15429968 C-361.05038328 311.61921424 -362.91950725 312.71058564 -365.4609375 314.53100586 C-368.57011557 318.88385516 -368.84082986 322.29796264 -368.03125 327.41381836 C-367.17285295 330.60047043 -365.91412949 332.34302381 -363.4609375 334.53100586 C-355.82507194 337.7753797 -346.58809104 337.77388046 -338.4609375 336.53100586 C-334.97155356 335.09848161 -332.17014112 333.40312978 -329.05859375 331.28881836 C-319.34415685 324.71513926 -305.88443097 325.15657244 -294.7265625 327.22241211 C-286.84985817 329.4319571 -286.84985817 329.4319571 -283.65646267 331.95888138 C-277.03922241 337.14596646 -271.4177437 337.38951463 -263.20532227 337.30737305 C-261.90333893 337.31788696 -260.60135559 337.32840088 -259.25991821 337.3392334 C-255.71202609 337.36642101 -252.16518912 337.35605123 -248.61728024 337.33695889 C-244.889027 337.32167846 -241.16085904 337.3358812 -237.43260193 337.34527588 C-231.17259648 337.35616733 -224.91301684 337.34187247 -218.65307617 337.31323242 C-211.4369629 337.28059699 -204.22186739 337.29115111 -197.00577885 337.32419086 C-190.78884403 337.3515063 -184.57221388 337.35521816 -178.35523838 337.33955884 C-174.65152293 337.3302504 -170.94828426 337.32882926 -167.2446003 337.34877777 C-163.11111308 337.36948912 -158.97935204 337.3407067 -154.84594727 337.30737305 C-153.02756096 337.32559113 -153.02756096 337.32559113 -151.17243958 337.34417725 C-142.94617852 337.22173011 -138.13301409 335.20061128 -131.4609375 330.53100586 C-120.54696765 324.89501942 -105.48233156 324.534353 -93.8359375 328.15600586 C-90.14607032 329.56817725 -87.45332394 331.24720396 -84.3984375 333.71850586 C-79.25353418 337.51098055 -73.62538532 337.19672324 -67.46264648 337.12939453 C-60.81782833 337.13825338 -55.45599934 338.57409767 -50.62109375 343.34741211 C-50.25886719 343.92362305 -49.89664062 344.49983398 -49.5234375 345.09350586 C-49.14316406 345.67229492 -48.76289063 346.25108398 -48.37109375 346.84741211 C-45.97362074 351.28222269 -46.01140273 355.62699018 -46.4609375 360.53100586 C-48.1182007 365.76446859 -50.25534279 369.01004284 -54.4609375 372.53100586 C-55.47542969 372.92932617 -56.48992187 373.32764648 -57.53515625 373.73803711 C-60.75444459 375.27627952 -60.75444459 375.27627952 -61.4921875 378.68334961 C-61.646875 379.93245117 -61.8015625 381.18155273 -61.9609375 382.46850586 C-64.04566296 395.73101047 -70.43335212 406.3915827 -81.16796875 414.60131836 C-92.88620636 422.43532896 -105.52546784 425.17900767 -119.51953125 423.07006836 C-133.00487158 420.0889138 -143.95594008 413.1425113 -151.4609375 401.53100586 C-156.52927434 392.62301989 -158.4609375 386.00357522 -158.4609375 375.53100586 C-191.4609375 375.53100586 -224.4609375 375.53100586 -258.4609375 375.53100586 C-258.7909375 379.16100586 -259.1209375 382.79100586 -259.4609375 386.53100586 C-263.14565923 399.24402984 -270.62084715 409.942443 -281.83984375 417.03491211 C-294.51517281 423.850699 -307.74442211 425.36163017 -321.55078125 421.49584961 C-334.44876411 417.21960563 -344.98878314 408.58260364 -351.4609375 396.53100586 C-354.29246696 389.55720926 -356.05170884 383.06334041 -355.4609375 375.53100586 C-356.6778125 375.61350586 -357.8946875 375.69600586 -359.1484375 375.78100586 C-372.56886133 375.75987133 -384.57673215 368.9907407 -394.1015625 360.04272461 C-404.16678876 349.32759136 -408.54779445 336.08823039 -408.4609375 321.53100586 C-408.01137811 309.03635525 -402.43346694 295.41893762 -393.6328125 286.33569336 C-384.86355629 279.04900924 -374.33211614 271.61783827 -362.4609375 272.53100586 C-362.57179373 271.9848078 -362.68264996 271.43860973 -362.79686546 270.87586021 C-364.75642448 260.70495786 -366.0020264 250.43159177 -367.35009766 240.16625977 C-367.6358816 238.00526038 -367.92189336 235.84429111 -368.20811462 233.68334961 C-368.98117704 227.84121024 -369.7508268 221.99862611 -370.51966906 216.15593004 C-371.16233958 211.27451541 -371.80670438 206.39332505 -372.45107019 201.51213396 C-373.97046166 190.00230531 -375.48710355 178.49211669 -377.00195312 166.98168945 C-378.5650313 155.10512558 -380.1324404 143.22914258 -381.70201838 131.35343611 C-383.05047957 121.14970957 -384.3964307 110.94565415 -385.74032247 100.74132478 C-386.54261446 94.64954489 -387.34582655 88.55789001 -388.15138626 82.46654129 C-388.90778962 76.74595206 -389.66105438 71.02495823 -390.4118824 65.30363464 C-390.68811234 63.20280169 -390.96545002 61.10211406 -391.24396706 59.0015831 C-391.62345245 56.13820902 -391.99895644 53.27434025 -392.3734436 50.41030884 C-392.48491686 49.57636774 -392.59639013 48.74242664 -392.71124136 47.88321459 C-393.20568762 44.07016353 -393.59566572 40.386509 -393.4609375 36.53100586 C-394.26499023 36.40048828 -395.06904297 36.2699707 -395.89746094 36.13549805 C-405.09173181 34.6376582 -414.27827333 33.09826736 -423.4609375 31.53100586 C-424.53504883 31.34989258 -425.60916016 31.1687793 -426.71582031 30.98217773 C-429.42653581 30.51810761 -432.13148599 30.03011064 -434.8359375 29.53100586 C-435.98980957 29.33716309 -435.98980957 29.33716309 -437.16699219 29.1394043 C-443.80171213 27.86565628 -450.00904946 25.08014928 -453.8984375 19.34350586 C-456.65312475 13.68655882 -457.31652393 7.30878042 -455.4609375 1.28100586 C-453.14505157 -3.96691913 -448.93758444 -7.03514591 -444.0859375 -9.84399414 C-435.67078462 -11.84760197 -427.02576981 -9.7149769 -418.703125 -8.16821289 C-417.38762564 -7.92832194 -416.07204164 -7.68889468 -414.75637817 -7.4499054 C-412.01384738 -6.94982558 -409.2724515 -6.44402607 -406.53173828 -5.93408203 C-403.03602376 -5.28416192 -399.53782309 -4.64896006 -396.03863335 -4.01805401 C-393.32647754 -3.5273162 -390.61582711 -3.02863831 -387.90555191 -2.52762794 C-385.99489822 -2.17590277 -384.08301465 -1.83087956 -382.17111206 -1.48600769 C-373.9823585 0.05157872 -366.62876903 1.53450298 -360.4609375 7.53100586 C-357.39229011 12.58130588 -356.63300657 17.35352052 -355.890625 23.10131836 C-355.76406525 24.01879852 -355.63750549 24.93627869 -355.5071106 25.88156128 C-355.2417985 27.81904886 -354.98155365 29.75723629 -354.72607422 31.69604492 C-354.33976615 34.62695799 -353.93894134 37.55557965 -353.53515625 40.48413086 C-353.27778723 42.3772435 -353.02125074 44.27046954 -352.765625 46.16381836 C-352.64895477 47.02363312 -352.53228455 47.88344788 -352.41207886 48.76931763 C-351.54655557 55.36171608 -351.01489386 61.88352956 -350.4609375 68.53100586 C-292.3809375 68.53100586 -234.3009375 68.53100586 -174.4609375 68.53100586 C-173.8009375 63.25100586 -173.1409375 57.97100586 -172.4609375 52.53100586 C-166.56923337 26.22386183 -150.05765146 1.99278519 -127.3359375 -12.59399414 C-85.98057607 -36.93208492 -35.61967532 -32.88540858 0 0 Z " fill="#242021" transform="translate(468.4609375,58.468994140625)"/>
<path d="M0 0 C58.08 0 116.16 0 176 0 C176.99 6.27 177.98 12.54 179 19 C187.81024411 47.68451569 203.63300343 70.47229783 230.5625 84.8125 C246.74017132 93.1902544 262.29549691 96.52585228 280.375 96.1875 C281.80467311 96.17239782 283.23436198 96.15871937 284.6640625 96.14648438 C288.10971198 96.11398113 291.55474849 96.06251852 295 96 C294.41040901 107.55045973 292.86506478 118.87990881 291.1875 130.3125 C290.9161131 132.18722286 290.64495613 134.06197902 290.37402344 135.93676758 C288.76534215 147.0187742 287.08224141 158.08605008 285.26513672 169.13598633 C284.15375637 175.90827458 283.20828963 182.68572424 282.39453125 189.5 C282 192 282 192 281 193 C279.6290769 193.09643128 278.25321556 193.12371921 276.8789053 193.12304783 C275.53829482 193.1260344 275.53829482 193.1260344 274.17060131 193.12908131 C273.17743139 193.12616847 272.18426146 193.12325563 271.16099548 193.12025452 C269.59162974 193.12153615 269.59162974 193.12153615 267.99055964 193.12284368 C264.45584766 193.12450161 260.92118228 193.11897202 257.38647461 193.11352539 C254.8641917 193.11324356 252.34190871 193.11340117 249.81962585 193.1139679 C244.37444902 193.11419622 238.9292874 193.11134474 233.48411369 193.10573006 C225.611222 193.09761735 217.7383361 193.09500007 209.86544067 193.09374207 C197.09347735 193.09155118 184.32152041 193.08489012 171.54956055 193.07543945 C159.13973014 193.06626627 146.72990147 193.05918498 134.32006836 193.05493164 C133.55566021 193.05466892 132.79125207 193.05440619 132.00368004 193.05413551 C128.16902845 193.05283051 124.33437684 193.05156679 120.49972522 193.05032361 C88.66647881 193.03994987 56.83324039 193.02225645 25 193 C24.1766734 187.12740814 23.35441428 181.25466809 22.53308296 175.38179684 C22.25436676 173.38989904 21.97537448 171.39803984 21.69608498 169.40622234 C19.75549026 155.56466346 17.89074926 141.71985634 16.21185303 127.84378052 C14.43180273 113.14651251 12.55806968 98.47447039 10.39794922 83.82788086 C8.92297174 73.7268229 7.70877783 63.59874923 6.50610352 53.46264648 C5.21535619 42.61138696 3.79900826 31.78099382 2.30664062 20.95556641 C2.15001953 19.80749512 1.99339844 18.65942383 1.83203125 17.4765625 C1.69514893 16.48736816 1.5582666 15.49817383 1.41723633 14.47900391 C0.8397866 9.66410712 0.43904404 4.8294844 0 0 Z " fill="#FEC413" transform="translate(119,138)"/>
<path d="M0 0 C17.35699572 15.13219005 30.30726861 36.08418513 32.76171875 59.31640625 C33.70000782 74.39995715 32.74747558 88.01947777 27.76171875 102.31640625 C27.36597656 103.4559375 26.97023438 104.59546875 26.5625 105.76953125 C18.24889285 127.31309795 0.99994228 145.65638959 -20.0859375 155.11328125 C-44.31514447 165.34755571 -69.71043463 166.57042198 -94.36328125 157.12890625 C-120.43778038 145.35792853 -137.14755787 126.12147539 -147.61328125 99.62890625 C-155.08201772 77.28879186 -152.60739172 50.85892308 -142.19897461 29.97705078 C-138.03330956 21.91144459 -133.40915404 15.01588267 -127.23828125 8.31640625 C-126.70074219 7.69894531 -126.16320312 7.08148438 -125.609375 6.4453125 C-93.5245328 -28.37357641 -35.5740036 -29.96309363 0 0 Z " fill="#ED3624" transform="translate(456.23828125,61.68359375)"/>
<path d="M0 0 C2.0464456 0.3542583 4.09156673 0.71622892 6.13549805 1.0847168 C7.23008835 1.27736618 8.32467865 1.47001556 9.45243835 1.66850281 C11.76005746 2.07631352 14.06708284 2.48749666 16.37353516 2.90185547 C19.87403566 3.5297773 23.37659907 4.14496537 26.87963867 4.75854492 C29.13172688 5.15817505 31.3836845 5.5585419 33.63549805 5.9597168 C34.66919022 6.14109695 35.70288239 6.32247711 36.76789856 6.50935364 C41.75751936 7.41233798 46.71631257 8.41503545 51.64404297 9.61279297 C52.52235275 9.82441574 53.40066254 10.03603851 54.30558777 10.2540741 C57.10007933 11.44017781 58.06776364 12.61740309 59.5847168 15.22143555 C60.13523106 17.90626531 60.53465222 20.44655729 60.83081055 23.15893555 C60.92665436 23.94263519 61.02249817 24.72633484 61.12124634 25.53378296 C61.43248559 28.09515317 61.72712141 30.65816005 62.0222168 33.22143555 C62.3446561 35.90170646 62.67161548 38.58140052 62.99894714 41.26107788 C63.21775394 43.05374011 63.43521008 44.84656771 63.65132141 46.63955688 C64.53907421 53.97647403 65.56262602 61.28585055 66.6472168 68.59643555 C68.2212171 79.32388934 69.56125527 90.07074587 70.83499146 100.83685303 C71.95901477 110.3189386 73.19648071 119.77356708 74.5847168 129.22143555 C76.06837039 139.33027453 77.37788741 149.45162256 78.5847168 159.59643555 C81.3364905 182.69561021 84.49458661 205.73737617 87.72241211 228.77416992 C88.75478294 236.15491027 89.76583929 243.53736028 90.72143555 250.9284668 C90.85625839 251.96534134 90.85625839 251.96534134 90.99380493 253.02316284 C91.41601652 256.27142368 91.83321618 259.52015148 92.2409668 262.77026367 C92.84185321 272.08359117 92.84185321 272.08359117 96.5847168 280.22143555 C98.01350178 280.31944914 99.44711078 280.34806268 100.87925339 280.3489275 C101.81171096 280.35193515 102.74416852 280.3549428 103.70488238 280.35804158 C104.74133309 280.35629121 105.77778379 280.35454084 106.84564209 280.35273743 C108.48322003 280.355911 108.48322003 280.355911 110.15388036 280.35914868 C113.84274975 280.36518023 117.53158523 280.36414629 121.22045898 280.36328125 C123.85285501 280.36631066 126.4852505 280.3698315 129.11764526 280.37380981 C134.80180605 280.38193484 140.48596234 280.38687081 146.17012787 280.39010048 C155.15252072 280.3955891 164.13487542 280.41247874 173.11724854 280.43144226 C176.18822854 280.43779954 179.25920865 280.44410791 182.33018875 280.45041943 C183.09774089 280.45200319 183.86529302 280.45358695 184.65610431 280.45521871 C193.39988385 280.47316745 202.1436661 280.48938757 210.88745117 280.50439453 C211.68705888 280.5057704 212.48666658 280.50714627 213.31050482 280.50856384 C226.2659806 280.53048992 239.22144662 280.54124861 252.17693767 280.54876528 C265.46937327 280.55683308 278.76172497 280.58011371 292.05411267 280.61671895 C300.25747859 280.63876223 308.46067206 280.64840305 316.66406611 280.64221861 C322.2861841 280.63904677 327.90815475 280.65035583 333.53022715 280.67311303 C336.77545501 280.68579592 340.02028718 280.68976132 343.26553726 280.68069649 C346.78264648 280.67186274 350.29882369 280.68741447 353.81585693 280.70918274 C354.84338475 280.7007402 355.87091257 280.69229766 356.92957759 280.68359929 C361.26742573 280.73342783 363.89597103 280.82895 367.71870804 283.0073576 C369.94964466 285.65443391 370.18064136 287.69644111 370.2487793 291.1237793 C369.20052488 294.43503 367.52527988 296.47365366 364.5847168 298.22143555 C360.62977154 298.97428795 356.71481635 298.87654492 352.69953918 298.82702637 C351.48134056 298.83185421 350.26314194 298.83668206 349.00802821 298.84165621 C345.6290344 298.85012646 342.25146182 298.83622861 338.87262523 298.81301141 C335.22762339 298.79346517 331.5826856 298.8028605 327.93765259 298.8089447 C321.62105786 298.81574083 315.30469391 298.80482905 308.9881382 298.78245544 C299.84458667 298.75053321 290.7012507 298.75090109 281.55765828 298.76009589 C266.70849687 298.77461557 251.85940831 298.7705193 237.01025391 298.7512207 C236.1215107 298.75007226 235.2327675 298.74892381 234.31709268 298.74774057 C227.10875217 298.73828648 219.90041301 298.72793344 212.69207382 298.71753216 C206.39839479 298.70848677 200.10471542 298.69979706 193.81103516 298.69165039 C192.92489113 298.69049675 192.0387471 298.68934312 191.12575022 298.68815452 C176.33818146 298.66951131 161.55067577 298.67045594 146.76310366 298.68531179 C137.64579652 298.69352199 128.52883235 298.68407417 119.41157719 298.65171611 C113.16014216 298.63064727 106.90885835 298.62726888 100.65739701 298.63766444 C97.05298631 298.64302168 93.44906785 298.64020477 89.84472847 298.61532402 C85.93123155 298.58846199 82.018383 298.60043352 78.10481262 298.61584473 C76.97395809 298.60176087 75.84310357 298.58767701 74.67798072 298.57316637 C67.36765794 298.64469145 61.6359783 299.96064787 55.5847168 304.22143555 C49.17207003 311.07110577 47.95347435 317.11148643 48.1784668 326.40893555 C48.86368773 332.83947042 51.65682026 336.66415882 56.4362793 340.83862305 C61.60936683 344.73494855 66.00045188 345.42672018 72.2722168 345.78393555 C72.97411133 345.82711914 73.67600586 345.87030273 74.39916992 345.91479492 C76.12746886 346.02060914 77.85606789 346.12150135 79.5847168 346.22143555 C78.46033953 349.05661098 77.30484506 351.86280828 76.0847168 354.65893555 C74.75566167 357.81544147 73.61922485 360.95875632 72.5847168 364.22143555 C61.11491192 365.10372823 51.22788375 360.54411866 42.5847168 353.22143555 C34.70230886 345.95484073 30.09967516 336.5321559 29.34643555 325.83862305 C29.10487974 313.65912493 31.42831164 304.50354311 39.5847168 295.22143555 C40.08616211 294.61557617 40.58760742 294.0097168 41.10424805 293.38549805 C48.70509692 284.91545234 59.03675822 281.29016603 70.08862305 280.6003418 C72.75324466 280.44822442 72.75324466 280.44822442 74.5847168 278.22143555 C74.68988516 274.99744737 74.68988516 274.99744737 74.3503418 271.19799805 C74.27206146 270.13024643 74.27206146 270.13024643 74.19219971 269.04092407 C73.54849279 260.85382561 72.45425986 252.72936331 71.3347168 244.59643555 C71.11081201 242.93766192 70.887519 241.27880562 70.66479492 239.61987305 C70.20359712 236.18823622 69.73982369 232.75696263 69.27416992 229.32592773 C68.29274002 222.07937122 67.34369328 214.82858677 66.39373779 207.57785034 C65.97758753 204.40452993 65.55948473 201.23146787 65.14144897 198.05839539 C64.32352555 191.8494543 63.50803091 185.64020993 62.69856262 179.43016052 C62.20333638 175.63128068 61.70681862 171.83257038 61.2097168 168.03393555 C61.11014679 167.27279449 61.01057678 166.51165344 60.9079895 165.72744751 C59.59357486 155.69684457 58.24018555 145.67209903 56.85424805 135.65112305 C56.70448517 134.56822998 56.55472229 133.48533691 56.40042114 132.36962891 C56.09465487 130.15954174 55.78885839 127.94945876 55.48303223 125.73937988 C55.33096313 124.64033325 55.17889404 123.54128662 55.0222168 122.40893555 C54.87030884 121.31117798 54.71840088 120.21342041 54.56188965 119.08239746 C52.75363058 105.99439138 51.01239489 92.90471374 49.4597168 79.78393555 C49.15139548 77.24093375 48.84280336 74.69796477 48.53393555 72.1550293 C48.01895954 67.90444226 47.5188505 63.6534083 47.0480957 59.39770508 C46.582066 55.19376264 46.0834156 50.99469414 45.56549072 46.79684448 C45.37186233 45.17900972 45.18977696 43.55974651 45.0199585 41.9392395 C44.7837242 39.69782388 44.50741998 37.46478183 44.22143555 35.22924805 C44.07407959 33.94679199 43.92672363 32.66433594 43.77490234 31.34301758 C42.85317279 27.96947329 42.85317279 27.96947329 39.61352539 26.40673828 C35.02031242 24.86066052 30.25543609 24.05392867 25.48706055 23.2487793 C24.53456924 23.08019913 23.58207794 22.91161896 22.60072327 22.7379303 C19.57589979 22.20355644 16.54928261 21.68044438 13.5222168 21.15893555 C10.49185632 20.63247155 7.46199343 20.1034965 4.43299866 19.56922913 C2.55399703 19.238222 0.67417134 18.91184885 -1.20655823 18.59080505 C-14.17150795 16.31883587 -14.17150795 16.31883587 -17.4152832 12.22143555 C-18.85959175 9.33281845 -18.79216826 7.42495853 -18.4152832 4.22143555 C-13.62356639 -2.66665738 -7.39557453 -1.16291617 0 0 Z " fill="#3C79D1" transform="translate(41.415283203125,59.778564453125)"/>
<path d="M0 0 C7.0741164 5.51881421 13.4849023 13.95881918 15 23 C15.8798343 35.93789129 14.69660085 46.61655284 6.046875 56.9296875 C-2.349123 65.42182288 -11.10630913 69.22803781 -22.9375 69.4375 C-34.58766938 69.35257051 -42.44101682 64.9714076 -50.875 57.29296875 C-57.61799096 50.3901224 -61.21497438 41.44140915 -61.5 31.8125 C-60.93460868 20.48979479 -56.62093221 10.05326984 -48.3125 2.1875 C-33.74926621 -9.65913056 -15.55192297 -9.70756975 0 0 Z " fill="#A1A29E" transform="translate(184,402)"/>
<path d="M0 0 C11.72962678 6.03085216 17.80170675 14.38558899 21.95532227 26.84643555 C22.72410749 39.17656784 21.42846584 48.76432469 13.95532227 58.84643555 C6.56957875 66.97075341 -1.3568063 72.21848805 -12.39233398 73.11987305 C-23.89612457 73.43438257 -32.41527565 71.19602863 -41.41967773 63.72143555 C-49.75016381 55.67220383 -53.90210439 45.96907171 -54.41967773 34.53393555 C-54.21073858 25.0924974 -50.30970817 15.89781754 -44.04467773 8.84643555 C-31.70012096 -1.80121086 -15.65565815 -6.93289933 0 0 Z " fill="#A1A29E" transform="translate(374.044677734375,398.153564453125)"/>
<path d="M0 0 C3.69806227 2.7319732 6.76572745 6.23067364 8.82421875 10.34765625 C9.37339206 21.7270381 8.81704228 33.16288709 8.18643188 44.5296936 C8.11220931 45.89753278 8.0437354 47.26569722 7.98129272 48.63412476 C7.22457135 64.75708877 7.22457135 64.75708877 1.34448242 70.89135742 C-3.70097916 75.33444552 -7.9829092 75.69715226 -14.44921875 75.62890625 C-19.49641836 75.10827821 -22.1093192 72.50299014 -25.42578125 68.91015625 C-28.63559224 64.21007587 -29.45436259 60.19570148 -29.7734375 54.54296875 C-29.89235352 52.58423828 -29.89235352 52.58423828 -30.01367188 50.5859375 C-30.08900709 49.21486924 -30.16387317 47.84377513 -30.23828125 46.47265625 C-30.39178269 43.78749802 -30.55090839 41.10275462 -30.7109375 38.41796875 C-30.80967163 36.63543701 -30.80967163 36.63543701 -30.91040039 34.81689453 C-31.17988558 31.29400163 -31.65097451 27.84065385 -32.17578125 24.34765625 C-32.78379349 17.18108577 -32.638392 11.23582321 -28.17578125 5.34765625 C-20.35838615 -2.90225866 -10.49198603 -5.93765538 0 0 Z " fill="#FEFDFD" transform="translate(408.17578125,70.65234375)"/>
<path d="M0 0 C38.61 0 77.22 0 117 0 C116.34 1.65 115.68 3.3 115 5 C113.35 9.29 111.7 13.58 110 18 C76.01 18 42.02 18 7 18 C5.68 14.04 4.36 10.08 3 6 C2.01 4.02 1.02 2.04 0 0 Z " fill="#3C77CE" transform="translate(201,406)"/>
<path d="M0 0 C5.58575988 3.38900726 9.2438382 7.76152008 11.32421875 13.97265625 C12.34978042 19.87879264 11.63699353 24.93760044 8.66015625 30.15234375 C5.35388824 34.6573756 0.84278716 38.68926825 -4.67578125 39.97265625 C-11.80823431 41.02079451 -16.55189205 39.67109445 -22.5390625 35.6953125 C-26.31603099 32.65026112 -28.13427291 29.59718126 -29.67578125 24.97265625 C-30.34095599 17.5139756 -30.34009229 11.98716259 -25.67578125 5.97265625 C-18.53906059 -1.16406441 -9.75989598 -3.74723013 0 0 Z " fill="#252223" transform="translate(367.67578125,414.02734375)"/>
<path d="M0 0 C6.08793083 3.53099988 9.89173765 8.17242584 12.125 14.8125 C13.09310242 20.40598066 12.23781779 25.02363755 9.4609375 29.95703125 C6.18578521 34.50585387 1.6491864 38.49721752 -3.875 39.8125 C-10.48367012 40.62744198 -15.34139431 39.51771519 -20.875 35.8125 C-25.83082935 31.73770698 -28.37456931 27.49149045 -29.23046875 21.19921875 C-29.57740259 14.41994394 -28.33152724 9.96307656 -23.875 4.8125 C-17.07252156 -1.49223612 -8.89740088 -3.44163199 0 0 Z " fill="#252122" transform="translate(169.875,414.1875)"/>
<path d="M0 0 C5.20561283 2.90313023 8.53941043 6.53639467 11.25 11.8125 C12.22934346 18.20911272 11.89879433 24.47270007 8.58984375 30.125 C5.34268333 34.21471808 1.37809581 36.83052421 -3.75 37.8125 C-10.84572861 38.27779368 -15.45447779 36.98454873 -21.5 33 C-26.05571648 28.5708312 -26.98354296 24.66683355 -27.25 18.4375 C-27.09712411 12.34331109 -25.96618741 8.27023981 -21.75 3.8125 C-14.84089438 -1.57660238 -8.30102019 -2.62865639 0 0 Z " fill="#FEFCFC" transform="translate(404.75,160.1875)"/>
<path d="M0 0 C3.02508145 1.73602105 5.41790069 3.83580137 7 7 C7.44408691 10.9079648 7.13704844 12.74548146 5.25 16.25 C2.27531632 19.8857245 0.7014101 20.74108977 -3.875 21.4375 C-8.2682371 20.82244681 -9.84565969 19.08098355 -13 16 C-14.60086627 12.79826746 -14.49917089 9.47422941 -14 6 C-10.37898357 0.32707427 -6.66444879 -1.13753115 0 0 Z " fill="#5C5C5C" transform="translate(165,423)"/>
<path d="M0 0 C3.34139976 0.02999461 4.22721051 0.29795352 7.1875 2.1875 C9.96068709 5.04472306 10.45503898 6.73550746 10.625 10.625 C10.56189983 14.18155532 10.29355638 15.24365282 8.3125 18.375 C4.20859581 20.97134755 0.98725096 21.26509938 -3.75 20.3125 C-6.62029869 18.51856332 -8.24131638 17.32986724 -9.75 14.3125 C-10.25698467 9.15815588 -10.25698467 9.15815588 -9.75 6.3125 C-7.3125 3.375 -7.3125 3.375 -4.75 1.3125 C-3.75 0.3125 -3.75 0.3125 0 0 Z " fill="#5C5C5C" transform="translate(357.75,422.6875)"/>
<path d="M0 0 C7.73512476 -0.2975048 7.73512476 -0.2975048 11 2 C13.4457626 5.66864391 13.72100244 8.73406887 13 13 C11.125 15.5 11.125 15.5 9 17 C8.34 17 7.68 17 7 17 C6.66226562 16.10796875 6.32453125 15.2159375 5.9765625 14.296875 C5.53054688 13.12640625 5.08453125 11.9559375 4.625 10.75 C3.96371094 9.00976562 3.96371094 9.00976562 3.2890625 7.234375 C2.29409145 4.73790219 1.25589954 2.37095053 0 0 Z " fill="#3B76CB" transform="translate(398,406)"/>
</svg>
