<?xml version="1.0" encoding="UTF-8"?>
<svg version="1.1" xmlns="http://www.w3.org/2000/svg" width="512" height="512">
<path d="M0 0 C3.8035059 2.6041028 5.99771817 5.16541014 8.2421875 9.1640625 C8.82548828 10.19015625 9.40878906 11.21625 10.00976562 12.2734375 C10.62529297 13.37945312 11.24082031 14.48546875 11.875 15.625 C12.53471848 16.79228271 13.19554672 17.95893882 13.85742188 19.125 C15.23054315 21.5461013 16.5988675 23.96981903 17.96386719 26.39550781 C21.09809106 31.95591521 24.30273657 37.4756918 27.5 43 C28.74640882 45.15997447 29.99250137 47.32013147 31.23828125 49.48046875 C34.41722353 54.99080107 37.5981846 60.49996392 40.78100586 66.00805664 C42.04097958 68.19191427 43.29835245 70.37727475 44.55297852 72.56420898 C47.5217645 77.73621519 50.52028922 82.88316339 53.609375 87.984375 C54.45302612 89.39916138 54.45302612 89.39916138 55.3137207 90.8425293 C56.35883264 92.59318215 57.41878551 94.33510378 58.49682617 96.06567383 C61.61041007 101.32853381 63.18610127 105.84840871 62 112 C60 115.0625 60 115.0625 58 117 C58.53657227 117.77331665 58.53657227 117.77331665 59.08398438 118.56225586 C63.26921967 124.70272156 66.92027979 131.05475617 70.5 137.5625 C75.35093243 146.30185247 80.26976773 154.99477902 85.3125 163.625 C85.89209473 164.61717529 86.47168945 165.60935059 87.06884766 166.6315918 C89.64456497 171.0266533 92.23743023 175.4097339 94.87890625 179.765625 C95.30582764 180.46993652 95.73274902 181.17424805 96.17260742 181.89990234 C96.94815625 183.17384956 97.72796103 184.44522025 98.51293945 185.71337891 C101 189.78376986 101 189.78376986 101 192 C102.21059082 191.98428955 103.42118164 191.9685791 104.66845703 191.95239258 C109.17473658 191.89795031 113.68098724 191.86359793 118.1875 191.83520508 C120.13514094 191.82015101 122.08274816 191.7997032 124.03027344 191.77368164 C126.83537128 191.73714947 129.64001954 191.72023967 132.4453125 191.70703125 C133.74409836 191.68380547 133.74409836 191.68380547 135.06912231 191.66011047 C140.14598324 191.65870825 143.59830437 192.18566955 148 195 C153.11446438 200.25653283 154.25413848 205.65330379 154.22705078 212.83154297 C154.22734283 213.48590836 154.22763489 214.14027374 154.22793579 214.81446838 C154.22655288 216.95718076 154.21104147 219.09953657 154.1953125 221.2421875 C154.19157866 222.7357667 154.18873344 224.22934837 154.18673706 225.72293091 C154.17912978 229.63890438 154.15950653 233.55472764 154.1373291 237.47064209 C154.11680783 241.47259489 154.10772195 245.47457216 154.09765625 249.4765625 C154.07625765 257.31777699 154.04215713 265.15886976 154 273 C155.08539063 272.96519531 156.17078125 272.93039062 157.2890625 272.89453125 C158.73435942 272.86637612 160.17967321 272.83907781 161.625 272.8125 C162.33785156 272.78736328 163.05070312 272.76222656 163.78515625 272.73632812 C169.28069838 272.6607014 173.44121708 273.66609824 177.64453125 277.5 C180.91609656 281.70160895 182.12735475 284.47783866 182.11352539 289.74682617 C182.11344986 290.70759567 182.11337433 291.66836517 182.11329651 292.6582489 C182.10813522 293.69270645 182.10297394 294.727164 182.09765625 295.79296875 C182.09553383 297.38471672 182.09553383 297.38471672 182.09336853 299.00862122 C182.08776606 302.40160935 182.07521314 305.79453177 182.0625 309.1875 C182.05748532 311.48632717 182.05292236 313.78515538 182.04882812 316.08398438 C182.03779583 321.72267872 182.0210553 327.36133466 182 333 C182.59095459 333.10812012 183.18190918 333.21624023 183.79077148 333.32763672 C188.49199197 334.26490688 192.12712004 335.25154796 196.0625 338.125 C197.19365234 338.93324219 197.19365234 338.93324219 198.34765625 339.7578125 C199.16556641 340.37269531 199.16556641 340.37269531 200 341 C198.71026414 344.72983725 197.41787231 348.45874889 196.125 352.1875 C195.76019531 353.24259766 195.39539063 354.29769531 195.01953125 355.38476562 C194.66503906 356.40634766 194.31054688 357.42792969 193.9453125 358.48046875 C193.62062988 359.41785889 193.29594727 360.35524902 192.96142578 361.32104492 C192.03321765 363.90744102 191.03714092 366.45557451 190 369 C190.54269531 369.31453125 191.08539063 369.6290625 191.64453125 369.953125 C199.38727679 374.58482143 199.38727679 374.58482143 201 378 C202.58351609 385.82397358 201.13077741 391.17024797 198.375 398.5625 C198.03082031 399.55185547 197.68664062 400.54121094 197.33203125 401.56054688 C194.57244662 409.23341411 191.3777362 416.47669994 185.0625 421.875 C184.43472656 422.42929687 183.80695313 422.98359375 183.16015625 423.5546875 C175.65607645 428.57550039 169.30141966 427 160 427 C160 437.56 160 448.12 160 459 C51.1 459 -57.8 459 -170 459 C-170 448.44 -170 437.88 -170 427 C-174.95 427 -179.9 427 -185 427 C-194.41953015 423.89844739 -199.32574748 418.55611126 -204 410 C-205.64927189 406.24921431 -207.02918485 402.4310885 -208.375 398.5625 C-208.92607422 397.08426758 -208.92607422 397.08426758 -209.48828125 395.57617188 C-211.61335097 389.52573752 -212.86088256 384.28869556 -211 378 C-208.33892451 373.14642825 -205.02744532 371.51372266 -200 369 C-203.3 359.76 -206.6 350.52 -210 341 C-199.875 334.25 -199.875 334.25 -192 333 C-192.00666183 332.41197601 -192.01332367 331.82395203 -192.02018738 331.21810913 C-192.08666884 325.08605427 -192.13185377 318.95410218 -192.16479492 312.82177734 C-192.17986116 310.53462565 -192.20031797 308.24750275 -192.22631836 305.96044922 C-192.26279606 302.66887293 -192.27974834 299.37767938 -192.29296875 296.0859375 C-192.30845261 295.06696381 -192.32393646 294.04799011 -192.33988953 292.99813843 C-192.34135131 286.80156036 -191.86410736 282.14007603 -187.5 277.35546875 C-182.17547345 273.20954834 -178.36988771 272.86304931 -171.8125 272.9375 C-171.06291016 272.94201172 -170.31332031 272.94652344 -169.54101562 272.95117188 C-167.69397617 272.96293646 -165.84697787 272.98087135 -164 273 C-164.00666183 272.17838379 -164.01332367 271.35676758 -164.02018738 270.51025391 C-164.08046099 262.74263948 -164.12605661 254.97513949 -164.15543652 247.20735168 C-164.17104913 243.21446706 -164.1922061 239.22177674 -164.22631836 235.22900391 C-164.25907005 231.37105415 -164.27688609 227.51329053 -164.28463173 223.6552124 C-164.29014702 222.18810092 -164.30091673 220.72099888 -164.31719017 219.25396729 C-164.50288292 201.809927 -164.50288292 201.809927 -159.58317566 196.45898438 C-155.85346592 193.16908958 -152.78906784 191.87141825 -147.89575195 191.88647461 C-146.6648156 191.88658791 -146.6648156 191.88658791 -145.40901184 191.88670349 C-144.52767075 191.89186478 -143.64632965 191.89702606 -142.73828125 191.90234375 C-141.37959175 191.90446617 -141.37959175 191.90446617 -139.99345398 191.90663147 C-137.09976909 191.91222999 -134.20616151 191.92478219 -131.3125 191.9375 C-129.35091258 191.94251519 -127.38932394 191.94707807 -125.42773438 191.95117188 C-120.61845979 191.96219893 -115.809243 191.97946253 -111 192 C-110.73606445 191.29399658 -110.47212891 190.58799316 -110.20019531 189.8605957 C-108.92926592 186.83140942 -107.43237207 184.07919805 -105.796875 181.23046875 C-105.15314941 180.10616455 -104.50942383 178.98186035 -103.84619141 177.82348633 C-103.14760181 176.61140968 -102.44886787 175.39941622 -101.75 174.1875 C-101.02895447 172.93198792 -100.3080909 171.67637132 -99.58740234 170.4206543 C-91.77999043 156.83138432 -83.93061082 143.2632452 -75.90625 129.80078125 C-75.19734619 128.60811646 -75.19734619 128.60811646 -74.47412109 127.39135742 C-73.60081224 125.924306 -72.72377116 124.4594672 -71.84228516 122.99731445 C-69.71459441 119.72632767 -69.71459441 119.72632767 -69 116 C-69.495 115.484375 -69.99 114.96875 -70.5 114.4375 C-72.79598273 110.70652806 -72.68375311 107.20025331 -72 103 C-70.34069203 98.91512188 -68.13797572 95.21447392 -65.875 91.4375 C-65.24263428 90.34687256 -64.61026855 89.25624512 -63.95874023 88.13256836 C-61.9897067 84.74464014 -59.99561225 81.37232271 -58 78 C-56.82465947 75.98302998 -55.65139995 73.9648455 -54.48046875 71.9453125 C-52.18512628 67.99054817 -49.87997721 64.04178369 -47.56640625 60.09765625 C-43.84664594 53.74952542 -40.1720002 47.37583706 -36.5 41 C-35.25262858 38.84113172 -34.00523278 36.68227754 -32.7578125 34.5234375 C-30.19275265 30.08045916 -27.64945724 25.62580198 -25.1171875 21.1640625 C-23.869954 18.98428211 -22.62256407 16.80459121 -21.375 14.625 C-20.80716797 13.614375 -20.23933594 12.60375 -19.65429688 11.5625 C-14.72536597 2.99147285 -10.5810624 -2.37161744 0 0 Z " fill="#EEAD0A" transform="translate(261,27)"/>
<path d="M0 0 C3.8035059 2.6041028 5.99771817 5.16541014 8.2421875 9.1640625 C8.82548828 10.19015625 9.40878906 11.21625 10.00976562 12.2734375 C10.62529297 13.37945312 11.24082031 14.48546875 11.875 15.625 C12.53471848 16.79228271 13.19554672 17.95893882 13.85742188 19.125 C15.23054315 21.5461013 16.5988675 23.96981903 17.96386719 26.39550781 C21.09809106 31.95591521 24.30273657 37.4756918 27.5 43 C28.74640882 45.15997447 29.99250137 47.32013147 31.23828125 49.48046875 C34.41722353 54.99080107 37.5981846 60.49996392 40.78100586 66.00805664 C42.04097958 68.19191427 43.29835245 70.37727475 44.55297852 72.56420898 C47.5217645 77.73621519 50.52028922 82.88316339 53.609375 87.984375 C54.45302612 89.39916138 54.45302612 89.39916138 55.3137207 90.8425293 C56.35883264 92.59318215 57.41878551 94.33510378 58.49682617 96.06567383 C61.61041007 101.32853381 63.18610127 105.84840871 62 112 C60 115.0625 60 115.0625 58 117 C58.35771484 117.51554443 58.71542969 118.03108887 59.08398438 118.56225586 C63.26921967 124.70272156 66.92027979 131.05475617 70.5 137.5625 C75.35093243 146.30185247 80.26976773 154.99477902 85.3125 163.625 C85.89209473 164.61717529 86.47168945 165.60935059 87.06884766 166.6315918 C89.64456497 171.0266533 92.23743023 175.4097339 94.87890625 179.765625 C95.30582764 180.46993652 95.73274902 181.17424805 96.17260742 181.89990234 C96.94815625 183.17384956 97.72796103 184.44522025 98.51293945 185.71337891 C101 189.78376986 101 189.78376986 101 192 C102.21059082 191.98428955 103.42118164 191.9685791 104.66845703 191.95239258 C109.17473658 191.89795031 113.68098724 191.86359793 118.1875 191.83520508 C120.13514094 191.82015101 122.08274816 191.7997032 124.03027344 191.77368164 C126.83537128 191.73714947 129.64001954 191.72023967 132.4453125 191.70703125 C133.74409836 191.68380547 133.74409836 191.68380547 135.06912231 191.66011047 C140.14598324 191.65870825 143.59830437 192.18566955 148 195 C165.37184303 212.85439423 154 266.91676833 154 273 C59.29 273 -35.42 273 -133 273 C-133 203 -133 203 -129 197 C-124.92196942 193.17128134 -121.08159852 191.69540595 -115.5 191.6875 C-113.99847195 191.76664681 -112.49726023 191.86193297 -111 192 C-110.73606445 191.29399658 -110.47212891 190.58799316 -110.20019531 189.8605957 C-108.92926592 186.83140942 -107.43237207 184.07919805 -105.796875 181.23046875 C-105.15314941 180.10616455 -104.50942383 178.98186035 -103.84619141 177.82348633 C-103.14760181 176.61140968 -102.44886787 175.39941622 -101.75 174.1875 C-101.02895447 172.93198792 -100.3080909 171.67637132 -99.58740234 170.4206543 C-91.77999043 156.83138432 -83.93061082 143.2632452 -75.90625 129.80078125 C-75.43364746 129.00567139 -74.96104492 128.21056152 -74.47412109 127.39135742 C-73.60081224 125.924306 -72.72377116 124.4594672 -71.84228516 122.99731445 C-69.71459441 119.72632767 -69.71459441 119.72632767 -69 116 C-69.495 115.484375 -69.99 114.96875 -70.5 114.4375 C-72.79598273 110.70652806 -72.68375311 107.20025331 -72 103 C-70.34069203 98.91512188 -68.13797572 95.21447392 -65.875 91.4375 C-65.24263428 90.34687256 -64.61026855 89.25624512 -63.95874023 88.13256836 C-61.9897067 84.74464014 -59.99561225 81.37232271 -58 78 C-56.82465947 75.98302998 -55.65139995 73.9648455 -54.48046875 71.9453125 C-52.18512628 67.99054817 -49.87997721 64.04178369 -47.56640625 60.09765625 C-43.84664594 53.74952542 -40.1720002 47.37583706 -36.5 41 C-35.25262858 38.84113172 -34.00523278 36.68227754 -32.7578125 34.5234375 C-30.19275265 30.08045916 -27.64945724 25.62580198 -25.1171875 21.1640625 C-23.869954 18.98428211 -22.62256407 16.80459121 -21.375 14.625 C-20.80716797 13.614375 -20.23933594 12.60375 -19.65429688 11.5625 C-14.72536597 2.99147285 -10.5810624 -2.37161744 0 0 Z " fill="#FBC826" transform="translate(261,27)"/>
<path d="M0 0 C0.66803703 -0.00350607 1.33607406 -0.00701215 2.02435464 -0.01062447 C4.27289585 -0.01996155 6.52117937 -0.0150093 8.76973152 -0.01015663 C10.39408108 -0.01389173 12.01842885 -0.01849269 13.64277375 -0.02388728 C18.11439328 -0.03614999 22.58593818 -0.03585297 27.0575707 -0.03349853 C31.87703121 -0.03309119 36.69646752 -0.04412154 41.51591682 -0.05361366 C50.96096014 -0.07024234 60.4059785 -0.07572404 69.85103522 -0.07683842 C77.52633146 -0.07778797 85.20161944 -0.08189359 92.87691307 -0.08823967 C114.62587688 -0.10585684 136.37482093 -0.11507775 158.12379192 -0.11357872 C159.29683022 -0.11349881 160.46986853 -0.1134189 161.67845345 -0.11333656 C162.8529198 -0.1132548 164.02738615 -0.11317304 165.23744239 -0.1130888 C184.27708909 -0.11227567 203.31665672 -0.13141898 222.35628055 -0.1596133 C241.89435621 -0.18831803 261.43239328 -0.20215493 280.97049057 -0.20042574 C291.94436488 -0.19976103 302.91815629 -0.205289 313.89201164 -0.22678185 C323.23446685 -0.2449619 332.5768016 -0.24936713 341.91926681 -0.235763 C346.6875997 -0.22921739 351.45570126 -0.22917341 356.22401237 -0.2464695 C360.58760613 -0.26213504 364.95078387 -0.25940372 369.31436707 -0.24190123 C370.89442638 -0.23881691 372.47451624 -0.24251735 374.05453955 -0.25362138 C376.20052094 -0.2677061 378.34503569 -0.25718719 380.4909668 -0.24050903 C381.68339867 -0.24094377 382.87583053 -0.24137851 384.1043967 -0.24182642 C388.78584778 0.47336855 391.77114177 2.76744357 395.18382454 5.94476891 C398.04390704 11.51440325 397.70613176 17.01633789 395.89476204 22.88617516 C395.19769479 24.870844 394.48110544 26.84875135 393.74632454 28.81976891 C393.40214485 29.80912437 393.05796516 30.79847984 392.70335579 31.81781578 C389.94377116 39.49068301 386.74906074 46.73396884 380.43382454 52.13226891 C379.8060511 52.68656578 379.17827766 53.24086266 378.53148079 53.81195641 C371.02740098 58.83276929 364.6727442 57.25726891 355.37132454 57.25726891 C355.37132454 67.81726891 355.37132454 78.37726891 355.37132454 89.25726891 C246.47132454 89.25726891 137.57132454 89.25726891 25.37132454 89.25726891 C25.37132454 78.69726891 25.37132454 68.13726891 25.37132454 57.25726891 C20.42132454 57.25726891 15.47132454 57.25726891 10.37132454 57.25726891 C0.95179439 54.15571629 -3.95442294 48.81338017 -8.62867546 40.25726891 C-10.27794735 36.50648322 -11.65786031 32.6883574 -13.00367546 28.81976891 C-13.55474968 27.34153648 -13.55474968 27.34153648 -14.11695671 25.83344078 C-16.23658003 19.79851327 -17.51876087 14.52851261 -15.62867546 8.25726891 C-11.80184007 1.62145927 -7.35042561 0.00868684 0 0 Z " fill="#C9ECFE" transform="translate(65.62867546081543,396.74273109436035)"/>
<path d="M0 0 C3.8035059 2.6041028 5.99771817 5.16541014 8.2421875 9.1640625 C8.82548828 10.19015625 9.40878906 11.21625 10.00976562 12.2734375 C10.62529297 13.37945312 11.24082031 14.48546875 11.875 15.625 C12.53471848 16.79228271 13.19554672 17.95893882 13.85742188 19.125 C15.23054315 21.5461013 16.5988675 23.96981903 17.96386719 26.39550781 C21.09809106 31.95591521 24.30273657 37.4756918 27.5 43 C28.74640882 45.15997447 29.99250137 47.32013147 31.23828125 49.48046875 C34.41722353 54.99080107 37.5981846 60.49996392 40.78100586 66.00805664 C42.04097958 68.19191427 43.29835245 70.37727475 44.55297852 72.56420898 C47.5217645 77.73621519 50.52028922 82.88316339 53.609375 87.984375 C54.45302612 89.39916138 54.45302612 89.39916138 55.3137207 90.8425293 C56.35883264 92.59318215 57.41878551 94.33510378 58.49682617 96.06567383 C61.61041007 101.32853381 63.18610127 105.84840871 62 112 C60 115.0625 60 115.0625 58 117 C58.35771484 117.51554443 58.71542969 118.03108887 59.08398438 118.56225586 C63.26921967 124.70272156 66.92027979 131.05475617 70.5 137.5625 C75.35093243 146.30185247 80.26976773 154.99477902 85.3125 163.625 C85.89209473 164.61717529 86.47168945 165.60935059 87.06884766 166.6315918 C89.64456497 171.0266533 92.23743023 175.4097339 94.87890625 179.765625 C95.30582764 180.46993652 95.73274902 181.17424805 96.17260742 181.89990234 C96.94815625 183.17384956 97.72796103 184.44522025 98.51293945 185.71337891 C101 189.78376986 101 189.78376986 101 192 C31.37 192 -38.26 192 -110 192 C-109.09193485 187.45967425 -108.15373524 185.12979985 -105.89453125 181.23046875 C-104.92410889 179.54401245 -104.92410889 179.54401245 -103.93408203 177.82348633 C-103.2270719 176.61138361 -102.51987335 175.39939078 -101.8125 174.1875 C-101.08650675 172.9322143 -100.3610906 171.67659466 -99.63623047 170.4206543 C-97.78738467 167.2215597 -95.92994966 164.02755338 -94.0692749 160.83532715 C-92.43492341 158.03009002 -90.80584222 155.22179432 -89.17578125 152.4140625 C-84.78216726 144.85876125 -80.38114125 137.30830286 -75.90625 129.80078125 C-75.43364746 129.00567139 -74.96104492 128.21056152 -74.47412109 127.39135742 C-73.60081224 125.924306 -72.72377116 124.4594672 -71.84228516 122.99731445 C-69.71459441 119.72632767 -69.71459441 119.72632767 -69 116 C-69.495 115.484375 -69.99 114.96875 -70.5 114.4375 C-72.79598273 110.70652806 -72.68375311 107.20025331 -72 103 C-70.34069203 98.91512188 -68.13797572 95.21447392 -65.875 91.4375 C-65.24263428 90.34687256 -64.61026855 89.25624512 -63.95874023 88.13256836 C-61.9897067 84.74464014 -59.99561225 81.37232271 -58 78 C-56.82465947 75.98302998 -55.65139995 73.9648455 -54.48046875 71.9453125 C-52.18512628 67.99054817 -49.87997721 64.04178369 -47.56640625 60.09765625 C-43.84664594 53.74952542 -40.1720002 47.37583706 -36.5 41 C-35.25262858 38.84113172 -34.00523278 36.68227754 -32.7578125 34.5234375 C-30.19275265 30.08045916 -27.64945724 25.62580198 -25.1171875 21.1640625 C-23.869954 18.98428211 -22.62256407 16.80459121 -21.375 14.625 C-20.80716797 13.614375 -20.23933594 12.60375 -19.65429688 11.5625 C-14.72536597 2.99147285 -10.5810624 -2.37161744 0 0 Z " fill="#EEAC0A" transform="translate(261,27)"/>
<path d="M0 0 C3.61123694 2.75594398 6.84213792 5.73965152 10 9 C10.66 9.66 11.32 10.32 12 11 C12.38929687 10.49210937 12.77859375 9.98421875 13.1796875 9.4609375 C19.13131696 2.13796484 26.53315431 -3.33914988 36 -5 C46.7575846 -5.90330863 56.17975265 -3.30703712 65 3 C67.54089822 5.51750137 69.8157922 8.16965998 72 11 C72.59425781 10.33613281 73.18851562 9.67226563 73.80078125 8.98828125 C81.65363536 0.62248799 90.24731459 -4.91794012 101.9375 -5.375 C112.9763087 -5.21309747 121.31086278 -0.54834149 129.07421875 7.01171875 C129.70972656 7.66785156 130.34523437 8.32398438 131 9 C131.99 9.99 131.99 9.99 133 11 C133.43828125 10.41992188 133.8765625 9.83984375 134.328125 9.2421875 C140.19316922 2.01816961 147.6625976 -3.28876291 157 -5 C168.49277653 -5.95467153 178.05924585 -3.39102343 187 4 C189.18360197 6.24213151 191.07023374 8.52594069 193 11 C193.76570313 10.12988281 193.76570313 10.12988281 194.546875 9.2421875 C202.21148229 1.00681158 211.46526604 -4.92646153 222.9375 -5.375 C233.9763087 -5.21309747 242.31086278 -0.54834149 250.07421875 7.01171875 C250.70972656 7.66785156 251.34523438 8.32398438 252 9 C252.66 9.66 253.32 10.32 254 11 C254.58394531 10.23816406 254.58394531 10.23816406 255.1796875 9.4609375 C261.13131696 2.13796484 268.53315431 -3.33914988 278 -5 C289.48382617 -5.97772514 299.06199949 -3.38874709 308 4 C310.18360197 6.24213151 312.07023374 8.52594069 314 11 C314.680625 10.29875 315.36125 9.5975 316.0625 8.875 C317.0367486 7.91166735 318.01636797 6.95374953 319 6 C319.51949219 5.49597656 320.03898437 4.99195313 320.57421875 4.47265625 C328.76994337 -3.03531526 337.62083907 -5.37946658 348.53515625 -5.28125 C356.87883988 -4.60397241 362.23025033 -1.93475395 368 4 C366.59767844 7.82820503 365.19176567 11.65506931 363.7824707 15.48071289 C363.30328376 16.78308093 362.82509007 18.08581485 362.34790039 19.38891602 C361.66291662 21.25892881 360.97409463 23.12753427 360.28515625 24.99609375 C359.66459351 26.68496704 359.66459351 26.68496704 359.03149414 28.40795898 C358 31 358 31 357 32 C354.94105547 32.09789869 352.87868293 32.12371211 350.81741238 32.12304783 C349.83304813 32.1247786 349.83304813 32.1247786 348.82879773 32.12654433 C346.60242879 32.12921737 344.37613038 32.12468324 342.14976501 32.12025452 C340.54847924 32.12069008 338.94719354 32.12156471 337.34590822 32.12284368 C332.92434792 32.1250916 328.50281161 32.12106333 324.08125436 32.11606562 C319.32117293 32.11176553 314.56109296 32.11320723 309.80101013 32.1139679 C301.54675409 32.11449341 293.29250593 32.11134373 285.03825188 32.10573006 C273.10384055 32.09761879 261.16943306 32.09500022 249.23501927 32.09374207 C229.87436941 32.09155096 210.51372375 32.08488928 191.15307617 32.07543945 C172.34090191 32.06626686 153.52872878 32.05918528 134.71655273 32.05493164 C132.97851539 32.05453756 132.97851539 32.05453756 131.20536619 32.05413551 C125.39281718 32.05283051 119.58026817 32.0515668 113.76771915 32.05032361 C65.51180986 32.03994916 17.25590514 32.02232925 -31 32 C-31.7971003 30.10242655 -32.59260603 28.20418324 -33.38745117 26.30566406 C-33.8306218 25.24865295 -34.27379242 24.19164185 -34.73039246 23.1026001 C-36.39694188 19.02997432 -37.88175434 14.91011007 -39.3125 10.75 C-39.57611328 9.99332031 -39.83972656 9.23664063 -40.11132812 8.45703125 C-40.74413529 6.63914886 -41.37257534 4.81974712 -42 3 C-28.69097349 -6.5969851 -14.73567364 -8.11206276 0 0 Z " fill="#66BA69" transform="translate(93,365)"/>
<path d="M0 0 C0.72680969 0.0028299 1.45361938 0.00565979 2.20245361 0.00857544 C4.51534751 0.01973727 6.82784888 0.04483399 9.140625 0.0703125 C10.71223398 0.08034749 12.28384904 0.08947244 13.85546875 0.09765625 C17.70067122 0.11966346 21.54558164 0.15416535 25.390625 0.1953125 C24.76502686 0.50017578 24.13942871 0.80503906 23.49487305 1.11914062 C19.90108775 2.95710391 16.21744415 5.5416742 14.390625 9.1953125 C13.37471397 17.30335615 15.63024811 23.92202106 18.578125 31.3828125 C18.96548828 32.42373047 19.35285156 33.46464844 19.75195312 34.53710938 C22.87384391 42.66434572 26.20797256 50.25498975 34.44714451 54.16486454 C48.39933441 59.04922021 67.13826712 56.36789972 81.72663748 56.39592111 C85.39577775 56.40402951 89.06489823 56.41769017 92.73402405 56.43063354 C99.07161389 56.45225046 105.40920588 56.47044787 111.74681282 56.48623848 C120.90962146 56.50907336 130.07240806 56.53719626 139.23519783 56.56655776 C154.10576337 56.61406815 168.976338 56.65737646 183.84692383 56.69799805 C198.28150132 56.7374377 212.71607077 56.77888382 227.15063477 56.82299805 C228.48808333 56.82708446 228.48808333 56.82708446 229.85255105 56.83125342 C234.32617174 56.84493429 238.79979231 56.85865429 243.27341282 56.87239373 C280.31246694 56.98609805 317.35153861 57.09270227 354.390625 57.1953125 C354.390625 67.7553125 354.390625 78.3153125 354.390625 89.1953125 C245.490625 89.1953125 136.590625 89.1953125 24.390625 89.1953125 C24.390625 78.6353125 24.390625 68.0753125 24.390625 57.1953125 C19.440625 57.1953125 14.490625 57.1953125 9.390625 57.1953125 C-0.02890515 54.09375989 -4.93512248 48.75142376 -9.609375 40.1953125 C-11.25864689 36.44452681 -12.63855985 32.626401 -13.984375 28.7578125 C-14.53544922 27.27958008 -14.53544922 27.27958008 -15.09765625 25.77148438 C-17.21727956 19.73655686 -18.49946041 14.4665562 -16.609375 8.1953125 C-12.54202003 1.14243709 -7.69296319 -0.11325205 0 0 Z " fill="#AAE8F2" transform="translate(66.609375,396.8046875)"/>
<path d="M0 0 C3.8035059 2.6041028 5.99771817 5.16541014 8.2421875 9.1640625 C8.82548828 10.19015625 9.40878906 11.21625 10.00976562 12.2734375 C10.62529297 13.37945312 11.24082031 14.48546875 11.875 15.625 C12.53471848 16.79228271 13.19554672 17.95893882 13.85742188 19.125 C15.23054315 21.5461013 16.5988675 23.96981903 17.96386719 26.39550781 C21.09809106 31.95591521 24.30273657 37.4756918 27.5 43 C28.74640882 45.15997447 29.99250137 47.32013147 31.23828125 49.48046875 C34.41722353 54.99080107 37.5981846 60.49996392 40.78100586 66.00805664 C42.04097958 68.19191427 43.29835245 70.37727475 44.55297852 72.56420898 C47.5217645 77.73621519 50.52028922 82.88316339 53.609375 87.984375 C54.17180908 88.92756592 54.73424316 89.87075684 55.3137207 90.8425293 C56.35883264 92.59318215 57.41878551 94.33510378 58.49682617 96.06567383 C61.60037911 101.31157858 63.23265531 105.86699123 62 112 C60.39394427 115.0295779 58.48274034 117.48591574 55.13132381 118.64789295 C52.76794735 119.03833644 50.54493597 119.12896204 48.14881897 119.13371277 C47.17450424 119.13797775 46.20018951 119.14224274 45.1963501 119.14663696 C43.60267609 119.14595718 43.60267609 119.14595718 41.97680664 119.14526367 C40.2908564 119.15030159 40.2908564 119.15030159 38.57084656 119.15544128 C34.85060525 119.16495037 31.13040895 119.1668943 27.41015625 119.16796875 C24.82710247 119.17118108 22.24404888 119.17454513 19.66099548 119.17805481 C14.24477642 119.18404577 8.82857524 119.18593751 3.41235352 119.18530273 C-2.84402853 119.18470185 -9.10032439 119.19525745 -15.35668463 119.2110464 C-21.38055029 119.22570578 -27.40436919 119.2292906 -33.42825508 119.22869301 C-35.98913488 119.22987445 -38.55001528 119.23430536 -41.11088371 119.24202538 C-44.68979966 119.25180506 -48.2684927 119.2489552 -51.84741211 119.24291992 C-53.43804977 119.25134918 -53.43804977 119.25134918 -55.06082153 119.25994873 C-56.03795609 119.25575424 -57.01509064 119.25155975 -58.02183533 119.24723816 C-59.2902648 119.24805531 -59.2902648 119.24805531 -60.58431911 119.24888897 C-64.60045495 118.83510422 -67.31083371 117.61466182 -70.3125 114.9375 C-72.626707 110.9090656 -72.74632205 107.48504812 -72 103 C-70.33868259 98.91588167 -68.13802291 95.21455268 -65.875 91.4375 C-65.24263428 90.34687256 -64.61026855 89.25624512 -63.95874023 88.13256836 C-61.9897067 84.74464014 -59.99561225 81.37232271 -58 78 C-56.82465947 75.98302998 -55.65139995 73.9648455 -54.48046875 71.9453125 C-52.18512628 67.99054817 -49.87997721 64.04178369 -47.56640625 60.09765625 C-43.84664594 53.74952542 -40.1720002 47.37583706 -36.5 41 C-35.25262858 38.84113172 -34.00523278 36.68227754 -32.7578125 34.5234375 C-30.19275265 30.08045916 -27.64945724 25.62580198 -25.1171875 21.1640625 C-23.869954 18.98428211 -22.62256407 16.80459121 -21.375 14.625 C-20.80716797 13.614375 -20.23933594 12.60375 -19.65429688 11.5625 C-14.72536597 2.99147285 -10.5810624 -2.37161744 0 0 Z " fill="#66BA69" transform="translate(261,27)"/>
<path d="M0 0 C1.02574883 0.00212242 1.02574883 0.00212242 2.07221985 0.00428772 C4.25261847 0.00987749 6.43291376 0.02242803 8.61328125 0.03515625 C10.09309747 0.04017258 11.57291531 0.04473525 13.05273438 0.04882812 C16.67711682 0.05984354 20.30143895 0.07710113 23.92578125 0.09765625 C21.72335212 1.75182111 19.51696068 3.39940476 17.30078125 5.03515625 C13.97367633 7.9244842 13.03917991 9.81961292 12.64730835 14.23614502 C12.63398468 15.47080505 12.62066101 16.70546509 12.60693359 17.97753906 C12.59186516 19.00254013 12.59186516 19.00254013 12.57649231 20.04824829 C12.54568727 22.29908433 12.52863296 24.54980156 12.51171875 26.80078125 C12.49300491 28.36449199 12.47343133 29.92819265 12.45303345 31.49188232 C12.40172892 35.60174619 12.3620943 39.7116428 12.32489014 43.82165527 C12.28483992 48.01790452 12.23375223 52.21401781 12.18359375 56.41015625 C12.08685436 64.63923 12.00244331 72.86837109 11.92578125 81.09765625 C10.84039062 81.13503906 9.755 81.17242187 8.63671875 81.2109375 C7.19137386 81.276635 5.74606286 81.34308101 4.30078125 81.41015625 C3.58792969 81.43271484 2.87507813 81.45527344 2.140625 81.47851562 C-3.25146873 81.75059375 -7.59694457 82.83809975 -11.71875 86.59765625 C-15.47244247 91.41845193 -16.21978423 94.76938672 -16.63671875 100.78515625 C-16.72050781 101.96464844 -16.80429688 103.14414062 -16.890625 104.359375 C-16.98150391 105.71482422 -16.98150391 105.71482422 -17.07421875 107.09765625 C-16.02234375 106.99453125 -14.97046875 106.89140625 -13.88671875 106.78515625 C-10.07421875 107.09765625 -10.07421875 107.09765625 -7.07421875 109.28515625 C-5.07421875 112.09765625 -5.07421875 112.09765625 -5.01171875 114.72265625 C-6.32796924 117.66486323 -7.18293108 118.65201241 -10.07421875 120.09765625 C-12.38421875 120.09765625 -14.69421875 120.09765625 -17.07421875 120.09765625 C-17.07421875 130.32765625 -17.07421875 140.55765625 -17.07421875 151.09765625 C-20.37421875 149.11765625 -23.67421875 147.13765625 -27.07421875 145.09765625 C-32.16748215 143.01730923 -36.39462311 141.96962323 -41.859375 141.5234375 C-43.3290271 141.40029175 -43.3290271 141.40029175 -44.82836914 141.2746582 C-45.56949951 141.21624756 -46.31062988 141.15783691 -47.07421875 141.09765625 C-47.15041888 134.37165603 -47.20288167 127.64576757 -47.23901367 120.91943359 C-47.25407991 118.6322819 -47.27453672 116.345159 -47.30053711 114.05810547 C-47.33701481 110.76652918 -47.35396709 107.47533563 -47.3671875 104.18359375 C-47.38267136 103.16462006 -47.39815521 102.14564636 -47.41410828 101.09579468 C-47.41557006 94.89921661 -46.93832611 90.23773228 -42.57421875 85.453125 C-37.2496922 81.30720459 -33.44410646 80.96070556 -26.88671875 81.03515625 C-26.13712891 81.03966797 -25.38753906 81.04417969 -24.61523438 81.04882812 C-22.76819492 81.06059271 -20.92119662 81.0785276 -19.07421875 81.09765625 C-19.08088058 80.27604004 -19.08754242 79.45442383 -19.09440613 78.60791016 C-19.15467974 70.84029573 -19.20027536 63.07279574 -19.22965527 55.30500793 C-19.24526788 51.31212331 -19.26642485 47.31943299 -19.30053711 43.32666016 C-19.3332888 39.4687104 -19.35110484 35.61094678 -19.35885048 31.75286865 C-19.36436577 30.28575717 -19.37513548 28.81865513 -19.39140892 27.35162354 C-19.57710167 9.90758325 -19.57710167 9.90758325 -14.65739441 4.55664062 C-9.85593651 0.32138038 -6.20642189 -0.02533233 0 0 Z " fill="#D7A620" transform="translate(116.07421875,218.90234375)"/>
<path d="M0 0 C4.95518366 2.83153352 8.04210246 7.70435331 10 13 C9.47775301 16.63686451 7.74929799 19.44980152 5.9296875 22.6015625 C4.96760376 24.27629639 4.96760376 24.27629639 3.98608398 25.98486328 C3.28248634 27.19829845 2.57878903 28.41167583 1.875 29.625 C1.14808856 30.88630809 0.42161372 32.14786789 -0.30444336 33.40966797 C-2.17155662 36.65199365 -4.04423493 39.89106826 -5.91827393 43.12939453 C-7.57276421 45.99046874 -9.2218471 48.85465077 -10.87109375 51.71875 C-13.94087117 57.04779322 -17.01586085 62.37380443 -20.09277344 67.69873047 C-23.45992626 73.52702546 -26.82361698 79.3573174 -30.1875 85.1875 C-31.12348022 86.80906006 -31.12348022 86.80906006 -32.07836914 88.46337891 C-33.22315111 90.44720633 -34.36626714 92.43199651 -35.50732422 94.41796875 C-36.42489816 96.00518857 -37.35161323 97.58721666 -38.29345703 99.16015625 C-40.80238742 103.37916469 -41.73429182 106.04353022 -41 111 C-38.79329368 114.46768137 -36.28114001 116.60118335 -33 119 C-37.18089192 119.04961351 -41.36162566 119.08582016 -45.54272461 119.10986328 C-46.96365343 119.11989146 -48.38456178 119.13351741 -49.80541992 119.15087891 C-51.85340444 119.17526821 -53.90111498 119.1865149 -55.94921875 119.1953125 C-57.17987061 119.20578613 -58.41052246 119.21625977 -59.6784668 119.22705078 C-64.20325581 118.91774878 -66.93424848 117.95053514 -70.3125 114.9375 C-72.626707 110.9090656 -72.74632205 107.48504812 -72 103 C-70.33868259 98.91588167 -68.13802291 95.21455268 -65.875 91.4375 C-65.24263428 90.34687256 -64.61026855 89.25624512 -63.95874023 88.13256836 C-61.9897067 84.74464014 -59.99561225 81.37232271 -58 78 C-56.82465947 75.98302998 -55.65139995 73.9648455 -54.48046875 71.9453125 C-52.18512628 67.99054817 -49.87997721 64.04178369 -47.56640625 60.09765625 C-43.84664594 53.74952542 -40.1720002 47.37583706 -36.5 41 C-35.25262858 38.84113172 -34.00523278 36.68227754 -32.7578125 34.5234375 C-30.19275265 30.08045916 -27.64945724 25.62580198 -25.1171875 21.1640625 C-23.869954 18.98428211 -22.62256407 16.80459121 -21.375 14.625 C-20.80716797 13.614375 -20.23933594 12.60375 -19.65429688 11.5625 C-14.72536597 2.99147285 -10.5810624 -2.37161744 0 0 Z " fill="#509351" transform="translate(261,27)"/>
<path d="M0 0 C0.72680969 0.0028299 1.45361938 0.00565979 2.20245361 0.00857544 C4.51534751 0.01973727 6.82784888 0.04483399 9.140625 0.0703125 C10.71223398 0.08034749 12.28384904 0.08947244 13.85546875 0.09765625 C17.70067122 0.11966346 21.54558164 0.15416535 25.390625 0.1953125 C24.76502686 0.50017578 24.13942871 0.80503906 23.49487305 1.11914062 C19.90108775 2.95710391 16.21744415 5.5416742 14.390625 9.1953125 C13.37471397 17.30335615 15.63024811 23.92202106 18.578125 31.3828125 C18.96548828 32.42373047 19.35285156 33.46464844 19.75195312 34.53710938 C22.92972108 42.80981109 26.28190506 50.02138682 34.4375 54.265625 C39.79106984 55.9510081 45.31372094 55.93334167 50.890625 56.0546875 C54.390625 56.1953125 54.390625 56.1953125 55.390625 57.1953125 C55.4790217 59.5709977 55.50592805 61.91739924 55.48828125 64.29296875 C55.4868663 65.00182724 55.48545135 65.71068573 55.48399353 66.44102478 C55.47837943 68.71332962 55.46582463 70.98553725 55.453125 73.2578125 C55.44811181 74.79492046 55.44354859 76.33202995 55.43945312 77.86914062 C55.4292547 81.64459917 55.40968232 85.41984654 55.390625 89.1953125 C45.160625 89.1953125 34.930625 89.1953125 24.390625 89.1953125 C24.390625 78.6353125 24.390625 68.0753125 24.390625 57.1953125 C19.440625 57.1953125 14.490625 57.1953125 9.390625 57.1953125 C-0.02890515 54.09375989 -4.93512248 48.75142376 -9.609375 40.1953125 C-11.25864689 36.44452681 -12.63855985 32.626401 -13.984375 28.7578125 C-14.53544922 27.27958008 -14.53544922 27.27958008 -15.09765625 25.77148438 C-17.21727956 19.73655686 -18.49946041 14.4665562 -16.609375 8.1953125 C-12.54202003 1.14243709 -7.69296319 -0.11325205 0 0 Z " fill="#ACCFDC" transform="translate(66.609375,396.8046875)"/>
<path d="M0 0 C14.85 0.495 14.85 0.495 30 1 C28.50697948 4.73255129 27.04854911 7.82962441 25.05078125 11.26171875 C24.4573291 12.28539551 23.86387695 13.30907227 23.25244141 14.36376953 C22.61226074 15.46060059 21.97208008 16.55743164 21.3125 17.6875 C20.6420528 18.84207469 19.97197438 19.99686361 19.30224609 21.15185547 C17.90659195 23.55799301 16.50934817 25.96319609 15.11083984 28.36767578 C11.77027898 34.11320989 8.44718986 39.86882698 5.125 45.625 C4.50270508 46.70273682 3.88041016 47.78047363 3.23925781 48.89086914 C-1.56833196 57.22714766 -6.30559905 65.59949304 -11 74 C-20.9 74 -30.8 74 -41 74 C-40.09193485 69.45967425 -39.15373524 67.12979985 -36.89453125 63.23046875 C-36.24758301 62.10616455 -35.60063477 60.98186035 -34.93408203 59.82348633 C-34.2270719 58.61138361 -33.51987335 57.39939078 -32.8125 56.1875 C-32.08650675 54.9322143 -31.3610906 53.67659466 -30.63623047 52.4206543 C-28.78738467 49.2215597 -26.92994966 46.02755338 -25.0692749 42.83532715 C-23.43492341 40.03009002 -21.80584222 37.22179432 -20.17578125 34.4140625 C-13.49185036 22.91849848 -6.75101186 11.45626255 0 0 Z " fill="#C98F0C" transform="translate(192,145)"/>
<path d="M0 0 C1.88041992 0.07250977 1.88041992 0.07250977 3.79882812 0.14648438 C5.10916016 0.20255859 6.41949219 0.25863281 7.76953125 0.31640625 C9.10479755 0.3696486 10.44008397 0.42238885 11.77539062 0.47460938 C15.04450269 0.60442971 18.31332044 0.73940161 21.58203125 0.87890625 C20.793125 1.66007812 20.00421875 2.44125 19.19140625 3.24609375 C13.95066088 8.53391169 12.53483358 12.13132973 12.01953125 19.56640625 C11.93574219 20.74589844 11.85195312 21.92539062 11.765625 23.140625 C11.67474609 24.49607422 11.67474609 24.49607422 11.58203125 25.87890625 C13.15984375 25.72421875 13.15984375 25.72421875 14.76953125 25.56640625 C18.58203125 25.87890625 18.58203125 25.87890625 21.58203125 28.06640625 C23.58203125 30.87890625 23.58203125 30.87890625 23.64453125 33.50390625 C22.32828076 36.44611323 21.47331892 37.43326241 18.58203125 38.87890625 C16.27203125 38.87890625 13.96203125 38.87890625 11.58203125 38.87890625 C11.58203125 49.10890625 11.58203125 59.33890625 11.58203125 69.87890625 C8.28203125 67.89890625 4.98203125 65.91890625 1.58203125 63.87890625 C-3.51123215 61.79855923 -7.73837311 60.75087323 -13.203125 60.3046875 C-14.18289307 60.22259033 -15.16266113 60.14049316 -16.17211914 60.0559082 C-16.91324951 59.99749756 -17.65437988 59.93908691 -18.41796875 59.87890625 C-18.49416888 53.15290603 -18.54663167 46.42701757 -18.58276367 39.70068359 C-18.59782991 37.4135319 -18.61828672 35.126409 -18.64428711 32.83935547 C-18.68076481 29.54777918 -18.69771709 26.25658563 -18.7109375 22.96484375 C-18.72642136 21.94587006 -18.74190521 20.92689636 -18.75785828 19.87704468 C-18.75932006 13.68046661 -18.28207611 9.01898228 -13.91796875 4.234375 C-9.01082097 0.41344483 -6.12875376 -0.24958726 0 0 Z " fill="#C98F0D" transform="translate(87.41796875,300.12109375)"/>
<path d="M0 0 C3.20432818 2.37080043 3.91578015 5.21784604 5.0078125 8.953125 C5.35457031 10.13003906 5.70132813 11.30695313 6.05859375 12.51953125 C6.41050781 13.75058594 6.76242188 14.98164063 7.125 16.25 C7.66447266 18.07337891 7.66447266 18.07337891 8.21484375 19.93359375 C9.89442038 25.70202735 11.14442925 31.01100476 12 37 C2.1 37 -7.8 37 -18 37 C-20.95046691 29.91887941 -23.82640301 22.97870418 -26.3125 15.75 C-26.57611328 14.99332031 -26.83972656 14.23664063 -27.11132812 13.45703125 C-27.74413529 11.63914886 -28.37257534 9.81974712 -29 8 C-19.75595868 1.33422871 -11.57159411 -1.45426791 0 0 Z " fill="#509451" transform="translate(80,360)"/>
<path d="M0 0 C9.57 0 19.14 0 29 0 C29 10.23 29 20.46 29 31 C19.43 31 9.86 31 0 31 C0 20.77 0 10.54 0 0 Z " fill="#8DC6CC" transform="translate(92,454)"/>
<path d="M0 0 C2.5625 1.125 2.5625 1.125 4 3 C4.45576572 6.12525064 4.69037987 8.05433497 2.78515625 10.6640625 C0.42714298 12.42870262 -1.07865172 12.40108347 -4 12.375 C-4.86625 12.38273437 -5.7325 12.39046875 -6.625 12.3984375 C-9.44119416 11.92598387 -10.33474734 11.28837946 -12 9 C-12.64271323 3.85829416 -12.64271323 3.85829416 -10.75390625 1.3359375 C-7.55085935 -1.10379979 -3.83823322 -0.49883175 0 0 Z " fill="#BE911E" transform="translate(145,244)"/>
<path d="M0 0 C1.45599609 0.00580078 1.45599609 0.00580078 2.94140625 0.01171875 C5.4375 0.3125 5.4375 0.3125 7.4375 2.3125 C8.10682271 8.44795817 8.10682271 8.44795817 5.9375 11.25 C2.37836615 12.76263189 -0.75640499 13.01444375 -4.5625 12.3125 C-7.0625 10.625 -7.0625 10.625 -8.5625 8.3125 C-9 5.75 -9 5.75 -8.5625 3.3125 C-6.13311426 -0.05002728 -4.0055753 -0.06933752 0 0 Z " fill="#B07A0D" transform="translate(409.5625,326.6875)"/>
<path d="M0 0 C0.96808594 -0.01675781 1.93617188 -0.03351563 2.93359375 -0.05078125 C5.5625 0.3125 5.5625 0.3125 7.3828125 1.6796875 C8.5625 3.3125 8.5625 3.3125 9 5.75 C8.5625 8.3125 8.5625 8.3125 7.0625 10.625 C3.54774536 12.99745938 0.68399675 12.9881552 -3.4375 12.3125 C-5.9375 11.25 -5.9375 11.25 -7.4375 9.3125 C-7.8125 5.75 -7.8125 5.75 -7.4375 2.3125 C-4.83563892 -0.28936108 -3.61395645 0.01439823 0 0 Z " fill="#B07A0D" transform="translate(332.4375,326.6875)"/>
<path d="M0 0 C2.5 1.125 2.5 1.125 4 3 C4.45576572 6.12525064 4.69037987 8.05433497 2.78515625 10.6640625 C0.42714298 12.42870262 -1.07865172 12.40108347 -4 12.375 C-4.86625 12.38273437 -5.7325 12.39046875 -6.625 12.3984375 C-9.44204351 11.92584138 -10.33111887 11.28599151 -12 9 C-12.4375 6 -12.4375 6 -12 3 C-8.91316899 -0.85853877 -4.5623051 -0.67312698 0 0 Z " fill="#BE901E" transform="translate(375,244)"/>
<path d="M0 0 C0.7734375 -0.01675781 1.546875 -0.03351563 2.34375 -0.05078125 C5.02452482 0.40087103 5.89095971 1.15193332 7.5 3.3125 C8.14027539 8.4347031 8.14027539 8.4347031 6.2890625 10.97265625 C3.93537766 12.73535036 2.41879124 12.74565656 -0.5 12.75 C-1.799375 12.77900391 -1.799375 12.77900391 -3.125 12.80859375 C-5.5 12.3125 -5.5 12.3125 -7.3203125 10.48046875 C-8.5 8.3125 -8.5 8.3125 -8.375 5.1875 C-6.97806626 0.59757486 -4.41121266 0.02205606 0 0 Z " fill="#BE911E" transform="translate(294.5,243.6875)"/>
<path d="M0 0 C0.86625 0.00386719 1.7325 0.00773437 2.625 0.01171875 C5 0.3125 5 0.3125 8 2.3125 C8.4375 5.75 8.4375 5.75 8 9.3125 C6.23061796 11.59795181 4.92086098 12.16153918 2.09375 12.625 C-1.52840324 12.84124795 -3.44055353 12.69012637 -6.5 10.625 C-8.29268598 7.86127578 -8.58006212 6.54427469 -8 3.3125 C-5.65276297 0.15769268 -3.83557671 -0.07420014 0 0 Z " fill="#B07A0D" transform="translate(179,326.6875)"/>
<path d="M0 0 C2.5 1.6875 2.5 1.6875 4 4 C4.4375 6.5625 4.4375 6.5625 4 9 C2.31392848 11.26616687 1.44876275 11.93135701 -1.375 12.36328125 C-2.24125 12.34652344 -3.1075 12.32976562 -4 12.3125 C-4.86625 12.30863281 -5.7325 12.30476563 -6.625 12.30078125 C-9 12 -9 12 -12 10 C-12.4375 6.5625 -12.4375 6.5625 -12 3 C-9.02815713 -0.83863038 -4.49167698 -0.82838305 0 0 Z " fill="#BE911E" transform="translate(337,264)"/>
<path d="M0 0 C2.5 1.0625 2.5 1.0625 4 3 C4.4375 6.5625 4.4375 6.5625 4 10 C0.78169935 12.14553377 -0.26786507 12.29583868 -4 12.3125 C-5.299375 12.33763672 -5.299375 12.33763672 -6.625 12.36328125 C-9.44876275 11.93135701 -10.31392848 11.26616687 -12 9 C-12.58006212 5.76822531 -12.29268598 4.45122422 -10.5 1.6875 C-6.98524536 -0.68495938 -4.12149675 -0.6756552 0 0 Z " fill="#BE911E" transform="translate(183,264)"/>
<path d="M0 0 C2.16796875 0.34765625 2.16796875 0.34765625 4.79296875 1.97265625 C6.16796875 4.34765625 6.16796875 4.34765625 6.04296875 7.47265625 C5.16796875 10.34765625 5.16796875 10.34765625 3.16796875 12.34765625 C0.890625 12.61328125 0.890625 12.61328125 -1.76953125 12.59765625 C-2.64480469 12.6028125 -3.52007812 12.60796875 -4.421875 12.61328125 C-6.83203125 12.34765625 -6.83203125 12.34765625 -9.83203125 10.34765625 C-10.4969774 4.25231653 -10.4969774 4.25231653 -8.5859375 1.65234375 C-5.80219787 -0.41841134 -3.36373909 -0.12620881 0 0 Z " fill="#AF7A0D" transform="translate(219.83203125,165.65234375)"/>
<path d="M0 0 C0.86625 -0.00773437 1.7325 -0.01546875 2.625 -0.0234375 C5 0.375 5 0.375 6.8203125 1.67578125 C8 3.375 8 3.375 7.875 6.9375 C7 10.375 7 10.375 4 12.375 C-3.01081917 13.04269706 -3.01081917 13.04269706 -6.5 10.6875 C-8.29268598 7.92377578 -8.58006212 6.60677469 -8 3.375 C-5.65953582 0.23682135 -3.82416748 -0.03414435 0 0 Z " fill="#AF7A0D" transform="translate(256,326.625)"/>
<path d="M0 0 C2.5 1.6875 2.5 1.6875 4 4 C4.4375 6.5625 4.4375 6.5625 4 9 C2.31693598 11.25671285 1.43147415 11.92761453 -1.375 12.3984375 C-2.24125 12.39070313 -3.1075 12.38296875 -4 12.375 C-4.86625 12.38273437 -5.7325 12.39046875 -6.625 12.3984375 C-9 12 -9 12 -10.8203125 10.69921875 C-12 9 -12 9 -11.875 5.4375 C-10.30011506 -0.74954798 -5.64551931 -0.9200947 0 0 Z " fill="#BE911E" transform="translate(260,264)"/>
<path d="M0 0 C2.16796875 0.34765625 2.16796875 0.34765625 4.79296875 1.97265625 C6.16796875 4.34765625 6.16796875 4.34765625 6.10546875 7.47265625 C5.16796875 10.34765625 5.16796875 10.34765625 2.16796875 12.34765625 C0.01171875 12.6484375 0.01171875 12.6484375 -2.33203125 12.66015625 C-3.4921875 12.68529297 -3.4921875 12.68529297 -4.67578125 12.7109375 C-7.35655607 12.25928522 -8.22299096 11.50822293 -9.83203125 9.34765625 C-10.47496037 4.20422326 -10.47496037 4.20422326 -8.5859375 1.6875 C-5.81204614 -0.43153059 -3.38086514 -0.12685138 0 0 Z " fill="#BE911E" transform="translate(219.83203125,243.65234375)"/>
<path d="M0 0 C2.5 1.0625 2.5 1.0625 4 3 C4.4375 6.5625 4.4375 6.5625 4 10 C0.80254858 12.13163428 -0.28757916 12.31975564 -4 12.375 C-4.86625 12.40335938 -5.7325 12.43171875 -6.625 12.4609375 C-9 12 -9 12 -10.8203125 10.13671875 C-12 8 -12 8 -11.875 5.4375 C-9.72733144 -0.54529098 -5.99027352 -0.85575336 0 0 Z " fill="#AF7A0D" transform="translate(298,166)"/>
<path d="M0 0 C1.45212891 -0.04253906 1.45212891 -0.04253906 2.93359375 -0.0859375 C5.5625 0.375 5.5625 0.375 7.421875 2.234375 C8.5625 4.375 8.5625 4.375 8.375 7 C7.5625 9.375 7.5625 9.375 5.5625 11.375 C3.03125 11.640625 3.03125 11.640625 0.0625 11.625 C-0.9171875 11.63015625 -1.896875 11.6353125 -2.90625 11.640625 C-5.4375 11.375 -5.4375 11.375 -7.4375 9.375 C-7.6875 5.875 -7.6875 5.875 -7.4375 2.375 C-4.84349494 -0.21900506 -3.60565384 0.04788385 0 0 Z " fill="#AE790D" transform="translate(102.4375,326.625)"/>
<path d="M0 0 C1.31291016 -0.03867188 1.31291016 -0.03867188 2.65234375 -0.078125 C5.0625 0.25 5.0625 0.25 6.890625 1.5390625 C8.0625 3.25 8.0625 3.25 7.875 6.875 C7.606875 7.98875 7.33875 9.1025 7.0625 10.25 C4.60867866 11.47691067 2.86265897 11.45175931 0.125 11.5 C-0.75027344 11.52578125 -1.62554687 11.5515625 -2.52734375 11.578125 C-4.9375 11.25 -4.9375 11.25 -6.765625 9.9609375 C-7.9375 8.25 -7.9375 8.25 -7.75 4.625 C-7.481875 3.51125 -7.21375 2.3975 -6.9375 1.25 C-4.48367866 0.02308933 -2.73765897 0.04824069 0 0 Z " fill="#AE790D" transform="translate(255.9375,186.75)"/>
</svg>
